M48
; DRILL file {KiCad (5.1.10)-1} date 08/30/21 20:48:03
; FORMAT={3:3/ absolute / metric / suppress leading zeros}
; #@! TF.CreationDate,2021-08-30T20:48:03+03:00
; #@! TF.GenerationSoftware,Kicad,Pcbnew,(5.1.10)-1
FMAT,2
METRIC,TZ
T1C0.300
T2C0.400
T3C0.500
T4C0.550
T5C0.800
T6C1.000
T7C1.020
T8C1.100
T9C1.300
T10C3.000
T11C0.900
T12C0.991
%
G90
G05
T1
X68000Y-60500
X68000Y-64500
X68200Y-80000
X68200Y-98200
X68250Y-85500
X68250Y-105250
X68250Y-118450
X68250Y-123750
X72000Y-112300
X72250Y-118450
X72250Y-123750
X72950Y-60500
X72950Y-64500
X72950Y-70000
X72950Y-80000
X73000Y-85500
X73200Y-105250
X74390Y-89930
X75700Y-57200
X75700Y-98200
X75750Y-53150
X77000Y-112300
X80000Y-79250
X80750Y-65500
X81000Y-130000
X81900Y-102500
X81900Y-106000
X82000Y-53150
X83000Y-73000
X83200Y-83400
X83200Y-87100
X83250Y-65500
X83600Y-122000
X83600Y-126000
X83700Y-94500
X85750Y-65500
X85900Y-57200
X85900Y-91500
X85900Y-97400
X86400Y-73000
X86400Y-76500
X86600Y-112400
X87800Y-94500
X88000Y-130000
X88500Y-65500
X89000Y-73000
X89500Y-106100
X90000Y-53150
X90000Y-116500
X90100Y-77100
X91250Y-57200
X91250Y-65500
X91500Y-122000
X91500Y-126000
X93500Y-61500
X94200Y-110100
X94700Y-66700
X94800Y-71000
X96200Y-77100
X99000Y-116500
X99000Y-130000
X99300Y-53150
X99300Y-57200
X101000Y-66750
X101000Y-71000
X101000Y-76700
X102700Y-88000
X102700Y-89400
X102700Y-90700
X102700Y-91900
X102700Y-96600
X102700Y-102900
X102700Y-110000
X102900Y-122250
X102900Y-126000
X104000Y-60500
X104000Y-65500
X104100Y-88000
X104100Y-96600
X105000Y-78000
X105000Y-85000
X105400Y-88000
X105400Y-96600
X105400Y-103600
X106500Y-65500
X106500Y-88000
X107000Y-116500
X108100Y-122250
X108100Y-126000
X108100Y-130000
X109000Y-53150
X109000Y-65500
X109500Y-79000
X110400Y-101700
X111700Y-104100
X112000Y-65500
X112200Y-107300
X113000Y-57000
X113500Y-87000
X113500Y-98000
X113500Y-116500
X116000Y-122000
X116000Y-130000
X117000Y-83000
X117200Y-65500
X117250Y-53150
X117250Y-70000
X117650Y-91650
X119500Y-116500
X121000Y-65500
X121000Y-73500
X121500Y-87900
X121500Y-98000
X124100Y-83400
X124400Y-107000
X124600Y-73500
X125000Y-53150
X125000Y-57000
X125000Y-60500
X125000Y-65500
X126000Y-122000
X126000Y-126000
X126000Y-130000
X127500Y-65500
X128500Y-87900
X129000Y-83000
X129500Y-91700
X129500Y-98000
X130200Y-65500
X132700Y-65500
X133000Y-53150
X133000Y-57000
X133000Y-60500
X134200Y-73500
X135000Y-103250
X135250Y-86750
X135300Y-84400
X135400Y-65500
X135500Y-122000
X135500Y-126000
X135500Y-130000
X141000Y-53150
X142000Y-89000
X142000Y-91750
X142750Y-60500
X142750Y-65450
X142750Y-69500
X143400Y-122900
X144750Y-118250
X147250Y-86750
X147500Y-115000
X147750Y-53150
X147750Y-57000
X147750Y-60500
X147750Y-65450
X147750Y-69500
X148500Y-126250
X148500Y-130000
X150750Y-115000
X151000Y-75000
X152500Y-53150
X152500Y-57000
X153250Y-115000
X153416Y-104394
X154200Y-80900
X155400Y-73600
X155750Y-115000
X158000Y-126250
X158000Y-130000
X158250Y-115000
X158750Y-53150
X158750Y-57000
X158750Y-60500
X159100Y-71900
X159322Y-104500
X159322Y-108966
X160000Y-85200
X160000Y-86400
X161200Y-84000
X161200Y-85200
X161200Y-86400
X162000Y-71100
X162000Y-72300
X162000Y-73500
X162400Y-81600
X162400Y-82800
X162400Y-84000
X162400Y-85200
X162400Y-86400
X163200Y-71100
X163200Y-72300
X163200Y-73500
X163200Y-74700
X163600Y-81600
X163600Y-82800
X163600Y-84000
X163600Y-85200
X163600Y-86400
X163800Y-109900
X164400Y-68700
X164400Y-69900
X164400Y-71100
X164400Y-72300
X164400Y-73500
X164400Y-74700
X164800Y-81600
X164800Y-82800
X164800Y-84000
X164800Y-85200
X165000Y-53150
X165250Y-104500
X165600Y-68700
X165600Y-69900
X165600Y-71100
X165600Y-72300
X165600Y-73500
X165600Y-74700
X166000Y-81600
X166000Y-82800
X166100Y-60500
X166800Y-68700
X166800Y-69900
X166800Y-71100
X166800Y-72300
X166800Y-73500
X166800Y-74700
X166800Y-75900
X168000Y-68700
X168000Y-69900
X168000Y-71100
X168000Y-72300
X168000Y-73500
X168000Y-74700
X168000Y-75900
X168000Y-81600
X168000Y-120000
X168000Y-126250
X168000Y-130000
X168200Y-109550
X169200Y-68700
X169200Y-69900
X169200Y-71100
X169200Y-72300
X169200Y-73500
X169200Y-74700
X169200Y-75900
X169750Y-53150
X170000Y-59300
X170000Y-63500
X170250Y-104500
X171500Y-81600
X174000Y-123000
X175250Y-59300
X175250Y-63500
X175250Y-67000
X175250Y-71500
X175250Y-77000
X175250Y-81600
X175250Y-86500
X175250Y-91000
X175250Y-95500
X175250Y-100000
X175250Y-104500
T2
X68300Y-115500
X68300Y-116700
X69400Y-115500
X69400Y-116700
X70200Y-71000
X70600Y-115500
X70600Y-116700
X71000Y-96400
X71000Y-97700
X71100Y-87500
X72100Y-88400
X72390Y-93010
X72390Y-94110
X73490Y-93010
X73490Y-94110
X74590Y-94110
X75900Y-77600
X77150Y-94000
X78000Y-59200
X80800Y-61300
X81000Y-122900
X81000Y-125700
X82900Y-112600
X83000Y-78700
X89400Y-84700
X89400Y-85900
X89400Y-87100
X89400Y-88300
X89400Y-89500
X89400Y-90700
X89400Y-91900
X90600Y-84700
X90600Y-85900
X90600Y-87100
X90600Y-88300
X90600Y-89500
X90600Y-90700
X90600Y-91900
X91800Y-84700
X91800Y-85900
X91800Y-87100
X91800Y-88300
X91800Y-89500
X91800Y-90700
X91800Y-91900
X93000Y-84700
X93000Y-85900
X93000Y-87100
X93000Y-88300
X93000Y-89500
X93000Y-90700
X93000Y-91900
X93600Y-101600
X93600Y-102700
X93600Y-103800
X94200Y-84700
X94200Y-85900
X94200Y-87100
X94200Y-88300
X94200Y-89500
X94200Y-90700
X94200Y-91900
X94800Y-101600
X94800Y-102700
X94800Y-103800
X95400Y-84700
X95400Y-85900
X95400Y-87100
X95400Y-88300
X95400Y-89500
X95400Y-90700
X95400Y-91900
X96600Y-84700
X96600Y-85900
X96600Y-87100
X96600Y-88300
X96600Y-89500
X96600Y-90700
X96600Y-91900
X96700Y-105100
X97400Y-71000
X97400Y-76100
X97800Y-84700
X97800Y-85900
X97800Y-87100
X97800Y-88300
X97800Y-89500
X97800Y-90700
X97800Y-91900
X98200Y-122900
X98200Y-125800
X99000Y-84700
X99000Y-85900
X99000Y-87100
X99000Y-88300
X99000Y-89500
X99000Y-90700
X99000Y-91900
X100900Y-78750
X100900Y-84150
X101000Y-104200
X102300Y-56800
X102300Y-53900
X102552Y-99050
X102850Y-93450
X103050Y-95300
X106350Y-89300
X106550Y-91150
X106900Y-79200
X106900Y-83800
X107200Y-105850
X107200Y-95150
X107800Y-86300
X108950Y-83150
X108950Y-95150
X108950Y-89150
X108950Y-98979
X109200Y-57700
X109200Y-60500
X109500Y-87600
X110500Y-70600
X110500Y-76900
X112400Y-93300
X113900Y-75900
X115900Y-73900
X116500Y-104550
X116900Y-57700
X116900Y-60500
X117200Y-110100
X117300Y-67700
X118000Y-71600
X118300Y-122800
X118300Y-125700
X119100Y-112000
X119500Y-62400
X120100Y-104900
X120900Y-67700
X120900Y-75900
X121000Y-113904
X121511Y-104611
X121900Y-79800
X121900Y-82700
X122300Y-107300
X124200Y-61600
X124500Y-78150
X125100Y-108800
X126100Y-83600
X126100Y-88050
X127400Y-105500
X127700Y-71300
X129100Y-77000
X129500Y-106600
X130800Y-74400
X130800Y-87700
X131050Y-79950
X132000Y-76800
X132500Y-80600
X133000Y-103100
X133700Y-97700
X133900Y-87700
X135375Y-93825
X136100Y-78100
X136600Y-113700
X136650Y-116800
X136900Y-87800
X136900Y-92700
X137550Y-81050
X137600Y-85500
X137700Y-83900
X140100Y-69500
X140100Y-73400
X140300Y-57700
X140300Y-60400
X140400Y-85500
X142200Y-83900
X144100Y-74600
X145800Y-122400
X145800Y-125700
X146700Y-99500
X147000Y-71100
X147000Y-73900
X149700Y-97500
X150400Y-90500
X150500Y-71000
X152000Y-99700
X153100Y-73600
X153700Y-57700
X153700Y-60400
X153700Y-90500
X155250Y-84750
X155250Y-85750
X155250Y-86750
X156400Y-70500
X158400Y-70500
X158500Y-85200
X158500Y-86400
X161200Y-107000
X163700Y-107000
X163800Y-60400
X163800Y-57700
X165700Y-124300
X165711Y-119989
X167400Y-107800
X167500Y-112400
X167500Y-115600
X168400Y-106800
X170600Y-65900
X170600Y-67000
X171700Y-65900
X171700Y-67000
X172800Y-65900
X172800Y-67000
T3
X68450Y-55800
X68450Y-127800
X69109Y-54209
X69109Y-57391
X69109Y-126209
X69109Y-129391
X70700Y-53550
X70700Y-58050
X70700Y-125550
X70700Y-130050
X72291Y-54209
X72291Y-57391
X72291Y-126209
X72291Y-129391
X72950Y-55800
X72950Y-127800
X170450Y-55800
X170450Y-127800
X171109Y-54209
X171109Y-57391
X171109Y-126209
X171109Y-129391
X172700Y-53550
X172700Y-58050
X172700Y-125550
X172700Y-130050
X174291Y-54209
X174291Y-57391
X174291Y-126209
X174291Y-129391
X174950Y-55800
X174950Y-127800
T5
X76200Y-124300
X76200Y-126300
X76200Y-128300
X93300Y-124300
X93300Y-126300
X93300Y-128300
X97400Y-55100
X97400Y-57100
X97400Y-59100
X113450Y-124300
X113450Y-126300
X113450Y-128300
X120950Y-55050
X120950Y-57050
X120950Y-59050
X140950Y-124300
X140950Y-126300
X140950Y-128300
X144450Y-55050
X144450Y-57050
X144450Y-59050
X168200Y-55050
X168200Y-57050
X168200Y-59050
T6
X79262Y-63300
X81802Y-63300
X82049Y-120280
X84342Y-63300
X84589Y-120280
X86882Y-63300
X87129Y-120280
X89422Y-63300
X91962Y-63300
X99242Y-120280
X101782Y-120280
X102806Y-63300
X104322Y-120280
X105346Y-63300
X106862Y-120280
X107886Y-63300
X110426Y-63300
X112966Y-63300
X115506Y-63300
X119380Y-120280
X121920Y-120280
X124460Y-120280
X126351Y-63307
X127000Y-120280
X128891Y-63307
X129540Y-120280
X131431Y-63307
X132080Y-120280
X133971Y-63307
X134620Y-120280
X136511Y-63307
X139051Y-63307
X146939Y-120280
X149479Y-120280
X149895Y-63307
X152019Y-120280
X152435Y-63307
X154559Y-120280
X154975Y-63307
X157099Y-120280
X157515Y-63307
X159639Y-120280
X160055Y-63307
X162179Y-120280
X162595Y-63307
T7
X148130Y-84917
X170660Y-109800
X170660Y-112340
X170660Y-114880
X170660Y-117420
X173200Y-109800
X173200Y-112340
X173200Y-114880
X173200Y-117420
T8
X69450Y-108550
X69450Y-113630
X144270Y-83270
X144270Y-85810
X144270Y-88350
X144270Y-90890
X144270Y-93430
X144270Y-95970
X144270Y-98510
X144270Y-101050
X146810Y-83270
X149350Y-83270
X156970Y-83270
X156970Y-85810
X156970Y-88350
X156970Y-90890
X156970Y-93430
X156970Y-95970
X156970Y-98510
X156970Y-101050
X171700Y-68720
X171700Y-73800
T9
X171704Y-84582
X171704Y-89582
X171704Y-94582
X171704Y-99582
T10
X70700Y-55800
X70700Y-127800
X172700Y-55800
X172700Y-127800
T11
X68450Y-70800
X68450Y-73800
T12
X142860Y-75084
X142860Y-77116
X147940Y-76100
T3
G00X68475Y-88502
M15
G01X67825Y-88502
M16
G05
G00X68475Y-95502
M15
G01X67825Y-95502
M16
G05
T4
G00X70850Y-89352
M15
G01X70850Y-89652
M16
G05
G00X70850Y-94352
M15
G01X70850Y-94652
M16
G05
T0
M30
