%TF.GenerationSoftware,KiCad,Pcbnew,(5.1.10)-1*%
%TF.CreationDate,2021-08-30T20:13:54+03:00*%
%TF.ProjectId,STM32_Edge_Computing_Device,53544d33-325f-4456-9467-655f436f6d70,1.0*%
%TF.SameCoordinates,Original*%
%TF.FileFunction,Soldermask,Top*%
%TF.FilePolarity,Negative*%
%FSLAX46Y46*%
G04 Gerber Fmt 4.6, Leading zero omitted, Abs format (unit mm)*
G04 Created by KiCad (PCBNEW (5.1.10)-1) date 2021-08-30 20:13:54*
%MOMM*%
%LPD*%
G01*
G04 APERTURE LIST*
%ADD10R,1.650000X1.650000*%
%ADD11C,1.650000*%
%ADD12R,1.000000X3.400000*%
%ADD13R,10.700000X8.600000*%
%ADD14C,1.550000*%
%ADD15R,1.550000X1.550000*%
%ADD16R,1.350000X1.350000*%
%ADD17C,1.350000*%
%ADD18C,1.950000*%
%ADD19R,0.600000X1.250000*%
%ADD20R,1.350000X0.400000*%
%ADD21O,0.950000X1.250000*%
%ADD22R,1.550000X1.500000*%
%ADD23R,1.550000X1.200000*%
%ADD24O,1.550000X0.890000*%
%ADD25R,1.000000X1.000000*%
%ADD26R,1.400000X1.600000*%
%ADD27C,6.000000*%
%ADD28C,0.800000*%
%ADD29O,1.350000X1.350000*%
%ADD30R,1.500000X0.650000*%
%ADD31R,0.800000X1.000000*%
%ADD32R,1.500000X0.700000*%
%ADD33C,0.990600*%
%ADD34C,0.787400*%
%ADD35R,1.050000X1.300000*%
%ADD36R,0.850000X1.200000*%
G04 APERTURE END LIST*
D10*
%TO.C,J10*%
X156970000Y-101050000D03*
D11*
X156970000Y-98510000D03*
X156970000Y-95970000D03*
X156970000Y-93430000D03*
X156970000Y-90890000D03*
X156970000Y-88350000D03*
X156970000Y-85810000D03*
X156970000Y-83270000D03*
%TD*%
D12*
%TO.C,U1*%
X90800000Y-98900000D03*
X92500000Y-98900000D03*
X94200000Y-98900000D03*
X95900000Y-98900000D03*
X97600000Y-98900000D03*
D13*
X94200000Y-88300000D03*
%TD*%
%TO.C,C14*%
G36*
G01*
X134200000Y-91825000D02*
X134700000Y-91825000D01*
G75*
G02*
X134925000Y-92050000I0J-225000D01*
G01*
X134925000Y-92500000D01*
G75*
G02*
X134700000Y-92725000I-225000J0D01*
G01*
X134200000Y-92725000D01*
G75*
G02*
X133975000Y-92500000I0J225000D01*
G01*
X133975000Y-92050000D01*
G75*
G02*
X134200000Y-91825000I225000J0D01*
G01*
G37*
G36*
G01*
X134200000Y-93375000D02*
X134700000Y-93375000D01*
G75*
G02*
X134925000Y-93600000I0J-225000D01*
G01*
X134925000Y-94050000D01*
G75*
G02*
X134700000Y-94275000I-225000J0D01*
G01*
X134200000Y-94275000D01*
G75*
G02*
X133975000Y-94050000I0J225000D01*
G01*
X133975000Y-93600000D01*
G75*
G02*
X134200000Y-93375000I225000J0D01*
G01*
G37*
%TD*%
D11*
%TO.C,J13*%
X149350000Y-83270000D03*
X146810000Y-83270000D03*
%TD*%
D14*
%TO.C,J16*%
X173200000Y-109800000D03*
D15*
X170660000Y-109800000D03*
D14*
X173200000Y-112340000D03*
X170660000Y-112340000D03*
X173200000Y-114880000D03*
X170660000Y-114880000D03*
X173200000Y-117420000D03*
D15*
X170660000Y-117420000D03*
%TD*%
D16*
%TO.C,J17*%
X82048617Y-120280001D03*
D17*
X84588617Y-120280001D03*
X87128617Y-120280001D03*
%TD*%
D18*
%TO.C,J9*%
X171704000Y-99582000D03*
X171704000Y-94582000D03*
X171704000Y-89582000D03*
X171704000Y-84582000D03*
%TD*%
D16*
%TO.C,J18*%
X99242220Y-120280001D03*
D17*
X101782220Y-120280001D03*
X104322220Y-120280001D03*
X106862220Y-120280001D03*
%TD*%
D16*
%TO.C,J14*%
X119380000Y-120280001D03*
D17*
X121920000Y-120280001D03*
X124460000Y-120280001D03*
X127000000Y-120280001D03*
X129540000Y-120280001D03*
X132080000Y-120280001D03*
X134620000Y-120280001D03*
%TD*%
D19*
%TO.C,U2*%
X76200000Y-90425000D03*
X77150000Y-90425000D03*
X78100000Y-90425000D03*
X78100000Y-92925000D03*
X77150000Y-92925000D03*
X76200000Y-92925000D03*
%TD*%
%TO.C,R0*%
G36*
G01*
X82125826Y-92389427D02*
X81489427Y-93025826D01*
G75*
G02*
X81135877Y-93025826I-176775J176775D01*
G01*
X80764644Y-92654593D01*
G75*
G02*
X80764644Y-92301043I176775J176775D01*
G01*
X81401043Y-91664644D01*
G75*
G02*
X81754593Y-91664644I176775J-176775D01*
G01*
X82125826Y-92035877D01*
G75*
G02*
X82125826Y-92389427I-176775J-176775D01*
G01*
G37*
G36*
G01*
X80835356Y-91098957D02*
X80198957Y-91735356D01*
G75*
G02*
X79845407Y-91735356I-176775J176775D01*
G01*
X79474174Y-91364123D01*
G75*
G02*
X79474174Y-91010573I176775J176775D01*
G01*
X80110573Y-90374174D01*
G75*
G02*
X80464123Y-90374174I176775J-176775D01*
G01*
X80835356Y-90745407D01*
G75*
G02*
X80835356Y-91098957I-176775J-176775D01*
G01*
G37*
%TD*%
D20*
%TO.C,J2*%
X70850000Y-90702498D03*
X70850000Y-91352498D03*
X70850000Y-92002498D03*
X70850000Y-92652498D03*
X70850000Y-93302498D03*
D21*
X70850000Y-89502498D03*
X70850000Y-94502498D03*
D22*
X68150000Y-91002498D03*
X68150000Y-93002498D03*
D23*
X68150000Y-89102498D03*
X68150000Y-94902498D03*
D24*
X68150000Y-88502498D03*
X68150000Y-95502498D03*
%TD*%
D10*
%TO.C,J11*%
X144270000Y-101050000D03*
D11*
X144270000Y-98510000D03*
X144270000Y-95970000D03*
X144270000Y-93430000D03*
X144270000Y-90890000D03*
X144270000Y-88350000D03*
X144270000Y-85810000D03*
X144270000Y-83270000D03*
%TD*%
D16*
%TO.C,J15*%
X146939000Y-120280001D03*
D17*
X149479000Y-120280001D03*
X152019000Y-120280001D03*
X154559000Y-120280001D03*
X157099000Y-120280001D03*
X159639000Y-120280001D03*
X162179000Y-120280001D03*
%TD*%
%TO.C,J5*%
X79261609Y-63300000D03*
X81801609Y-63300000D03*
X84341609Y-63300000D03*
X86881609Y-63300000D03*
X89421609Y-63300000D03*
D16*
X91961609Y-63300000D03*
%TD*%
D17*
%TO.C,J6*%
X102806202Y-63300000D03*
X105346202Y-63300000D03*
X107886202Y-63300000D03*
X110426202Y-63300000D03*
X112966202Y-63300000D03*
D16*
X115506202Y-63300000D03*
%TD*%
D17*
%TO.C,J7*%
X126350795Y-63307000D03*
X128890795Y-63307000D03*
X131430795Y-63307000D03*
X133970795Y-63307000D03*
X136510795Y-63307000D03*
D16*
X139050795Y-63307000D03*
%TD*%
D17*
%TO.C,J8*%
X149895388Y-63307000D03*
X152435388Y-63307000D03*
X154975388Y-63307000D03*
X157515388Y-63307000D03*
X160055388Y-63307000D03*
D16*
X162595388Y-63307000D03*
%TD*%
D25*
%TO.C,D4*%
X110925000Y-111275000D03*
X109075000Y-111275000D03*
X109075000Y-112525000D03*
X110925000Y-112525000D03*
%TD*%
%TO.C,U4*%
G36*
G01*
X110300000Y-83125000D02*
X110300000Y-82975000D01*
G75*
G02*
X110375000Y-82900000I75000J0D01*
G01*
X111700000Y-82900000D01*
G75*
G02*
X111775000Y-82975000I0J-75000D01*
G01*
X111775000Y-83125000D01*
G75*
G02*
X111700000Y-83200000I-75000J0D01*
G01*
X110375000Y-83200000D01*
G75*
G02*
X110300000Y-83125000I0J75000D01*
G01*
G37*
G36*
G01*
X110300000Y-83625000D02*
X110300000Y-83475000D01*
G75*
G02*
X110375000Y-83400000I75000J0D01*
G01*
X111700000Y-83400000D01*
G75*
G02*
X111775000Y-83475000I0J-75000D01*
G01*
X111775000Y-83625000D01*
G75*
G02*
X111700000Y-83700000I-75000J0D01*
G01*
X110375000Y-83700000D01*
G75*
G02*
X110300000Y-83625000I0J75000D01*
G01*
G37*
G36*
G01*
X110300000Y-84125000D02*
X110300000Y-83975000D01*
G75*
G02*
X110375000Y-83900000I75000J0D01*
G01*
X111700000Y-83900000D01*
G75*
G02*
X111775000Y-83975000I0J-75000D01*
G01*
X111775000Y-84125000D01*
G75*
G02*
X111700000Y-84200000I-75000J0D01*
G01*
X110375000Y-84200000D01*
G75*
G02*
X110300000Y-84125000I0J75000D01*
G01*
G37*
G36*
G01*
X110300000Y-84625000D02*
X110300000Y-84475000D01*
G75*
G02*
X110375000Y-84400000I75000J0D01*
G01*
X111700000Y-84400000D01*
G75*
G02*
X111775000Y-84475000I0J-75000D01*
G01*
X111775000Y-84625000D01*
G75*
G02*
X111700000Y-84700000I-75000J0D01*
G01*
X110375000Y-84700000D01*
G75*
G02*
X110300000Y-84625000I0J75000D01*
G01*
G37*
G36*
G01*
X110300000Y-85125000D02*
X110300000Y-84975000D01*
G75*
G02*
X110375000Y-84900000I75000J0D01*
G01*
X111700000Y-84900000D01*
G75*
G02*
X111775000Y-84975000I0J-75000D01*
G01*
X111775000Y-85125000D01*
G75*
G02*
X111700000Y-85200000I-75000J0D01*
G01*
X110375000Y-85200000D01*
G75*
G02*
X110300000Y-85125000I0J75000D01*
G01*
G37*
G36*
G01*
X110300000Y-85625000D02*
X110300000Y-85475000D01*
G75*
G02*
X110375000Y-85400000I75000J0D01*
G01*
X111700000Y-85400000D01*
G75*
G02*
X111775000Y-85475000I0J-75000D01*
G01*
X111775000Y-85625000D01*
G75*
G02*
X111700000Y-85700000I-75000J0D01*
G01*
X110375000Y-85700000D01*
G75*
G02*
X110300000Y-85625000I0J75000D01*
G01*
G37*
G36*
G01*
X110300000Y-86125000D02*
X110300000Y-85975000D01*
G75*
G02*
X110375000Y-85900000I75000J0D01*
G01*
X111700000Y-85900000D01*
G75*
G02*
X111775000Y-85975000I0J-75000D01*
G01*
X111775000Y-86125000D01*
G75*
G02*
X111700000Y-86200000I-75000J0D01*
G01*
X110375000Y-86200000D01*
G75*
G02*
X110300000Y-86125000I0J75000D01*
G01*
G37*
G36*
G01*
X110300000Y-86625000D02*
X110300000Y-86475000D01*
G75*
G02*
X110375000Y-86400000I75000J0D01*
G01*
X111700000Y-86400000D01*
G75*
G02*
X111775000Y-86475000I0J-75000D01*
G01*
X111775000Y-86625000D01*
G75*
G02*
X111700000Y-86700000I-75000J0D01*
G01*
X110375000Y-86700000D01*
G75*
G02*
X110300000Y-86625000I0J75000D01*
G01*
G37*
G36*
G01*
X110300000Y-87125000D02*
X110300000Y-86975000D01*
G75*
G02*
X110375000Y-86900000I75000J0D01*
G01*
X111700000Y-86900000D01*
G75*
G02*
X111775000Y-86975000I0J-75000D01*
G01*
X111775000Y-87125000D01*
G75*
G02*
X111700000Y-87200000I-75000J0D01*
G01*
X110375000Y-87200000D01*
G75*
G02*
X110300000Y-87125000I0J75000D01*
G01*
G37*
G36*
G01*
X110300000Y-87625000D02*
X110300000Y-87475000D01*
G75*
G02*
X110375000Y-87400000I75000J0D01*
G01*
X111700000Y-87400000D01*
G75*
G02*
X111775000Y-87475000I0J-75000D01*
G01*
X111775000Y-87625000D01*
G75*
G02*
X111700000Y-87700000I-75000J0D01*
G01*
X110375000Y-87700000D01*
G75*
G02*
X110300000Y-87625000I0J75000D01*
G01*
G37*
G36*
G01*
X110300000Y-88125000D02*
X110300000Y-87975000D01*
G75*
G02*
X110375000Y-87900000I75000J0D01*
G01*
X111700000Y-87900000D01*
G75*
G02*
X111775000Y-87975000I0J-75000D01*
G01*
X111775000Y-88125000D01*
G75*
G02*
X111700000Y-88200000I-75000J0D01*
G01*
X110375000Y-88200000D01*
G75*
G02*
X110300000Y-88125000I0J75000D01*
G01*
G37*
G36*
G01*
X110300000Y-88625000D02*
X110300000Y-88475000D01*
G75*
G02*
X110375000Y-88400000I75000J0D01*
G01*
X111700000Y-88400000D01*
G75*
G02*
X111775000Y-88475000I0J-75000D01*
G01*
X111775000Y-88625000D01*
G75*
G02*
X111700000Y-88700000I-75000J0D01*
G01*
X110375000Y-88700000D01*
G75*
G02*
X110300000Y-88625000I0J75000D01*
G01*
G37*
G36*
G01*
X110300000Y-89125000D02*
X110300000Y-88975000D01*
G75*
G02*
X110375000Y-88900000I75000J0D01*
G01*
X111700000Y-88900000D01*
G75*
G02*
X111775000Y-88975000I0J-75000D01*
G01*
X111775000Y-89125000D01*
G75*
G02*
X111700000Y-89200000I-75000J0D01*
G01*
X110375000Y-89200000D01*
G75*
G02*
X110300000Y-89125000I0J75000D01*
G01*
G37*
G36*
G01*
X110300000Y-89625000D02*
X110300000Y-89475000D01*
G75*
G02*
X110375000Y-89400000I75000J0D01*
G01*
X111700000Y-89400000D01*
G75*
G02*
X111775000Y-89475000I0J-75000D01*
G01*
X111775000Y-89625000D01*
G75*
G02*
X111700000Y-89700000I-75000J0D01*
G01*
X110375000Y-89700000D01*
G75*
G02*
X110300000Y-89625000I0J75000D01*
G01*
G37*
G36*
G01*
X110300000Y-90125000D02*
X110300000Y-89975000D01*
G75*
G02*
X110375000Y-89900000I75000J0D01*
G01*
X111700000Y-89900000D01*
G75*
G02*
X111775000Y-89975000I0J-75000D01*
G01*
X111775000Y-90125000D01*
G75*
G02*
X111700000Y-90200000I-75000J0D01*
G01*
X110375000Y-90200000D01*
G75*
G02*
X110300000Y-90125000I0J75000D01*
G01*
G37*
G36*
G01*
X110300000Y-90625000D02*
X110300000Y-90475000D01*
G75*
G02*
X110375000Y-90400000I75000J0D01*
G01*
X111700000Y-90400000D01*
G75*
G02*
X111775000Y-90475000I0J-75000D01*
G01*
X111775000Y-90625000D01*
G75*
G02*
X111700000Y-90700000I-75000J0D01*
G01*
X110375000Y-90700000D01*
G75*
G02*
X110300000Y-90625000I0J75000D01*
G01*
G37*
G36*
G01*
X110300000Y-91125000D02*
X110300000Y-90975000D01*
G75*
G02*
X110375000Y-90900000I75000J0D01*
G01*
X111700000Y-90900000D01*
G75*
G02*
X111775000Y-90975000I0J-75000D01*
G01*
X111775000Y-91125000D01*
G75*
G02*
X111700000Y-91200000I-75000J0D01*
G01*
X110375000Y-91200000D01*
G75*
G02*
X110300000Y-91125000I0J75000D01*
G01*
G37*
G36*
G01*
X110300000Y-91625000D02*
X110300000Y-91475000D01*
G75*
G02*
X110375000Y-91400000I75000J0D01*
G01*
X111700000Y-91400000D01*
G75*
G02*
X111775000Y-91475000I0J-75000D01*
G01*
X111775000Y-91625000D01*
G75*
G02*
X111700000Y-91700000I-75000J0D01*
G01*
X110375000Y-91700000D01*
G75*
G02*
X110300000Y-91625000I0J75000D01*
G01*
G37*
G36*
G01*
X110300000Y-92125000D02*
X110300000Y-91975000D01*
G75*
G02*
X110375000Y-91900000I75000J0D01*
G01*
X111700000Y-91900000D01*
G75*
G02*
X111775000Y-91975000I0J-75000D01*
G01*
X111775000Y-92125000D01*
G75*
G02*
X111700000Y-92200000I-75000J0D01*
G01*
X110375000Y-92200000D01*
G75*
G02*
X110300000Y-92125000I0J75000D01*
G01*
G37*
G36*
G01*
X110300000Y-92625000D02*
X110300000Y-92475000D01*
G75*
G02*
X110375000Y-92400000I75000J0D01*
G01*
X111700000Y-92400000D01*
G75*
G02*
X111775000Y-92475000I0J-75000D01*
G01*
X111775000Y-92625000D01*
G75*
G02*
X111700000Y-92700000I-75000J0D01*
G01*
X110375000Y-92700000D01*
G75*
G02*
X110300000Y-92625000I0J75000D01*
G01*
G37*
G36*
G01*
X110300000Y-93125000D02*
X110300000Y-92975000D01*
G75*
G02*
X110375000Y-92900000I75000J0D01*
G01*
X111700000Y-92900000D01*
G75*
G02*
X111775000Y-92975000I0J-75000D01*
G01*
X111775000Y-93125000D01*
G75*
G02*
X111700000Y-93200000I-75000J0D01*
G01*
X110375000Y-93200000D01*
G75*
G02*
X110300000Y-93125000I0J75000D01*
G01*
G37*
G36*
G01*
X110300000Y-93625000D02*
X110300000Y-93475000D01*
G75*
G02*
X110375000Y-93400000I75000J0D01*
G01*
X111700000Y-93400000D01*
G75*
G02*
X111775000Y-93475000I0J-75000D01*
G01*
X111775000Y-93625000D01*
G75*
G02*
X111700000Y-93700000I-75000J0D01*
G01*
X110375000Y-93700000D01*
G75*
G02*
X110300000Y-93625000I0J75000D01*
G01*
G37*
G36*
G01*
X110300000Y-94125000D02*
X110300000Y-93975000D01*
G75*
G02*
X110375000Y-93900000I75000J0D01*
G01*
X111700000Y-93900000D01*
G75*
G02*
X111775000Y-93975000I0J-75000D01*
G01*
X111775000Y-94125000D01*
G75*
G02*
X111700000Y-94200000I-75000J0D01*
G01*
X110375000Y-94200000D01*
G75*
G02*
X110300000Y-94125000I0J75000D01*
G01*
G37*
G36*
G01*
X110300000Y-94625000D02*
X110300000Y-94475000D01*
G75*
G02*
X110375000Y-94400000I75000J0D01*
G01*
X111700000Y-94400000D01*
G75*
G02*
X111775000Y-94475000I0J-75000D01*
G01*
X111775000Y-94625000D01*
G75*
G02*
X111700000Y-94700000I-75000J0D01*
G01*
X110375000Y-94700000D01*
G75*
G02*
X110300000Y-94625000I0J75000D01*
G01*
G37*
G36*
G01*
X110300000Y-95125000D02*
X110300000Y-94975000D01*
G75*
G02*
X110375000Y-94900000I75000J0D01*
G01*
X111700000Y-94900000D01*
G75*
G02*
X111775000Y-94975000I0J-75000D01*
G01*
X111775000Y-95125000D01*
G75*
G02*
X111700000Y-95200000I-75000J0D01*
G01*
X110375000Y-95200000D01*
G75*
G02*
X110300000Y-95125000I0J75000D01*
G01*
G37*
G36*
G01*
X110300000Y-95625000D02*
X110300000Y-95475000D01*
G75*
G02*
X110375000Y-95400000I75000J0D01*
G01*
X111700000Y-95400000D01*
G75*
G02*
X111775000Y-95475000I0J-75000D01*
G01*
X111775000Y-95625000D01*
G75*
G02*
X111700000Y-95700000I-75000J0D01*
G01*
X110375000Y-95700000D01*
G75*
G02*
X110300000Y-95625000I0J75000D01*
G01*
G37*
G36*
G01*
X110300000Y-96125000D02*
X110300000Y-95975000D01*
G75*
G02*
X110375000Y-95900000I75000J0D01*
G01*
X111700000Y-95900000D01*
G75*
G02*
X111775000Y-95975000I0J-75000D01*
G01*
X111775000Y-96125000D01*
G75*
G02*
X111700000Y-96200000I-75000J0D01*
G01*
X110375000Y-96200000D01*
G75*
G02*
X110300000Y-96125000I0J75000D01*
G01*
G37*
G36*
G01*
X110300000Y-96625000D02*
X110300000Y-96475000D01*
G75*
G02*
X110375000Y-96400000I75000J0D01*
G01*
X111700000Y-96400000D01*
G75*
G02*
X111775000Y-96475000I0J-75000D01*
G01*
X111775000Y-96625000D01*
G75*
G02*
X111700000Y-96700000I-75000J0D01*
G01*
X110375000Y-96700000D01*
G75*
G02*
X110300000Y-96625000I0J75000D01*
G01*
G37*
G36*
G01*
X110300000Y-97125000D02*
X110300000Y-96975000D01*
G75*
G02*
X110375000Y-96900000I75000J0D01*
G01*
X111700000Y-96900000D01*
G75*
G02*
X111775000Y-96975000I0J-75000D01*
G01*
X111775000Y-97125000D01*
G75*
G02*
X111700000Y-97200000I-75000J0D01*
G01*
X110375000Y-97200000D01*
G75*
G02*
X110300000Y-97125000I0J75000D01*
G01*
G37*
G36*
G01*
X110300000Y-97625000D02*
X110300000Y-97475000D01*
G75*
G02*
X110375000Y-97400000I75000J0D01*
G01*
X111700000Y-97400000D01*
G75*
G02*
X111775000Y-97475000I0J-75000D01*
G01*
X111775000Y-97625000D01*
G75*
G02*
X111700000Y-97700000I-75000J0D01*
G01*
X110375000Y-97700000D01*
G75*
G02*
X110300000Y-97625000I0J75000D01*
G01*
G37*
G36*
G01*
X110300000Y-98125000D02*
X110300000Y-97975000D01*
G75*
G02*
X110375000Y-97900000I75000J0D01*
G01*
X111700000Y-97900000D01*
G75*
G02*
X111775000Y-97975000I0J-75000D01*
G01*
X111775000Y-98125000D01*
G75*
G02*
X111700000Y-98200000I-75000J0D01*
G01*
X110375000Y-98200000D01*
G75*
G02*
X110300000Y-98125000I0J75000D01*
G01*
G37*
G36*
G01*
X110300000Y-98625000D02*
X110300000Y-98475000D01*
G75*
G02*
X110375000Y-98400000I75000J0D01*
G01*
X111700000Y-98400000D01*
G75*
G02*
X111775000Y-98475000I0J-75000D01*
G01*
X111775000Y-98625000D01*
G75*
G02*
X111700000Y-98700000I-75000J0D01*
G01*
X110375000Y-98700000D01*
G75*
G02*
X110300000Y-98625000I0J75000D01*
G01*
G37*
G36*
G01*
X110300000Y-99125000D02*
X110300000Y-98975000D01*
G75*
G02*
X110375000Y-98900000I75000J0D01*
G01*
X111700000Y-98900000D01*
G75*
G02*
X111775000Y-98975000I0J-75000D01*
G01*
X111775000Y-99125000D01*
G75*
G02*
X111700000Y-99200000I-75000J0D01*
G01*
X110375000Y-99200000D01*
G75*
G02*
X110300000Y-99125000I0J75000D01*
G01*
G37*
G36*
G01*
X110300000Y-99625000D02*
X110300000Y-99475000D01*
G75*
G02*
X110375000Y-99400000I75000J0D01*
G01*
X111700000Y-99400000D01*
G75*
G02*
X111775000Y-99475000I0J-75000D01*
G01*
X111775000Y-99625000D01*
G75*
G02*
X111700000Y-99700000I-75000J0D01*
G01*
X110375000Y-99700000D01*
G75*
G02*
X110300000Y-99625000I0J75000D01*
G01*
G37*
G36*
G01*
X110300000Y-100125000D02*
X110300000Y-99975000D01*
G75*
G02*
X110375000Y-99900000I75000J0D01*
G01*
X111700000Y-99900000D01*
G75*
G02*
X111775000Y-99975000I0J-75000D01*
G01*
X111775000Y-100125000D01*
G75*
G02*
X111700000Y-100200000I-75000J0D01*
G01*
X110375000Y-100200000D01*
G75*
G02*
X110300000Y-100125000I0J75000D01*
G01*
G37*
G36*
G01*
X110300000Y-100625000D02*
X110300000Y-100475000D01*
G75*
G02*
X110375000Y-100400000I75000J0D01*
G01*
X111700000Y-100400000D01*
G75*
G02*
X111775000Y-100475000I0J-75000D01*
G01*
X111775000Y-100625000D01*
G75*
G02*
X111700000Y-100700000I-75000J0D01*
G01*
X110375000Y-100700000D01*
G75*
G02*
X110300000Y-100625000I0J75000D01*
G01*
G37*
G36*
G01*
X112800000Y-103125000D02*
X112800000Y-101800000D01*
G75*
G02*
X112875000Y-101725000I75000J0D01*
G01*
X113025000Y-101725000D01*
G75*
G02*
X113100000Y-101800000I0J-75000D01*
G01*
X113100000Y-103125000D01*
G75*
G02*
X113025000Y-103200000I-75000J0D01*
G01*
X112875000Y-103200000D01*
G75*
G02*
X112800000Y-103125000I0J75000D01*
G01*
G37*
G36*
G01*
X113300000Y-103125000D02*
X113300000Y-101800000D01*
G75*
G02*
X113375000Y-101725000I75000J0D01*
G01*
X113525000Y-101725000D01*
G75*
G02*
X113600000Y-101800000I0J-75000D01*
G01*
X113600000Y-103125000D01*
G75*
G02*
X113525000Y-103200000I-75000J0D01*
G01*
X113375000Y-103200000D01*
G75*
G02*
X113300000Y-103125000I0J75000D01*
G01*
G37*
G36*
G01*
X113800000Y-103125000D02*
X113800000Y-101800000D01*
G75*
G02*
X113875000Y-101725000I75000J0D01*
G01*
X114025000Y-101725000D01*
G75*
G02*
X114100000Y-101800000I0J-75000D01*
G01*
X114100000Y-103125000D01*
G75*
G02*
X114025000Y-103200000I-75000J0D01*
G01*
X113875000Y-103200000D01*
G75*
G02*
X113800000Y-103125000I0J75000D01*
G01*
G37*
G36*
G01*
X114300000Y-103125000D02*
X114300000Y-101800000D01*
G75*
G02*
X114375000Y-101725000I75000J0D01*
G01*
X114525000Y-101725000D01*
G75*
G02*
X114600000Y-101800000I0J-75000D01*
G01*
X114600000Y-103125000D01*
G75*
G02*
X114525000Y-103200000I-75000J0D01*
G01*
X114375000Y-103200000D01*
G75*
G02*
X114300000Y-103125000I0J75000D01*
G01*
G37*
G36*
G01*
X114800000Y-103125000D02*
X114800000Y-101800000D01*
G75*
G02*
X114875000Y-101725000I75000J0D01*
G01*
X115025000Y-101725000D01*
G75*
G02*
X115100000Y-101800000I0J-75000D01*
G01*
X115100000Y-103125000D01*
G75*
G02*
X115025000Y-103200000I-75000J0D01*
G01*
X114875000Y-103200000D01*
G75*
G02*
X114800000Y-103125000I0J75000D01*
G01*
G37*
G36*
G01*
X115300000Y-103125000D02*
X115300000Y-101800000D01*
G75*
G02*
X115375000Y-101725000I75000J0D01*
G01*
X115525000Y-101725000D01*
G75*
G02*
X115600000Y-101800000I0J-75000D01*
G01*
X115600000Y-103125000D01*
G75*
G02*
X115525000Y-103200000I-75000J0D01*
G01*
X115375000Y-103200000D01*
G75*
G02*
X115300000Y-103125000I0J75000D01*
G01*
G37*
G36*
G01*
X115800000Y-103125000D02*
X115800000Y-101800000D01*
G75*
G02*
X115875000Y-101725000I75000J0D01*
G01*
X116025000Y-101725000D01*
G75*
G02*
X116100000Y-101800000I0J-75000D01*
G01*
X116100000Y-103125000D01*
G75*
G02*
X116025000Y-103200000I-75000J0D01*
G01*
X115875000Y-103200000D01*
G75*
G02*
X115800000Y-103125000I0J75000D01*
G01*
G37*
G36*
G01*
X116300000Y-103125000D02*
X116300000Y-101800000D01*
G75*
G02*
X116375000Y-101725000I75000J0D01*
G01*
X116525000Y-101725000D01*
G75*
G02*
X116600000Y-101800000I0J-75000D01*
G01*
X116600000Y-103125000D01*
G75*
G02*
X116525000Y-103200000I-75000J0D01*
G01*
X116375000Y-103200000D01*
G75*
G02*
X116300000Y-103125000I0J75000D01*
G01*
G37*
G36*
G01*
X116800000Y-103125000D02*
X116800000Y-101800000D01*
G75*
G02*
X116875000Y-101725000I75000J0D01*
G01*
X117025000Y-101725000D01*
G75*
G02*
X117100000Y-101800000I0J-75000D01*
G01*
X117100000Y-103125000D01*
G75*
G02*
X117025000Y-103200000I-75000J0D01*
G01*
X116875000Y-103200000D01*
G75*
G02*
X116800000Y-103125000I0J75000D01*
G01*
G37*
G36*
G01*
X117300000Y-103125000D02*
X117300000Y-101800000D01*
G75*
G02*
X117375000Y-101725000I75000J0D01*
G01*
X117525000Y-101725000D01*
G75*
G02*
X117600000Y-101800000I0J-75000D01*
G01*
X117600000Y-103125000D01*
G75*
G02*
X117525000Y-103200000I-75000J0D01*
G01*
X117375000Y-103200000D01*
G75*
G02*
X117300000Y-103125000I0J75000D01*
G01*
G37*
G36*
G01*
X117800000Y-103125000D02*
X117800000Y-101800000D01*
G75*
G02*
X117875000Y-101725000I75000J0D01*
G01*
X118025000Y-101725000D01*
G75*
G02*
X118100000Y-101800000I0J-75000D01*
G01*
X118100000Y-103125000D01*
G75*
G02*
X118025000Y-103200000I-75000J0D01*
G01*
X117875000Y-103200000D01*
G75*
G02*
X117800000Y-103125000I0J75000D01*
G01*
G37*
G36*
G01*
X118300000Y-103125000D02*
X118300000Y-101800000D01*
G75*
G02*
X118375000Y-101725000I75000J0D01*
G01*
X118525000Y-101725000D01*
G75*
G02*
X118600000Y-101800000I0J-75000D01*
G01*
X118600000Y-103125000D01*
G75*
G02*
X118525000Y-103200000I-75000J0D01*
G01*
X118375000Y-103200000D01*
G75*
G02*
X118300000Y-103125000I0J75000D01*
G01*
G37*
G36*
G01*
X118800000Y-103125000D02*
X118800000Y-101800000D01*
G75*
G02*
X118875000Y-101725000I75000J0D01*
G01*
X119025000Y-101725000D01*
G75*
G02*
X119100000Y-101800000I0J-75000D01*
G01*
X119100000Y-103125000D01*
G75*
G02*
X119025000Y-103200000I-75000J0D01*
G01*
X118875000Y-103200000D01*
G75*
G02*
X118800000Y-103125000I0J75000D01*
G01*
G37*
G36*
G01*
X119300000Y-103125000D02*
X119300000Y-101800000D01*
G75*
G02*
X119375000Y-101725000I75000J0D01*
G01*
X119525000Y-101725000D01*
G75*
G02*
X119600000Y-101800000I0J-75000D01*
G01*
X119600000Y-103125000D01*
G75*
G02*
X119525000Y-103200000I-75000J0D01*
G01*
X119375000Y-103200000D01*
G75*
G02*
X119300000Y-103125000I0J75000D01*
G01*
G37*
G36*
G01*
X119800000Y-103125000D02*
X119800000Y-101800000D01*
G75*
G02*
X119875000Y-101725000I75000J0D01*
G01*
X120025000Y-101725000D01*
G75*
G02*
X120100000Y-101800000I0J-75000D01*
G01*
X120100000Y-103125000D01*
G75*
G02*
X120025000Y-103200000I-75000J0D01*
G01*
X119875000Y-103200000D01*
G75*
G02*
X119800000Y-103125000I0J75000D01*
G01*
G37*
G36*
G01*
X120300000Y-103125000D02*
X120300000Y-101800000D01*
G75*
G02*
X120375000Y-101725000I75000J0D01*
G01*
X120525000Y-101725000D01*
G75*
G02*
X120600000Y-101800000I0J-75000D01*
G01*
X120600000Y-103125000D01*
G75*
G02*
X120525000Y-103200000I-75000J0D01*
G01*
X120375000Y-103200000D01*
G75*
G02*
X120300000Y-103125000I0J75000D01*
G01*
G37*
G36*
G01*
X120800000Y-103125000D02*
X120800000Y-101800000D01*
G75*
G02*
X120875000Y-101725000I75000J0D01*
G01*
X121025000Y-101725000D01*
G75*
G02*
X121100000Y-101800000I0J-75000D01*
G01*
X121100000Y-103125000D01*
G75*
G02*
X121025000Y-103200000I-75000J0D01*
G01*
X120875000Y-103200000D01*
G75*
G02*
X120800000Y-103125000I0J75000D01*
G01*
G37*
G36*
G01*
X121300000Y-103125000D02*
X121300000Y-101800000D01*
G75*
G02*
X121375000Y-101725000I75000J0D01*
G01*
X121525000Y-101725000D01*
G75*
G02*
X121600000Y-101800000I0J-75000D01*
G01*
X121600000Y-103125000D01*
G75*
G02*
X121525000Y-103200000I-75000J0D01*
G01*
X121375000Y-103200000D01*
G75*
G02*
X121300000Y-103125000I0J75000D01*
G01*
G37*
G36*
G01*
X121800000Y-103125000D02*
X121800000Y-101800000D01*
G75*
G02*
X121875000Y-101725000I75000J0D01*
G01*
X122025000Y-101725000D01*
G75*
G02*
X122100000Y-101800000I0J-75000D01*
G01*
X122100000Y-103125000D01*
G75*
G02*
X122025000Y-103200000I-75000J0D01*
G01*
X121875000Y-103200000D01*
G75*
G02*
X121800000Y-103125000I0J75000D01*
G01*
G37*
G36*
G01*
X122300000Y-103125000D02*
X122300000Y-101800000D01*
G75*
G02*
X122375000Y-101725000I75000J0D01*
G01*
X122525000Y-101725000D01*
G75*
G02*
X122600000Y-101800000I0J-75000D01*
G01*
X122600000Y-103125000D01*
G75*
G02*
X122525000Y-103200000I-75000J0D01*
G01*
X122375000Y-103200000D01*
G75*
G02*
X122300000Y-103125000I0J75000D01*
G01*
G37*
G36*
G01*
X122800000Y-103125000D02*
X122800000Y-101800000D01*
G75*
G02*
X122875000Y-101725000I75000J0D01*
G01*
X123025000Y-101725000D01*
G75*
G02*
X123100000Y-101800000I0J-75000D01*
G01*
X123100000Y-103125000D01*
G75*
G02*
X123025000Y-103200000I-75000J0D01*
G01*
X122875000Y-103200000D01*
G75*
G02*
X122800000Y-103125000I0J75000D01*
G01*
G37*
G36*
G01*
X123300000Y-103125000D02*
X123300000Y-101800000D01*
G75*
G02*
X123375000Y-101725000I75000J0D01*
G01*
X123525000Y-101725000D01*
G75*
G02*
X123600000Y-101800000I0J-75000D01*
G01*
X123600000Y-103125000D01*
G75*
G02*
X123525000Y-103200000I-75000J0D01*
G01*
X123375000Y-103200000D01*
G75*
G02*
X123300000Y-103125000I0J75000D01*
G01*
G37*
G36*
G01*
X123800000Y-103125000D02*
X123800000Y-101800000D01*
G75*
G02*
X123875000Y-101725000I75000J0D01*
G01*
X124025000Y-101725000D01*
G75*
G02*
X124100000Y-101800000I0J-75000D01*
G01*
X124100000Y-103125000D01*
G75*
G02*
X124025000Y-103200000I-75000J0D01*
G01*
X123875000Y-103200000D01*
G75*
G02*
X123800000Y-103125000I0J75000D01*
G01*
G37*
G36*
G01*
X124300000Y-103125000D02*
X124300000Y-101800000D01*
G75*
G02*
X124375000Y-101725000I75000J0D01*
G01*
X124525000Y-101725000D01*
G75*
G02*
X124600000Y-101800000I0J-75000D01*
G01*
X124600000Y-103125000D01*
G75*
G02*
X124525000Y-103200000I-75000J0D01*
G01*
X124375000Y-103200000D01*
G75*
G02*
X124300000Y-103125000I0J75000D01*
G01*
G37*
G36*
G01*
X124800000Y-103125000D02*
X124800000Y-101800000D01*
G75*
G02*
X124875000Y-101725000I75000J0D01*
G01*
X125025000Y-101725000D01*
G75*
G02*
X125100000Y-101800000I0J-75000D01*
G01*
X125100000Y-103125000D01*
G75*
G02*
X125025000Y-103200000I-75000J0D01*
G01*
X124875000Y-103200000D01*
G75*
G02*
X124800000Y-103125000I0J75000D01*
G01*
G37*
G36*
G01*
X125300000Y-103125000D02*
X125300000Y-101800000D01*
G75*
G02*
X125375000Y-101725000I75000J0D01*
G01*
X125525000Y-101725000D01*
G75*
G02*
X125600000Y-101800000I0J-75000D01*
G01*
X125600000Y-103125000D01*
G75*
G02*
X125525000Y-103200000I-75000J0D01*
G01*
X125375000Y-103200000D01*
G75*
G02*
X125300000Y-103125000I0J75000D01*
G01*
G37*
G36*
G01*
X125800000Y-103125000D02*
X125800000Y-101800000D01*
G75*
G02*
X125875000Y-101725000I75000J0D01*
G01*
X126025000Y-101725000D01*
G75*
G02*
X126100000Y-101800000I0J-75000D01*
G01*
X126100000Y-103125000D01*
G75*
G02*
X126025000Y-103200000I-75000J0D01*
G01*
X125875000Y-103200000D01*
G75*
G02*
X125800000Y-103125000I0J75000D01*
G01*
G37*
G36*
G01*
X126300000Y-103125000D02*
X126300000Y-101800000D01*
G75*
G02*
X126375000Y-101725000I75000J0D01*
G01*
X126525000Y-101725000D01*
G75*
G02*
X126600000Y-101800000I0J-75000D01*
G01*
X126600000Y-103125000D01*
G75*
G02*
X126525000Y-103200000I-75000J0D01*
G01*
X126375000Y-103200000D01*
G75*
G02*
X126300000Y-103125000I0J75000D01*
G01*
G37*
G36*
G01*
X126800000Y-103125000D02*
X126800000Y-101800000D01*
G75*
G02*
X126875000Y-101725000I75000J0D01*
G01*
X127025000Y-101725000D01*
G75*
G02*
X127100000Y-101800000I0J-75000D01*
G01*
X127100000Y-103125000D01*
G75*
G02*
X127025000Y-103200000I-75000J0D01*
G01*
X126875000Y-103200000D01*
G75*
G02*
X126800000Y-103125000I0J75000D01*
G01*
G37*
G36*
G01*
X127300000Y-103125000D02*
X127300000Y-101800000D01*
G75*
G02*
X127375000Y-101725000I75000J0D01*
G01*
X127525000Y-101725000D01*
G75*
G02*
X127600000Y-101800000I0J-75000D01*
G01*
X127600000Y-103125000D01*
G75*
G02*
X127525000Y-103200000I-75000J0D01*
G01*
X127375000Y-103200000D01*
G75*
G02*
X127300000Y-103125000I0J75000D01*
G01*
G37*
G36*
G01*
X127800000Y-103125000D02*
X127800000Y-101800000D01*
G75*
G02*
X127875000Y-101725000I75000J0D01*
G01*
X128025000Y-101725000D01*
G75*
G02*
X128100000Y-101800000I0J-75000D01*
G01*
X128100000Y-103125000D01*
G75*
G02*
X128025000Y-103200000I-75000J0D01*
G01*
X127875000Y-103200000D01*
G75*
G02*
X127800000Y-103125000I0J75000D01*
G01*
G37*
G36*
G01*
X128300000Y-103125000D02*
X128300000Y-101800000D01*
G75*
G02*
X128375000Y-101725000I75000J0D01*
G01*
X128525000Y-101725000D01*
G75*
G02*
X128600000Y-101800000I0J-75000D01*
G01*
X128600000Y-103125000D01*
G75*
G02*
X128525000Y-103200000I-75000J0D01*
G01*
X128375000Y-103200000D01*
G75*
G02*
X128300000Y-103125000I0J75000D01*
G01*
G37*
G36*
G01*
X128800000Y-103125000D02*
X128800000Y-101800000D01*
G75*
G02*
X128875000Y-101725000I75000J0D01*
G01*
X129025000Y-101725000D01*
G75*
G02*
X129100000Y-101800000I0J-75000D01*
G01*
X129100000Y-103125000D01*
G75*
G02*
X129025000Y-103200000I-75000J0D01*
G01*
X128875000Y-103200000D01*
G75*
G02*
X128800000Y-103125000I0J75000D01*
G01*
G37*
G36*
G01*
X129300000Y-103125000D02*
X129300000Y-101800000D01*
G75*
G02*
X129375000Y-101725000I75000J0D01*
G01*
X129525000Y-101725000D01*
G75*
G02*
X129600000Y-101800000I0J-75000D01*
G01*
X129600000Y-103125000D01*
G75*
G02*
X129525000Y-103200000I-75000J0D01*
G01*
X129375000Y-103200000D01*
G75*
G02*
X129300000Y-103125000I0J75000D01*
G01*
G37*
G36*
G01*
X129800000Y-103125000D02*
X129800000Y-101800000D01*
G75*
G02*
X129875000Y-101725000I75000J0D01*
G01*
X130025000Y-101725000D01*
G75*
G02*
X130100000Y-101800000I0J-75000D01*
G01*
X130100000Y-103125000D01*
G75*
G02*
X130025000Y-103200000I-75000J0D01*
G01*
X129875000Y-103200000D01*
G75*
G02*
X129800000Y-103125000I0J75000D01*
G01*
G37*
G36*
G01*
X130300000Y-103125000D02*
X130300000Y-101800000D01*
G75*
G02*
X130375000Y-101725000I75000J0D01*
G01*
X130525000Y-101725000D01*
G75*
G02*
X130600000Y-101800000I0J-75000D01*
G01*
X130600000Y-103125000D01*
G75*
G02*
X130525000Y-103200000I-75000J0D01*
G01*
X130375000Y-103200000D01*
G75*
G02*
X130300000Y-103125000I0J75000D01*
G01*
G37*
G36*
G01*
X131625000Y-100625000D02*
X131625000Y-100475000D01*
G75*
G02*
X131700000Y-100400000I75000J0D01*
G01*
X133025000Y-100400000D01*
G75*
G02*
X133100000Y-100475000I0J-75000D01*
G01*
X133100000Y-100625000D01*
G75*
G02*
X133025000Y-100700000I-75000J0D01*
G01*
X131700000Y-100700000D01*
G75*
G02*
X131625000Y-100625000I0J75000D01*
G01*
G37*
G36*
G01*
X131625000Y-100125000D02*
X131625000Y-99975000D01*
G75*
G02*
X131700000Y-99900000I75000J0D01*
G01*
X133025000Y-99900000D01*
G75*
G02*
X133100000Y-99975000I0J-75000D01*
G01*
X133100000Y-100125000D01*
G75*
G02*
X133025000Y-100200000I-75000J0D01*
G01*
X131700000Y-100200000D01*
G75*
G02*
X131625000Y-100125000I0J75000D01*
G01*
G37*
G36*
G01*
X131625000Y-99625000D02*
X131625000Y-99475000D01*
G75*
G02*
X131700000Y-99400000I75000J0D01*
G01*
X133025000Y-99400000D01*
G75*
G02*
X133100000Y-99475000I0J-75000D01*
G01*
X133100000Y-99625000D01*
G75*
G02*
X133025000Y-99700000I-75000J0D01*
G01*
X131700000Y-99700000D01*
G75*
G02*
X131625000Y-99625000I0J75000D01*
G01*
G37*
G36*
G01*
X131625000Y-99125000D02*
X131625000Y-98975000D01*
G75*
G02*
X131700000Y-98900000I75000J0D01*
G01*
X133025000Y-98900000D01*
G75*
G02*
X133100000Y-98975000I0J-75000D01*
G01*
X133100000Y-99125000D01*
G75*
G02*
X133025000Y-99200000I-75000J0D01*
G01*
X131700000Y-99200000D01*
G75*
G02*
X131625000Y-99125000I0J75000D01*
G01*
G37*
G36*
G01*
X131625000Y-98625000D02*
X131625000Y-98475000D01*
G75*
G02*
X131700000Y-98400000I75000J0D01*
G01*
X133025000Y-98400000D01*
G75*
G02*
X133100000Y-98475000I0J-75000D01*
G01*
X133100000Y-98625000D01*
G75*
G02*
X133025000Y-98700000I-75000J0D01*
G01*
X131700000Y-98700000D01*
G75*
G02*
X131625000Y-98625000I0J75000D01*
G01*
G37*
G36*
G01*
X131625000Y-98125000D02*
X131625000Y-97975000D01*
G75*
G02*
X131700000Y-97900000I75000J0D01*
G01*
X133025000Y-97900000D01*
G75*
G02*
X133100000Y-97975000I0J-75000D01*
G01*
X133100000Y-98125000D01*
G75*
G02*
X133025000Y-98200000I-75000J0D01*
G01*
X131700000Y-98200000D01*
G75*
G02*
X131625000Y-98125000I0J75000D01*
G01*
G37*
G36*
G01*
X131625000Y-97625000D02*
X131625000Y-97475000D01*
G75*
G02*
X131700000Y-97400000I75000J0D01*
G01*
X133025000Y-97400000D01*
G75*
G02*
X133100000Y-97475000I0J-75000D01*
G01*
X133100000Y-97625000D01*
G75*
G02*
X133025000Y-97700000I-75000J0D01*
G01*
X131700000Y-97700000D01*
G75*
G02*
X131625000Y-97625000I0J75000D01*
G01*
G37*
G36*
G01*
X131625000Y-97125000D02*
X131625000Y-96975000D01*
G75*
G02*
X131700000Y-96900000I75000J0D01*
G01*
X133025000Y-96900000D01*
G75*
G02*
X133100000Y-96975000I0J-75000D01*
G01*
X133100000Y-97125000D01*
G75*
G02*
X133025000Y-97200000I-75000J0D01*
G01*
X131700000Y-97200000D01*
G75*
G02*
X131625000Y-97125000I0J75000D01*
G01*
G37*
G36*
G01*
X131625000Y-96625000D02*
X131625000Y-96475000D01*
G75*
G02*
X131700000Y-96400000I75000J0D01*
G01*
X133025000Y-96400000D01*
G75*
G02*
X133100000Y-96475000I0J-75000D01*
G01*
X133100000Y-96625000D01*
G75*
G02*
X133025000Y-96700000I-75000J0D01*
G01*
X131700000Y-96700000D01*
G75*
G02*
X131625000Y-96625000I0J75000D01*
G01*
G37*
G36*
G01*
X131625000Y-96125000D02*
X131625000Y-95975000D01*
G75*
G02*
X131700000Y-95900000I75000J0D01*
G01*
X133025000Y-95900000D01*
G75*
G02*
X133100000Y-95975000I0J-75000D01*
G01*
X133100000Y-96125000D01*
G75*
G02*
X133025000Y-96200000I-75000J0D01*
G01*
X131700000Y-96200000D01*
G75*
G02*
X131625000Y-96125000I0J75000D01*
G01*
G37*
G36*
G01*
X131625000Y-95625000D02*
X131625000Y-95475000D01*
G75*
G02*
X131700000Y-95400000I75000J0D01*
G01*
X133025000Y-95400000D01*
G75*
G02*
X133100000Y-95475000I0J-75000D01*
G01*
X133100000Y-95625000D01*
G75*
G02*
X133025000Y-95700000I-75000J0D01*
G01*
X131700000Y-95700000D01*
G75*
G02*
X131625000Y-95625000I0J75000D01*
G01*
G37*
G36*
G01*
X131625000Y-95125000D02*
X131625000Y-94975000D01*
G75*
G02*
X131700000Y-94900000I75000J0D01*
G01*
X133025000Y-94900000D01*
G75*
G02*
X133100000Y-94975000I0J-75000D01*
G01*
X133100000Y-95125000D01*
G75*
G02*
X133025000Y-95200000I-75000J0D01*
G01*
X131700000Y-95200000D01*
G75*
G02*
X131625000Y-95125000I0J75000D01*
G01*
G37*
G36*
G01*
X131625000Y-94625000D02*
X131625000Y-94475000D01*
G75*
G02*
X131700000Y-94400000I75000J0D01*
G01*
X133025000Y-94400000D01*
G75*
G02*
X133100000Y-94475000I0J-75000D01*
G01*
X133100000Y-94625000D01*
G75*
G02*
X133025000Y-94700000I-75000J0D01*
G01*
X131700000Y-94700000D01*
G75*
G02*
X131625000Y-94625000I0J75000D01*
G01*
G37*
G36*
G01*
X131625000Y-94125000D02*
X131625000Y-93975000D01*
G75*
G02*
X131700000Y-93900000I75000J0D01*
G01*
X133025000Y-93900000D01*
G75*
G02*
X133100000Y-93975000I0J-75000D01*
G01*
X133100000Y-94125000D01*
G75*
G02*
X133025000Y-94200000I-75000J0D01*
G01*
X131700000Y-94200000D01*
G75*
G02*
X131625000Y-94125000I0J75000D01*
G01*
G37*
G36*
G01*
X131625000Y-93625000D02*
X131625000Y-93475000D01*
G75*
G02*
X131700000Y-93400000I75000J0D01*
G01*
X133025000Y-93400000D01*
G75*
G02*
X133100000Y-93475000I0J-75000D01*
G01*
X133100000Y-93625000D01*
G75*
G02*
X133025000Y-93700000I-75000J0D01*
G01*
X131700000Y-93700000D01*
G75*
G02*
X131625000Y-93625000I0J75000D01*
G01*
G37*
G36*
G01*
X131625000Y-93125000D02*
X131625000Y-92975000D01*
G75*
G02*
X131700000Y-92900000I75000J0D01*
G01*
X133025000Y-92900000D01*
G75*
G02*
X133100000Y-92975000I0J-75000D01*
G01*
X133100000Y-93125000D01*
G75*
G02*
X133025000Y-93200000I-75000J0D01*
G01*
X131700000Y-93200000D01*
G75*
G02*
X131625000Y-93125000I0J75000D01*
G01*
G37*
G36*
G01*
X131625000Y-92625000D02*
X131625000Y-92475000D01*
G75*
G02*
X131700000Y-92400000I75000J0D01*
G01*
X133025000Y-92400000D01*
G75*
G02*
X133100000Y-92475000I0J-75000D01*
G01*
X133100000Y-92625000D01*
G75*
G02*
X133025000Y-92700000I-75000J0D01*
G01*
X131700000Y-92700000D01*
G75*
G02*
X131625000Y-92625000I0J75000D01*
G01*
G37*
G36*
G01*
X131625000Y-92125000D02*
X131625000Y-91975000D01*
G75*
G02*
X131700000Y-91900000I75000J0D01*
G01*
X133025000Y-91900000D01*
G75*
G02*
X133100000Y-91975000I0J-75000D01*
G01*
X133100000Y-92125000D01*
G75*
G02*
X133025000Y-92200000I-75000J0D01*
G01*
X131700000Y-92200000D01*
G75*
G02*
X131625000Y-92125000I0J75000D01*
G01*
G37*
G36*
G01*
X131625000Y-91625000D02*
X131625000Y-91475000D01*
G75*
G02*
X131700000Y-91400000I75000J0D01*
G01*
X133025000Y-91400000D01*
G75*
G02*
X133100000Y-91475000I0J-75000D01*
G01*
X133100000Y-91625000D01*
G75*
G02*
X133025000Y-91700000I-75000J0D01*
G01*
X131700000Y-91700000D01*
G75*
G02*
X131625000Y-91625000I0J75000D01*
G01*
G37*
G36*
G01*
X131625000Y-91125000D02*
X131625000Y-90975000D01*
G75*
G02*
X131700000Y-90900000I75000J0D01*
G01*
X133025000Y-90900000D01*
G75*
G02*
X133100000Y-90975000I0J-75000D01*
G01*
X133100000Y-91125000D01*
G75*
G02*
X133025000Y-91200000I-75000J0D01*
G01*
X131700000Y-91200000D01*
G75*
G02*
X131625000Y-91125000I0J75000D01*
G01*
G37*
G36*
G01*
X131625000Y-90625000D02*
X131625000Y-90475000D01*
G75*
G02*
X131700000Y-90400000I75000J0D01*
G01*
X133025000Y-90400000D01*
G75*
G02*
X133100000Y-90475000I0J-75000D01*
G01*
X133100000Y-90625000D01*
G75*
G02*
X133025000Y-90700000I-75000J0D01*
G01*
X131700000Y-90700000D01*
G75*
G02*
X131625000Y-90625000I0J75000D01*
G01*
G37*
G36*
G01*
X131625000Y-90125000D02*
X131625000Y-89975000D01*
G75*
G02*
X131700000Y-89900000I75000J0D01*
G01*
X133025000Y-89900000D01*
G75*
G02*
X133100000Y-89975000I0J-75000D01*
G01*
X133100000Y-90125000D01*
G75*
G02*
X133025000Y-90200000I-75000J0D01*
G01*
X131700000Y-90200000D01*
G75*
G02*
X131625000Y-90125000I0J75000D01*
G01*
G37*
G36*
G01*
X131625000Y-89625000D02*
X131625000Y-89475000D01*
G75*
G02*
X131700000Y-89400000I75000J0D01*
G01*
X133025000Y-89400000D01*
G75*
G02*
X133100000Y-89475000I0J-75000D01*
G01*
X133100000Y-89625000D01*
G75*
G02*
X133025000Y-89700000I-75000J0D01*
G01*
X131700000Y-89700000D01*
G75*
G02*
X131625000Y-89625000I0J75000D01*
G01*
G37*
G36*
G01*
X131625000Y-89125000D02*
X131625000Y-88975000D01*
G75*
G02*
X131700000Y-88900000I75000J0D01*
G01*
X133025000Y-88900000D01*
G75*
G02*
X133100000Y-88975000I0J-75000D01*
G01*
X133100000Y-89125000D01*
G75*
G02*
X133025000Y-89200000I-75000J0D01*
G01*
X131700000Y-89200000D01*
G75*
G02*
X131625000Y-89125000I0J75000D01*
G01*
G37*
G36*
G01*
X131625000Y-88625000D02*
X131625000Y-88475000D01*
G75*
G02*
X131700000Y-88400000I75000J0D01*
G01*
X133025000Y-88400000D01*
G75*
G02*
X133100000Y-88475000I0J-75000D01*
G01*
X133100000Y-88625000D01*
G75*
G02*
X133025000Y-88700000I-75000J0D01*
G01*
X131700000Y-88700000D01*
G75*
G02*
X131625000Y-88625000I0J75000D01*
G01*
G37*
G36*
G01*
X131625000Y-88125000D02*
X131625000Y-87975000D01*
G75*
G02*
X131700000Y-87900000I75000J0D01*
G01*
X133025000Y-87900000D01*
G75*
G02*
X133100000Y-87975000I0J-75000D01*
G01*
X133100000Y-88125000D01*
G75*
G02*
X133025000Y-88200000I-75000J0D01*
G01*
X131700000Y-88200000D01*
G75*
G02*
X131625000Y-88125000I0J75000D01*
G01*
G37*
G36*
G01*
X131625000Y-87625000D02*
X131625000Y-87475000D01*
G75*
G02*
X131700000Y-87400000I75000J0D01*
G01*
X133025000Y-87400000D01*
G75*
G02*
X133100000Y-87475000I0J-75000D01*
G01*
X133100000Y-87625000D01*
G75*
G02*
X133025000Y-87700000I-75000J0D01*
G01*
X131700000Y-87700000D01*
G75*
G02*
X131625000Y-87625000I0J75000D01*
G01*
G37*
G36*
G01*
X131625000Y-87125000D02*
X131625000Y-86975000D01*
G75*
G02*
X131700000Y-86900000I75000J0D01*
G01*
X133025000Y-86900000D01*
G75*
G02*
X133100000Y-86975000I0J-75000D01*
G01*
X133100000Y-87125000D01*
G75*
G02*
X133025000Y-87200000I-75000J0D01*
G01*
X131700000Y-87200000D01*
G75*
G02*
X131625000Y-87125000I0J75000D01*
G01*
G37*
G36*
G01*
X131625000Y-86625000D02*
X131625000Y-86475000D01*
G75*
G02*
X131700000Y-86400000I75000J0D01*
G01*
X133025000Y-86400000D01*
G75*
G02*
X133100000Y-86475000I0J-75000D01*
G01*
X133100000Y-86625000D01*
G75*
G02*
X133025000Y-86700000I-75000J0D01*
G01*
X131700000Y-86700000D01*
G75*
G02*
X131625000Y-86625000I0J75000D01*
G01*
G37*
G36*
G01*
X131625000Y-86125000D02*
X131625000Y-85975000D01*
G75*
G02*
X131700000Y-85900000I75000J0D01*
G01*
X133025000Y-85900000D01*
G75*
G02*
X133100000Y-85975000I0J-75000D01*
G01*
X133100000Y-86125000D01*
G75*
G02*
X133025000Y-86200000I-75000J0D01*
G01*
X131700000Y-86200000D01*
G75*
G02*
X131625000Y-86125000I0J75000D01*
G01*
G37*
G36*
G01*
X131625000Y-85625000D02*
X131625000Y-85475000D01*
G75*
G02*
X131700000Y-85400000I75000J0D01*
G01*
X133025000Y-85400000D01*
G75*
G02*
X133100000Y-85475000I0J-75000D01*
G01*
X133100000Y-85625000D01*
G75*
G02*
X133025000Y-85700000I-75000J0D01*
G01*
X131700000Y-85700000D01*
G75*
G02*
X131625000Y-85625000I0J75000D01*
G01*
G37*
G36*
G01*
X131625000Y-85125000D02*
X131625000Y-84975000D01*
G75*
G02*
X131700000Y-84900000I75000J0D01*
G01*
X133025000Y-84900000D01*
G75*
G02*
X133100000Y-84975000I0J-75000D01*
G01*
X133100000Y-85125000D01*
G75*
G02*
X133025000Y-85200000I-75000J0D01*
G01*
X131700000Y-85200000D01*
G75*
G02*
X131625000Y-85125000I0J75000D01*
G01*
G37*
G36*
G01*
X131625000Y-84625000D02*
X131625000Y-84475000D01*
G75*
G02*
X131700000Y-84400000I75000J0D01*
G01*
X133025000Y-84400000D01*
G75*
G02*
X133100000Y-84475000I0J-75000D01*
G01*
X133100000Y-84625000D01*
G75*
G02*
X133025000Y-84700000I-75000J0D01*
G01*
X131700000Y-84700000D01*
G75*
G02*
X131625000Y-84625000I0J75000D01*
G01*
G37*
G36*
G01*
X131625000Y-84125000D02*
X131625000Y-83975000D01*
G75*
G02*
X131700000Y-83900000I75000J0D01*
G01*
X133025000Y-83900000D01*
G75*
G02*
X133100000Y-83975000I0J-75000D01*
G01*
X133100000Y-84125000D01*
G75*
G02*
X133025000Y-84200000I-75000J0D01*
G01*
X131700000Y-84200000D01*
G75*
G02*
X131625000Y-84125000I0J75000D01*
G01*
G37*
G36*
G01*
X131625000Y-83625000D02*
X131625000Y-83475000D01*
G75*
G02*
X131700000Y-83400000I75000J0D01*
G01*
X133025000Y-83400000D01*
G75*
G02*
X133100000Y-83475000I0J-75000D01*
G01*
X133100000Y-83625000D01*
G75*
G02*
X133025000Y-83700000I-75000J0D01*
G01*
X131700000Y-83700000D01*
G75*
G02*
X131625000Y-83625000I0J75000D01*
G01*
G37*
G36*
G01*
X131625000Y-83125000D02*
X131625000Y-82975000D01*
G75*
G02*
X131700000Y-82900000I75000J0D01*
G01*
X133025000Y-82900000D01*
G75*
G02*
X133100000Y-82975000I0J-75000D01*
G01*
X133100000Y-83125000D01*
G75*
G02*
X133025000Y-83200000I-75000J0D01*
G01*
X131700000Y-83200000D01*
G75*
G02*
X131625000Y-83125000I0J75000D01*
G01*
G37*
G36*
G01*
X130300000Y-81800000D02*
X130300000Y-80475000D01*
G75*
G02*
X130375000Y-80400000I75000J0D01*
G01*
X130525000Y-80400000D01*
G75*
G02*
X130600000Y-80475000I0J-75000D01*
G01*
X130600000Y-81800000D01*
G75*
G02*
X130525000Y-81875000I-75000J0D01*
G01*
X130375000Y-81875000D01*
G75*
G02*
X130300000Y-81800000I0J75000D01*
G01*
G37*
G36*
G01*
X129800000Y-81800000D02*
X129800000Y-80475000D01*
G75*
G02*
X129875000Y-80400000I75000J0D01*
G01*
X130025000Y-80400000D01*
G75*
G02*
X130100000Y-80475000I0J-75000D01*
G01*
X130100000Y-81800000D01*
G75*
G02*
X130025000Y-81875000I-75000J0D01*
G01*
X129875000Y-81875000D01*
G75*
G02*
X129800000Y-81800000I0J75000D01*
G01*
G37*
G36*
G01*
X129300000Y-81800000D02*
X129300000Y-80475000D01*
G75*
G02*
X129375000Y-80400000I75000J0D01*
G01*
X129525000Y-80400000D01*
G75*
G02*
X129600000Y-80475000I0J-75000D01*
G01*
X129600000Y-81800000D01*
G75*
G02*
X129525000Y-81875000I-75000J0D01*
G01*
X129375000Y-81875000D01*
G75*
G02*
X129300000Y-81800000I0J75000D01*
G01*
G37*
G36*
G01*
X128800000Y-81800000D02*
X128800000Y-80475000D01*
G75*
G02*
X128875000Y-80400000I75000J0D01*
G01*
X129025000Y-80400000D01*
G75*
G02*
X129100000Y-80475000I0J-75000D01*
G01*
X129100000Y-81800000D01*
G75*
G02*
X129025000Y-81875000I-75000J0D01*
G01*
X128875000Y-81875000D01*
G75*
G02*
X128800000Y-81800000I0J75000D01*
G01*
G37*
G36*
G01*
X128300000Y-81800000D02*
X128300000Y-80475000D01*
G75*
G02*
X128375000Y-80400000I75000J0D01*
G01*
X128525000Y-80400000D01*
G75*
G02*
X128600000Y-80475000I0J-75000D01*
G01*
X128600000Y-81800000D01*
G75*
G02*
X128525000Y-81875000I-75000J0D01*
G01*
X128375000Y-81875000D01*
G75*
G02*
X128300000Y-81800000I0J75000D01*
G01*
G37*
G36*
G01*
X127800000Y-81800000D02*
X127800000Y-80475000D01*
G75*
G02*
X127875000Y-80400000I75000J0D01*
G01*
X128025000Y-80400000D01*
G75*
G02*
X128100000Y-80475000I0J-75000D01*
G01*
X128100000Y-81800000D01*
G75*
G02*
X128025000Y-81875000I-75000J0D01*
G01*
X127875000Y-81875000D01*
G75*
G02*
X127800000Y-81800000I0J75000D01*
G01*
G37*
G36*
G01*
X127300000Y-81800000D02*
X127300000Y-80475000D01*
G75*
G02*
X127375000Y-80400000I75000J0D01*
G01*
X127525000Y-80400000D01*
G75*
G02*
X127600000Y-80475000I0J-75000D01*
G01*
X127600000Y-81800000D01*
G75*
G02*
X127525000Y-81875000I-75000J0D01*
G01*
X127375000Y-81875000D01*
G75*
G02*
X127300000Y-81800000I0J75000D01*
G01*
G37*
G36*
G01*
X126800000Y-81800000D02*
X126800000Y-80475000D01*
G75*
G02*
X126875000Y-80400000I75000J0D01*
G01*
X127025000Y-80400000D01*
G75*
G02*
X127100000Y-80475000I0J-75000D01*
G01*
X127100000Y-81800000D01*
G75*
G02*
X127025000Y-81875000I-75000J0D01*
G01*
X126875000Y-81875000D01*
G75*
G02*
X126800000Y-81800000I0J75000D01*
G01*
G37*
G36*
G01*
X126300000Y-81800000D02*
X126300000Y-80475000D01*
G75*
G02*
X126375000Y-80400000I75000J0D01*
G01*
X126525000Y-80400000D01*
G75*
G02*
X126600000Y-80475000I0J-75000D01*
G01*
X126600000Y-81800000D01*
G75*
G02*
X126525000Y-81875000I-75000J0D01*
G01*
X126375000Y-81875000D01*
G75*
G02*
X126300000Y-81800000I0J75000D01*
G01*
G37*
G36*
G01*
X125800000Y-81800000D02*
X125800000Y-80475000D01*
G75*
G02*
X125875000Y-80400000I75000J0D01*
G01*
X126025000Y-80400000D01*
G75*
G02*
X126100000Y-80475000I0J-75000D01*
G01*
X126100000Y-81800000D01*
G75*
G02*
X126025000Y-81875000I-75000J0D01*
G01*
X125875000Y-81875000D01*
G75*
G02*
X125800000Y-81800000I0J75000D01*
G01*
G37*
G36*
G01*
X125300000Y-81800000D02*
X125300000Y-80475000D01*
G75*
G02*
X125375000Y-80400000I75000J0D01*
G01*
X125525000Y-80400000D01*
G75*
G02*
X125600000Y-80475000I0J-75000D01*
G01*
X125600000Y-81800000D01*
G75*
G02*
X125525000Y-81875000I-75000J0D01*
G01*
X125375000Y-81875000D01*
G75*
G02*
X125300000Y-81800000I0J75000D01*
G01*
G37*
G36*
G01*
X124800000Y-81800000D02*
X124800000Y-80475000D01*
G75*
G02*
X124875000Y-80400000I75000J0D01*
G01*
X125025000Y-80400000D01*
G75*
G02*
X125100000Y-80475000I0J-75000D01*
G01*
X125100000Y-81800000D01*
G75*
G02*
X125025000Y-81875000I-75000J0D01*
G01*
X124875000Y-81875000D01*
G75*
G02*
X124800000Y-81800000I0J75000D01*
G01*
G37*
G36*
G01*
X124300000Y-81800000D02*
X124300000Y-80475000D01*
G75*
G02*
X124375000Y-80400000I75000J0D01*
G01*
X124525000Y-80400000D01*
G75*
G02*
X124600000Y-80475000I0J-75000D01*
G01*
X124600000Y-81800000D01*
G75*
G02*
X124525000Y-81875000I-75000J0D01*
G01*
X124375000Y-81875000D01*
G75*
G02*
X124300000Y-81800000I0J75000D01*
G01*
G37*
G36*
G01*
X123800000Y-81800000D02*
X123800000Y-80475000D01*
G75*
G02*
X123875000Y-80400000I75000J0D01*
G01*
X124025000Y-80400000D01*
G75*
G02*
X124100000Y-80475000I0J-75000D01*
G01*
X124100000Y-81800000D01*
G75*
G02*
X124025000Y-81875000I-75000J0D01*
G01*
X123875000Y-81875000D01*
G75*
G02*
X123800000Y-81800000I0J75000D01*
G01*
G37*
G36*
G01*
X123300000Y-81800000D02*
X123300000Y-80475000D01*
G75*
G02*
X123375000Y-80400000I75000J0D01*
G01*
X123525000Y-80400000D01*
G75*
G02*
X123600000Y-80475000I0J-75000D01*
G01*
X123600000Y-81800000D01*
G75*
G02*
X123525000Y-81875000I-75000J0D01*
G01*
X123375000Y-81875000D01*
G75*
G02*
X123300000Y-81800000I0J75000D01*
G01*
G37*
G36*
G01*
X122800000Y-81800000D02*
X122800000Y-80475000D01*
G75*
G02*
X122875000Y-80400000I75000J0D01*
G01*
X123025000Y-80400000D01*
G75*
G02*
X123100000Y-80475000I0J-75000D01*
G01*
X123100000Y-81800000D01*
G75*
G02*
X123025000Y-81875000I-75000J0D01*
G01*
X122875000Y-81875000D01*
G75*
G02*
X122800000Y-81800000I0J75000D01*
G01*
G37*
G36*
G01*
X122300000Y-81800000D02*
X122300000Y-80475000D01*
G75*
G02*
X122375000Y-80400000I75000J0D01*
G01*
X122525000Y-80400000D01*
G75*
G02*
X122600000Y-80475000I0J-75000D01*
G01*
X122600000Y-81800000D01*
G75*
G02*
X122525000Y-81875000I-75000J0D01*
G01*
X122375000Y-81875000D01*
G75*
G02*
X122300000Y-81800000I0J75000D01*
G01*
G37*
G36*
G01*
X121800000Y-81800000D02*
X121800000Y-80475000D01*
G75*
G02*
X121875000Y-80400000I75000J0D01*
G01*
X122025000Y-80400000D01*
G75*
G02*
X122100000Y-80475000I0J-75000D01*
G01*
X122100000Y-81800000D01*
G75*
G02*
X122025000Y-81875000I-75000J0D01*
G01*
X121875000Y-81875000D01*
G75*
G02*
X121800000Y-81800000I0J75000D01*
G01*
G37*
G36*
G01*
X121300000Y-81800000D02*
X121300000Y-80475000D01*
G75*
G02*
X121375000Y-80400000I75000J0D01*
G01*
X121525000Y-80400000D01*
G75*
G02*
X121600000Y-80475000I0J-75000D01*
G01*
X121600000Y-81800000D01*
G75*
G02*
X121525000Y-81875000I-75000J0D01*
G01*
X121375000Y-81875000D01*
G75*
G02*
X121300000Y-81800000I0J75000D01*
G01*
G37*
G36*
G01*
X120800000Y-81800000D02*
X120800000Y-80475000D01*
G75*
G02*
X120875000Y-80400000I75000J0D01*
G01*
X121025000Y-80400000D01*
G75*
G02*
X121100000Y-80475000I0J-75000D01*
G01*
X121100000Y-81800000D01*
G75*
G02*
X121025000Y-81875000I-75000J0D01*
G01*
X120875000Y-81875000D01*
G75*
G02*
X120800000Y-81800000I0J75000D01*
G01*
G37*
G36*
G01*
X120300000Y-81800000D02*
X120300000Y-80475000D01*
G75*
G02*
X120375000Y-80400000I75000J0D01*
G01*
X120525000Y-80400000D01*
G75*
G02*
X120600000Y-80475000I0J-75000D01*
G01*
X120600000Y-81800000D01*
G75*
G02*
X120525000Y-81875000I-75000J0D01*
G01*
X120375000Y-81875000D01*
G75*
G02*
X120300000Y-81800000I0J75000D01*
G01*
G37*
G36*
G01*
X119800000Y-81800000D02*
X119800000Y-80475000D01*
G75*
G02*
X119875000Y-80400000I75000J0D01*
G01*
X120025000Y-80400000D01*
G75*
G02*
X120100000Y-80475000I0J-75000D01*
G01*
X120100000Y-81800000D01*
G75*
G02*
X120025000Y-81875000I-75000J0D01*
G01*
X119875000Y-81875000D01*
G75*
G02*
X119800000Y-81800000I0J75000D01*
G01*
G37*
G36*
G01*
X119300000Y-81800000D02*
X119300000Y-80475000D01*
G75*
G02*
X119375000Y-80400000I75000J0D01*
G01*
X119525000Y-80400000D01*
G75*
G02*
X119600000Y-80475000I0J-75000D01*
G01*
X119600000Y-81800000D01*
G75*
G02*
X119525000Y-81875000I-75000J0D01*
G01*
X119375000Y-81875000D01*
G75*
G02*
X119300000Y-81800000I0J75000D01*
G01*
G37*
G36*
G01*
X118800000Y-81800000D02*
X118800000Y-80475000D01*
G75*
G02*
X118875000Y-80400000I75000J0D01*
G01*
X119025000Y-80400000D01*
G75*
G02*
X119100000Y-80475000I0J-75000D01*
G01*
X119100000Y-81800000D01*
G75*
G02*
X119025000Y-81875000I-75000J0D01*
G01*
X118875000Y-81875000D01*
G75*
G02*
X118800000Y-81800000I0J75000D01*
G01*
G37*
G36*
G01*
X118300000Y-81800000D02*
X118300000Y-80475000D01*
G75*
G02*
X118375000Y-80400000I75000J0D01*
G01*
X118525000Y-80400000D01*
G75*
G02*
X118600000Y-80475000I0J-75000D01*
G01*
X118600000Y-81800000D01*
G75*
G02*
X118525000Y-81875000I-75000J0D01*
G01*
X118375000Y-81875000D01*
G75*
G02*
X118300000Y-81800000I0J75000D01*
G01*
G37*
G36*
G01*
X117800000Y-81800000D02*
X117800000Y-80475000D01*
G75*
G02*
X117875000Y-80400000I75000J0D01*
G01*
X118025000Y-80400000D01*
G75*
G02*
X118100000Y-80475000I0J-75000D01*
G01*
X118100000Y-81800000D01*
G75*
G02*
X118025000Y-81875000I-75000J0D01*
G01*
X117875000Y-81875000D01*
G75*
G02*
X117800000Y-81800000I0J75000D01*
G01*
G37*
G36*
G01*
X117300000Y-81800000D02*
X117300000Y-80475000D01*
G75*
G02*
X117375000Y-80400000I75000J0D01*
G01*
X117525000Y-80400000D01*
G75*
G02*
X117600000Y-80475000I0J-75000D01*
G01*
X117600000Y-81800000D01*
G75*
G02*
X117525000Y-81875000I-75000J0D01*
G01*
X117375000Y-81875000D01*
G75*
G02*
X117300000Y-81800000I0J75000D01*
G01*
G37*
G36*
G01*
X116800000Y-81800000D02*
X116800000Y-80475000D01*
G75*
G02*
X116875000Y-80400000I75000J0D01*
G01*
X117025000Y-80400000D01*
G75*
G02*
X117100000Y-80475000I0J-75000D01*
G01*
X117100000Y-81800000D01*
G75*
G02*
X117025000Y-81875000I-75000J0D01*
G01*
X116875000Y-81875000D01*
G75*
G02*
X116800000Y-81800000I0J75000D01*
G01*
G37*
G36*
G01*
X116300000Y-81800000D02*
X116300000Y-80475000D01*
G75*
G02*
X116375000Y-80400000I75000J0D01*
G01*
X116525000Y-80400000D01*
G75*
G02*
X116600000Y-80475000I0J-75000D01*
G01*
X116600000Y-81800000D01*
G75*
G02*
X116525000Y-81875000I-75000J0D01*
G01*
X116375000Y-81875000D01*
G75*
G02*
X116300000Y-81800000I0J75000D01*
G01*
G37*
G36*
G01*
X115800000Y-81800000D02*
X115800000Y-80475000D01*
G75*
G02*
X115875000Y-80400000I75000J0D01*
G01*
X116025000Y-80400000D01*
G75*
G02*
X116100000Y-80475000I0J-75000D01*
G01*
X116100000Y-81800000D01*
G75*
G02*
X116025000Y-81875000I-75000J0D01*
G01*
X115875000Y-81875000D01*
G75*
G02*
X115800000Y-81800000I0J75000D01*
G01*
G37*
G36*
G01*
X115300000Y-81800000D02*
X115300000Y-80475000D01*
G75*
G02*
X115375000Y-80400000I75000J0D01*
G01*
X115525000Y-80400000D01*
G75*
G02*
X115600000Y-80475000I0J-75000D01*
G01*
X115600000Y-81800000D01*
G75*
G02*
X115525000Y-81875000I-75000J0D01*
G01*
X115375000Y-81875000D01*
G75*
G02*
X115300000Y-81800000I0J75000D01*
G01*
G37*
G36*
G01*
X114800000Y-81800000D02*
X114800000Y-80475000D01*
G75*
G02*
X114875000Y-80400000I75000J0D01*
G01*
X115025000Y-80400000D01*
G75*
G02*
X115100000Y-80475000I0J-75000D01*
G01*
X115100000Y-81800000D01*
G75*
G02*
X115025000Y-81875000I-75000J0D01*
G01*
X114875000Y-81875000D01*
G75*
G02*
X114800000Y-81800000I0J75000D01*
G01*
G37*
G36*
G01*
X114300000Y-81800000D02*
X114300000Y-80475000D01*
G75*
G02*
X114375000Y-80400000I75000J0D01*
G01*
X114525000Y-80400000D01*
G75*
G02*
X114600000Y-80475000I0J-75000D01*
G01*
X114600000Y-81800000D01*
G75*
G02*
X114525000Y-81875000I-75000J0D01*
G01*
X114375000Y-81875000D01*
G75*
G02*
X114300000Y-81800000I0J75000D01*
G01*
G37*
G36*
G01*
X113800000Y-81800000D02*
X113800000Y-80475000D01*
G75*
G02*
X113875000Y-80400000I75000J0D01*
G01*
X114025000Y-80400000D01*
G75*
G02*
X114100000Y-80475000I0J-75000D01*
G01*
X114100000Y-81800000D01*
G75*
G02*
X114025000Y-81875000I-75000J0D01*
G01*
X113875000Y-81875000D01*
G75*
G02*
X113800000Y-81800000I0J75000D01*
G01*
G37*
G36*
G01*
X113300000Y-81800000D02*
X113300000Y-80475000D01*
G75*
G02*
X113375000Y-80400000I75000J0D01*
G01*
X113525000Y-80400000D01*
G75*
G02*
X113600000Y-80475000I0J-75000D01*
G01*
X113600000Y-81800000D01*
G75*
G02*
X113525000Y-81875000I-75000J0D01*
G01*
X113375000Y-81875000D01*
G75*
G02*
X113300000Y-81800000I0J75000D01*
G01*
G37*
G36*
G01*
X112800000Y-81800000D02*
X112800000Y-80475000D01*
G75*
G02*
X112875000Y-80400000I75000J0D01*
G01*
X113025000Y-80400000D01*
G75*
G02*
X113100000Y-80475000I0J-75000D01*
G01*
X113100000Y-81800000D01*
G75*
G02*
X113025000Y-81875000I-75000J0D01*
G01*
X112875000Y-81875000D01*
G75*
G02*
X112800000Y-81800000I0J75000D01*
G01*
G37*
%TD*%
D26*
%TO.C,SW1*%
X80450000Y-84600000D03*
X75950000Y-84600000D03*
X75950000Y-76200000D03*
X80450000Y-76200000D03*
%TD*%
D27*
%TO.C,H4*%
X172700000Y-127800000D03*
D28*
X174950000Y-127800000D03*
X174290990Y-129390990D03*
X172700000Y-130050000D03*
X171109010Y-129390990D03*
X170450000Y-127800000D03*
X171109010Y-126209010D03*
X172700000Y-125550000D03*
X174290990Y-126209010D03*
%TD*%
D27*
%TO.C,H3*%
X172700000Y-55800000D03*
D28*
X174950000Y-55800000D03*
X174290990Y-57390990D03*
X172700000Y-58050000D03*
X171109010Y-57390990D03*
X170450000Y-55800000D03*
X171109010Y-54209010D03*
X172700000Y-53550000D03*
X174290990Y-54209010D03*
%TD*%
D27*
%TO.C,H2*%
X70700000Y-127800000D03*
D28*
X72950000Y-127800000D03*
X72290990Y-129390990D03*
X70700000Y-130050000D03*
X69109010Y-129390990D03*
X68450000Y-127800000D03*
X69109010Y-126209010D03*
X70700000Y-125550000D03*
X72290990Y-126209010D03*
%TD*%
D27*
%TO.C,H1*%
X70700000Y-55800000D03*
D28*
X72950000Y-55800000D03*
X72290990Y-57390990D03*
X70700000Y-58050000D03*
X69109010Y-57390990D03*
X68450000Y-55800000D03*
X69109010Y-54209010D03*
X70700000Y-53550000D03*
X72290990Y-54209010D03*
%TD*%
D29*
%TO.C,JP6*%
X140950000Y-128300000D03*
X140950000Y-126300000D03*
D16*
X140950000Y-124300000D03*
%TD*%
D29*
%TO.C,JP8*%
X93300000Y-128300000D03*
X93300000Y-126300000D03*
D16*
X93300000Y-124300000D03*
%TD*%
%TO.C,JP1*%
X97400000Y-59100000D03*
D29*
X97400000Y-57100000D03*
X97400000Y-55100000D03*
%TD*%
%TO.C,JP5*%
X113450000Y-128300000D03*
X113450000Y-126300000D03*
D16*
X113450000Y-124300000D03*
%TD*%
%TO.C,JP2*%
X120950000Y-59050000D03*
D29*
X120950000Y-57050000D03*
X120950000Y-55050000D03*
%TD*%
%TO.C,JP7*%
X76200000Y-128300000D03*
X76200000Y-126300000D03*
D16*
X76200000Y-124300000D03*
%TD*%
%TO.C,JP3*%
X144450000Y-59050000D03*
D29*
X144450000Y-57050000D03*
X144450000Y-55050000D03*
%TD*%
D16*
%TO.C,JP4*%
X168200000Y-59050000D03*
D29*
X168200000Y-57050000D03*
X168200000Y-55050000D03*
%TD*%
D30*
%TO.C,U3*%
X164900000Y-79705000D03*
X164900000Y-78435000D03*
X164900000Y-77165000D03*
X164900000Y-75895000D03*
X159500000Y-75895000D03*
X159500000Y-77165000D03*
X159500000Y-78435000D03*
X159500000Y-79705000D03*
%TD*%
D31*
%TO.C,SW2*%
X67350000Y-75950000D03*
X69550000Y-75950000D03*
X67350000Y-68650000D03*
X69550000Y-68650000D03*
D32*
X70200000Y-74550000D03*
X70200000Y-73050000D03*
X70200000Y-70050000D03*
%TD*%
%TO.C,R52*%
G36*
G01*
X165095000Y-116025000D02*
X164545000Y-116025000D01*
G75*
G02*
X164345000Y-115825000I0J200000D01*
G01*
X164345000Y-115425000D01*
G75*
G02*
X164545000Y-115225000I200000J0D01*
G01*
X165095000Y-115225000D01*
G75*
G02*
X165295000Y-115425000I0J-200000D01*
G01*
X165295000Y-115825000D01*
G75*
G02*
X165095000Y-116025000I-200000J0D01*
G01*
G37*
G36*
G01*
X165095000Y-114375000D02*
X164545000Y-114375000D01*
G75*
G02*
X164345000Y-114175000I0J200000D01*
G01*
X164345000Y-113775000D01*
G75*
G02*
X164545000Y-113575000I200000J0D01*
G01*
X165095000Y-113575000D01*
G75*
G02*
X165295000Y-113775000I0J-200000D01*
G01*
X165295000Y-114175000D01*
G75*
G02*
X165095000Y-114375000I-200000J0D01*
G01*
G37*
%TD*%
%TO.C,R51*%
G36*
G01*
X165095000Y-112775000D02*
X164545000Y-112775000D01*
G75*
G02*
X164345000Y-112575000I0J200000D01*
G01*
X164345000Y-112175000D01*
G75*
G02*
X164545000Y-111975000I200000J0D01*
G01*
X165095000Y-111975000D01*
G75*
G02*
X165295000Y-112175000I0J-200000D01*
G01*
X165295000Y-112575000D01*
G75*
G02*
X165095000Y-112775000I-200000J0D01*
G01*
G37*
G36*
G01*
X165095000Y-111125000D02*
X164545000Y-111125000D01*
G75*
G02*
X164345000Y-110925000I0J200000D01*
G01*
X164345000Y-110525000D01*
G75*
G02*
X164545000Y-110325000I200000J0D01*
G01*
X165095000Y-110325000D01*
G75*
G02*
X165295000Y-110525000I0J-200000D01*
G01*
X165295000Y-110925000D01*
G75*
G02*
X165095000Y-111125000I-200000J0D01*
G01*
G37*
%TD*%
%TO.C,R50*%
G36*
G01*
X166925000Y-108775000D02*
X166925000Y-109325000D01*
G75*
G02*
X166725000Y-109525000I-200000J0D01*
G01*
X166325000Y-109525000D01*
G75*
G02*
X166125000Y-109325000I0J200000D01*
G01*
X166125000Y-108775000D01*
G75*
G02*
X166325000Y-108575000I200000J0D01*
G01*
X166725000Y-108575000D01*
G75*
G02*
X166925000Y-108775000I0J-200000D01*
G01*
G37*
G36*
G01*
X165275000Y-108775000D02*
X165275000Y-109325000D01*
G75*
G02*
X165075000Y-109525000I-200000J0D01*
G01*
X164675000Y-109525000D01*
G75*
G02*
X164475000Y-109325000I0J200000D01*
G01*
X164475000Y-108775000D01*
G75*
G02*
X164675000Y-108575000I200000J0D01*
G01*
X165075000Y-108575000D01*
G75*
G02*
X165275000Y-108775000I0J-200000D01*
G01*
G37*
%TD*%
%TO.C,R49*%
G36*
G01*
X160077602Y-116400000D02*
X159177598Y-116400000D01*
G75*
G02*
X158927600Y-116150002I0J249998D01*
G01*
X158927600Y-115624998D01*
G75*
G02*
X159177598Y-115375000I249998J0D01*
G01*
X160077602Y-115375000D01*
G75*
G02*
X160327600Y-115624998I0J-249998D01*
G01*
X160327600Y-116150002D01*
G75*
G02*
X160077602Y-116400000I-249998J0D01*
G01*
G37*
G36*
G01*
X160077602Y-118225000D02*
X159177598Y-118225000D01*
G75*
G02*
X158927600Y-117975002I0J249998D01*
G01*
X158927600Y-117449998D01*
G75*
G02*
X159177598Y-117200000I249998J0D01*
G01*
X160077602Y-117200000D01*
G75*
G02*
X160327600Y-117449998I0J-249998D01*
G01*
X160327600Y-117975002D01*
G75*
G02*
X160077602Y-118225000I-249998J0D01*
G01*
G37*
%TD*%
%TO.C,R48*%
G36*
G01*
X157537602Y-116400000D02*
X156637598Y-116400000D01*
G75*
G02*
X156387600Y-116150002I0J249998D01*
G01*
X156387600Y-115624998D01*
G75*
G02*
X156637598Y-115375000I249998J0D01*
G01*
X157537602Y-115375000D01*
G75*
G02*
X157787600Y-115624998I0J-249998D01*
G01*
X157787600Y-116150002D01*
G75*
G02*
X157537602Y-116400000I-249998J0D01*
G01*
G37*
G36*
G01*
X157537602Y-118225000D02*
X156637598Y-118225000D01*
G75*
G02*
X156387600Y-117975002I0J249998D01*
G01*
X156387600Y-117449998D01*
G75*
G02*
X156637598Y-117200000I249998J0D01*
G01*
X157537602Y-117200000D01*
G75*
G02*
X157787600Y-117449998I0J-249998D01*
G01*
X157787600Y-117975002D01*
G75*
G02*
X157537602Y-118225000I-249998J0D01*
G01*
G37*
%TD*%
%TO.C,R47*%
G36*
G01*
X154997602Y-116400000D02*
X154097598Y-116400000D01*
G75*
G02*
X153847600Y-116150002I0J249998D01*
G01*
X153847600Y-115624998D01*
G75*
G02*
X154097598Y-115375000I249998J0D01*
G01*
X154997602Y-115375000D01*
G75*
G02*
X155247600Y-115624998I0J-249998D01*
G01*
X155247600Y-116150002D01*
G75*
G02*
X154997602Y-116400000I-249998J0D01*
G01*
G37*
G36*
G01*
X154997602Y-118225000D02*
X154097598Y-118225000D01*
G75*
G02*
X153847600Y-117975002I0J249998D01*
G01*
X153847600Y-117449998D01*
G75*
G02*
X154097598Y-117200000I249998J0D01*
G01*
X154997602Y-117200000D01*
G75*
G02*
X155247600Y-117449998I0J-249998D01*
G01*
X155247600Y-117975002D01*
G75*
G02*
X154997602Y-118225000I-249998J0D01*
G01*
G37*
%TD*%
%TO.C,R46*%
G36*
G01*
X152457602Y-116400000D02*
X151557598Y-116400000D01*
G75*
G02*
X151307600Y-116150002I0J249998D01*
G01*
X151307600Y-115624998D01*
G75*
G02*
X151557598Y-115375000I249998J0D01*
G01*
X152457602Y-115375000D01*
G75*
G02*
X152707600Y-115624998I0J-249998D01*
G01*
X152707600Y-116150002D01*
G75*
G02*
X152457602Y-116400000I-249998J0D01*
G01*
G37*
G36*
G01*
X152457602Y-118225000D02*
X151557598Y-118225000D01*
G75*
G02*
X151307600Y-117975002I0J249998D01*
G01*
X151307600Y-117449998D01*
G75*
G02*
X151557598Y-117200000I249998J0D01*
G01*
X152457602Y-117200000D01*
G75*
G02*
X152707600Y-117449998I0J-249998D01*
G01*
X152707600Y-117975002D01*
G75*
G02*
X152457602Y-118225000I-249998J0D01*
G01*
G37*
%TD*%
%TO.C,R45*%
G36*
G01*
X149917602Y-116400000D02*
X149017598Y-116400000D01*
G75*
G02*
X148767600Y-116150002I0J249998D01*
G01*
X148767600Y-115624998D01*
G75*
G02*
X149017598Y-115375000I249998J0D01*
G01*
X149917602Y-115375000D01*
G75*
G02*
X150167600Y-115624998I0J-249998D01*
G01*
X150167600Y-116150002D01*
G75*
G02*
X149917602Y-116400000I-249998J0D01*
G01*
G37*
G36*
G01*
X149917602Y-118225000D02*
X149017598Y-118225000D01*
G75*
G02*
X148767600Y-117975002I0J249998D01*
G01*
X148767600Y-117449998D01*
G75*
G02*
X149017598Y-117200000I249998J0D01*
G01*
X149917602Y-117200000D01*
G75*
G02*
X150167600Y-117449998I0J-249998D01*
G01*
X150167600Y-117975002D01*
G75*
G02*
X149917602Y-118225000I-249998J0D01*
G01*
G37*
%TD*%
%TO.C,R44*%
G36*
G01*
X132518602Y-118225000D02*
X131618598Y-118225000D01*
G75*
G02*
X131368600Y-117975002I0J249998D01*
G01*
X131368600Y-117449998D01*
G75*
G02*
X131618598Y-117200000I249998J0D01*
G01*
X132518602Y-117200000D01*
G75*
G02*
X132768600Y-117449998I0J-249998D01*
G01*
X132768600Y-117975002D01*
G75*
G02*
X132518602Y-118225000I-249998J0D01*
G01*
G37*
G36*
G01*
X132518602Y-116400000D02*
X131618598Y-116400000D01*
G75*
G02*
X131368600Y-116150002I0J249998D01*
G01*
X131368600Y-115624998D01*
G75*
G02*
X131618598Y-115375000I249998J0D01*
G01*
X132518602Y-115375000D01*
G75*
G02*
X132768600Y-115624998I0J-249998D01*
G01*
X132768600Y-116150002D01*
G75*
G02*
X132518602Y-116400000I-249998J0D01*
G01*
G37*
%TD*%
%TO.C,R43*%
G36*
G01*
X129978602Y-118225000D02*
X129078598Y-118225000D01*
G75*
G02*
X128828600Y-117975002I0J249998D01*
G01*
X128828600Y-117449998D01*
G75*
G02*
X129078598Y-117200000I249998J0D01*
G01*
X129978602Y-117200000D01*
G75*
G02*
X130228600Y-117449998I0J-249998D01*
G01*
X130228600Y-117975002D01*
G75*
G02*
X129978602Y-118225000I-249998J0D01*
G01*
G37*
G36*
G01*
X129978602Y-116400000D02*
X129078598Y-116400000D01*
G75*
G02*
X128828600Y-116150002I0J249998D01*
G01*
X128828600Y-115624998D01*
G75*
G02*
X129078598Y-115375000I249998J0D01*
G01*
X129978602Y-115375000D01*
G75*
G02*
X130228600Y-115624998I0J-249998D01*
G01*
X130228600Y-116150002D01*
G75*
G02*
X129978602Y-116400000I-249998J0D01*
G01*
G37*
%TD*%
%TO.C,R42*%
G36*
G01*
X127438602Y-118225000D02*
X126538598Y-118225000D01*
G75*
G02*
X126288600Y-117975002I0J249998D01*
G01*
X126288600Y-117449998D01*
G75*
G02*
X126538598Y-117200000I249998J0D01*
G01*
X127438602Y-117200000D01*
G75*
G02*
X127688600Y-117449998I0J-249998D01*
G01*
X127688600Y-117975002D01*
G75*
G02*
X127438602Y-118225000I-249998J0D01*
G01*
G37*
G36*
G01*
X127438602Y-116400000D02*
X126538598Y-116400000D01*
G75*
G02*
X126288600Y-116150002I0J249998D01*
G01*
X126288600Y-115624998D01*
G75*
G02*
X126538598Y-115375000I249998J0D01*
G01*
X127438602Y-115375000D01*
G75*
G02*
X127688600Y-115624998I0J-249998D01*
G01*
X127688600Y-116150002D01*
G75*
G02*
X127438602Y-116400000I-249998J0D01*
G01*
G37*
%TD*%
%TO.C,R41*%
G36*
G01*
X124898602Y-118225000D02*
X123998598Y-118225000D01*
G75*
G02*
X123748600Y-117975002I0J249998D01*
G01*
X123748600Y-117449998D01*
G75*
G02*
X123998598Y-117200000I249998J0D01*
G01*
X124898602Y-117200000D01*
G75*
G02*
X125148600Y-117449998I0J-249998D01*
G01*
X125148600Y-117975002D01*
G75*
G02*
X124898602Y-118225000I-249998J0D01*
G01*
G37*
G36*
G01*
X124898602Y-116400000D02*
X123998598Y-116400000D01*
G75*
G02*
X123748600Y-116150002I0J249998D01*
G01*
X123748600Y-115624998D01*
G75*
G02*
X123998598Y-115375000I249998J0D01*
G01*
X124898602Y-115375000D01*
G75*
G02*
X125148600Y-115624998I0J-249998D01*
G01*
X125148600Y-116150002D01*
G75*
G02*
X124898602Y-116400000I-249998J0D01*
G01*
G37*
%TD*%
%TO.C,R40*%
G36*
G01*
X122358602Y-118225000D02*
X121458598Y-118225000D01*
G75*
G02*
X121208600Y-117975002I0J249998D01*
G01*
X121208600Y-117449998D01*
G75*
G02*
X121458598Y-117200000I249998J0D01*
G01*
X122358602Y-117200000D01*
G75*
G02*
X122608600Y-117449998I0J-249998D01*
G01*
X122608600Y-117975002D01*
G75*
G02*
X122358602Y-118225000I-249998J0D01*
G01*
G37*
G36*
G01*
X122358602Y-116400000D02*
X121458598Y-116400000D01*
G75*
G02*
X121208600Y-116150002I0J249998D01*
G01*
X121208600Y-115624998D01*
G75*
G02*
X121458598Y-115375000I249998J0D01*
G01*
X122358602Y-115375000D01*
G75*
G02*
X122608600Y-115624998I0J-249998D01*
G01*
X122608600Y-116150002D01*
G75*
G02*
X122358602Y-116400000I-249998J0D01*
G01*
G37*
%TD*%
%TO.C,R39*%
G36*
G01*
X146249998Y-89125000D02*
X147150002Y-89125000D01*
G75*
G02*
X147400000Y-89374998I0J-249998D01*
G01*
X147400000Y-89900002D01*
G75*
G02*
X147150002Y-90150000I-249998J0D01*
G01*
X146249998Y-90150000D01*
G75*
G02*
X146000000Y-89900002I0J249998D01*
G01*
X146000000Y-89374998D01*
G75*
G02*
X146249998Y-89125000I249998J0D01*
G01*
G37*
G36*
G01*
X146249998Y-90950000D02*
X147150002Y-90950000D01*
G75*
G02*
X147400000Y-91199998I0J-249998D01*
G01*
X147400000Y-91725002D01*
G75*
G02*
X147150002Y-91975000I-249998J0D01*
G01*
X146249998Y-91975000D01*
G75*
G02*
X146000000Y-91725002I0J249998D01*
G01*
X146000000Y-91199998D01*
G75*
G02*
X146249998Y-90950000I249998J0D01*
G01*
G37*
%TD*%
%TO.C,R38*%
G36*
G01*
X147150002Y-95475000D02*
X146249998Y-95475000D01*
G75*
G02*
X146000000Y-95225002I0J249998D01*
G01*
X146000000Y-94699998D01*
G75*
G02*
X146249998Y-94450000I249998J0D01*
G01*
X147150002Y-94450000D01*
G75*
G02*
X147400000Y-94699998I0J-249998D01*
G01*
X147400000Y-95225002D01*
G75*
G02*
X147150002Y-95475000I-249998J0D01*
G01*
G37*
G36*
G01*
X147150002Y-93650000D02*
X146249998Y-93650000D01*
G75*
G02*
X146000000Y-93400002I0J249998D01*
G01*
X146000000Y-92874998D01*
G75*
G02*
X146249998Y-92625000I249998J0D01*
G01*
X147150002Y-92625000D01*
G75*
G02*
X147400000Y-92874998I0J-249998D01*
G01*
X147400000Y-93400002D01*
G75*
G02*
X147150002Y-93650000I-249998J0D01*
G01*
G37*
%TD*%
%TO.C,R37*%
G36*
G01*
X147150002Y-98975000D02*
X146249998Y-98975000D01*
G75*
G02*
X146000000Y-98725002I0J249998D01*
G01*
X146000000Y-98199998D01*
G75*
G02*
X146249998Y-97950000I249998J0D01*
G01*
X147150002Y-97950000D01*
G75*
G02*
X147400000Y-98199998I0J-249998D01*
G01*
X147400000Y-98725002D01*
G75*
G02*
X147150002Y-98975000I-249998J0D01*
G01*
G37*
G36*
G01*
X147150002Y-97150000D02*
X146249998Y-97150000D01*
G75*
G02*
X146000000Y-96900002I0J249998D01*
G01*
X146000000Y-96374998D01*
G75*
G02*
X146249998Y-96125000I249998J0D01*
G01*
X147150002Y-96125000D01*
G75*
G02*
X147400000Y-96374998I0J-249998D01*
G01*
X147400000Y-96900002D01*
G75*
G02*
X147150002Y-97150000I-249998J0D01*
G01*
G37*
%TD*%
%TO.C,R36*%
G36*
G01*
X151707918Y-66985500D02*
X152607922Y-66985500D01*
G75*
G02*
X152857920Y-67235498I0J-249998D01*
G01*
X152857920Y-67760502D01*
G75*
G02*
X152607922Y-68010500I-249998J0D01*
G01*
X151707918Y-68010500D01*
G75*
G02*
X151457920Y-67760502I0J249998D01*
G01*
X151457920Y-67235498D01*
G75*
G02*
X151707918Y-66985500I249998J0D01*
G01*
G37*
G36*
G01*
X151707918Y-68810500D02*
X152607922Y-68810500D01*
G75*
G02*
X152857920Y-69060498I0J-249998D01*
G01*
X152857920Y-69585502D01*
G75*
G02*
X152607922Y-69835500I-249998J0D01*
G01*
X151707918Y-69835500D01*
G75*
G02*
X151457920Y-69585502I0J249998D01*
G01*
X151457920Y-69060498D01*
G75*
G02*
X151707918Y-68810500I249998J0D01*
G01*
G37*
%TD*%
%TO.C,R35*%
G36*
G01*
X154330838Y-66985500D02*
X155230842Y-66985500D01*
G75*
G02*
X155480840Y-67235498I0J-249998D01*
G01*
X155480840Y-67760502D01*
G75*
G02*
X155230842Y-68010500I-249998J0D01*
G01*
X154330838Y-68010500D01*
G75*
G02*
X154080840Y-67760502I0J249998D01*
G01*
X154080840Y-67235498D01*
G75*
G02*
X154330838Y-66985500I249998J0D01*
G01*
G37*
G36*
G01*
X154330838Y-68810500D02*
X155230842Y-68810500D01*
G75*
G02*
X155480840Y-69060498I0J-249998D01*
G01*
X155480840Y-69585502D01*
G75*
G02*
X155230842Y-69835500I-249998J0D01*
G01*
X154330838Y-69835500D01*
G75*
G02*
X154080840Y-69585502I0J249998D01*
G01*
X154080840Y-69060498D01*
G75*
G02*
X154330838Y-68810500I249998J0D01*
G01*
G37*
%TD*%
%TO.C,R34*%
G36*
G01*
X156953758Y-66985500D02*
X157853762Y-66985500D01*
G75*
G02*
X158103760Y-67235498I0J-249998D01*
G01*
X158103760Y-67760502D01*
G75*
G02*
X157853762Y-68010500I-249998J0D01*
G01*
X156953758Y-68010500D01*
G75*
G02*
X156703760Y-67760502I0J249998D01*
G01*
X156703760Y-67235498D01*
G75*
G02*
X156953758Y-66985500I249998J0D01*
G01*
G37*
G36*
G01*
X156953758Y-68810500D02*
X157853762Y-68810500D01*
G75*
G02*
X158103760Y-69060498I0J-249998D01*
G01*
X158103760Y-69585502D01*
G75*
G02*
X157853762Y-69835500I-249998J0D01*
G01*
X156953758Y-69835500D01*
G75*
G02*
X156703760Y-69585502I0J249998D01*
G01*
X156703760Y-69060498D01*
G75*
G02*
X156953758Y-68810500I249998J0D01*
G01*
G37*
%TD*%
%TO.C,R33*%
G36*
G01*
X159576678Y-66985500D02*
X160476682Y-66985500D01*
G75*
G02*
X160726680Y-67235498I0J-249998D01*
G01*
X160726680Y-67760502D01*
G75*
G02*
X160476682Y-68010500I-249998J0D01*
G01*
X159576678Y-68010500D01*
G75*
G02*
X159326680Y-67760502I0J249998D01*
G01*
X159326680Y-67235498D01*
G75*
G02*
X159576678Y-66985500I249998J0D01*
G01*
G37*
G36*
G01*
X159576678Y-68810500D02*
X160476682Y-68810500D01*
G75*
G02*
X160726680Y-69060498I0J-249998D01*
G01*
X160726680Y-69585502D01*
G75*
G02*
X160476682Y-69835500I-249998J0D01*
G01*
X159576678Y-69835500D01*
G75*
G02*
X159326680Y-69585502I0J249998D01*
G01*
X159326680Y-69060498D01*
G75*
G02*
X159576678Y-68810500I249998J0D01*
G01*
G37*
%TD*%
%TO.C,R32*%
G36*
G01*
X128228158Y-67137900D02*
X129128162Y-67137900D01*
G75*
G02*
X129378160Y-67387898I0J-249998D01*
G01*
X129378160Y-67912902D01*
G75*
G02*
X129128162Y-68162900I-249998J0D01*
G01*
X128228158Y-68162900D01*
G75*
G02*
X127978160Y-67912902I0J249998D01*
G01*
X127978160Y-67387898D01*
G75*
G02*
X128228158Y-67137900I249998J0D01*
G01*
G37*
G36*
G01*
X128228158Y-68962900D02*
X129128162Y-68962900D01*
G75*
G02*
X129378160Y-69212898I0J-249998D01*
G01*
X129378160Y-69737902D01*
G75*
G02*
X129128162Y-69987900I-249998J0D01*
G01*
X128228158Y-69987900D01*
G75*
G02*
X127978160Y-69737902I0J249998D01*
G01*
X127978160Y-69212898D01*
G75*
G02*
X128228158Y-68962900I249998J0D01*
G01*
G37*
%TD*%
%TO.C,R31*%
G36*
G01*
X130866318Y-67137900D02*
X131766322Y-67137900D01*
G75*
G02*
X132016320Y-67387898I0J-249998D01*
G01*
X132016320Y-67912902D01*
G75*
G02*
X131766322Y-68162900I-249998J0D01*
G01*
X130866318Y-68162900D01*
G75*
G02*
X130616320Y-67912902I0J249998D01*
G01*
X130616320Y-67387898D01*
G75*
G02*
X130866318Y-67137900I249998J0D01*
G01*
G37*
G36*
G01*
X130866318Y-68962900D02*
X131766322Y-68962900D01*
G75*
G02*
X132016320Y-69212898I0J-249998D01*
G01*
X132016320Y-69737902D01*
G75*
G02*
X131766322Y-69987900I-249998J0D01*
G01*
X130866318Y-69987900D01*
G75*
G02*
X130616320Y-69737902I0J249998D01*
G01*
X130616320Y-69212898D01*
G75*
G02*
X130866318Y-68962900I249998J0D01*
G01*
G37*
%TD*%
%TO.C,R30*%
G36*
G01*
X133504478Y-67137900D02*
X134404482Y-67137900D01*
G75*
G02*
X134654480Y-67387898I0J-249998D01*
G01*
X134654480Y-67912902D01*
G75*
G02*
X134404482Y-68162900I-249998J0D01*
G01*
X133504478Y-68162900D01*
G75*
G02*
X133254480Y-67912902I0J249998D01*
G01*
X133254480Y-67387898D01*
G75*
G02*
X133504478Y-67137900I249998J0D01*
G01*
G37*
G36*
G01*
X133504478Y-68962900D02*
X134404482Y-68962900D01*
G75*
G02*
X134654480Y-69212898I0J-249998D01*
G01*
X134654480Y-69737902D01*
G75*
G02*
X134404482Y-69987900I-249998J0D01*
G01*
X133504478Y-69987900D01*
G75*
G02*
X133254480Y-69737902I0J249998D01*
G01*
X133254480Y-69212898D01*
G75*
G02*
X133504478Y-68962900I249998J0D01*
G01*
G37*
%TD*%
%TO.C,R29*%
G36*
G01*
X136142638Y-67137900D02*
X137042642Y-67137900D01*
G75*
G02*
X137292640Y-67387898I0J-249998D01*
G01*
X137292640Y-67912902D01*
G75*
G02*
X137042642Y-68162900I-249998J0D01*
G01*
X136142638Y-68162900D01*
G75*
G02*
X135892640Y-67912902I0J249998D01*
G01*
X135892640Y-67387898D01*
G75*
G02*
X136142638Y-67137900I249998J0D01*
G01*
G37*
G36*
G01*
X136142638Y-68962900D02*
X137042642Y-68962900D01*
G75*
G02*
X137292640Y-69212898I0J-249998D01*
G01*
X137292640Y-69737902D01*
G75*
G02*
X137042642Y-69987900I-249998J0D01*
G01*
X136142638Y-69987900D01*
G75*
G02*
X135892640Y-69737902I0J249998D01*
G01*
X135892640Y-69212898D01*
G75*
G02*
X136142638Y-68962900I249998J0D01*
G01*
G37*
%TD*%
%TO.C,R28*%
G36*
G01*
X104809358Y-67036300D02*
X105709362Y-67036300D01*
G75*
G02*
X105959360Y-67286298I0J-249998D01*
G01*
X105959360Y-67811302D01*
G75*
G02*
X105709362Y-68061300I-249998J0D01*
G01*
X104809358Y-68061300D01*
G75*
G02*
X104559360Y-67811302I0J249998D01*
G01*
X104559360Y-67286298D01*
G75*
G02*
X104809358Y-67036300I249998J0D01*
G01*
G37*
G36*
G01*
X104809358Y-68861300D02*
X105709362Y-68861300D01*
G75*
G02*
X105959360Y-69111298I0J-249998D01*
G01*
X105959360Y-69636302D01*
G75*
G02*
X105709362Y-69886300I-249998J0D01*
G01*
X104809358Y-69886300D01*
G75*
G02*
X104559360Y-69636302I0J249998D01*
G01*
X104559360Y-69111298D01*
G75*
G02*
X104809358Y-68861300I249998J0D01*
G01*
G37*
%TD*%
%TO.C,R27*%
G36*
G01*
X107447518Y-67036300D02*
X108347522Y-67036300D01*
G75*
G02*
X108597520Y-67286298I0J-249998D01*
G01*
X108597520Y-67811302D01*
G75*
G02*
X108347522Y-68061300I-249998J0D01*
G01*
X107447518Y-68061300D01*
G75*
G02*
X107197520Y-67811302I0J249998D01*
G01*
X107197520Y-67286298D01*
G75*
G02*
X107447518Y-67036300I249998J0D01*
G01*
G37*
G36*
G01*
X107447518Y-68861300D02*
X108347522Y-68861300D01*
G75*
G02*
X108597520Y-69111298I0J-249998D01*
G01*
X108597520Y-69636302D01*
G75*
G02*
X108347522Y-69886300I-249998J0D01*
G01*
X107447518Y-69886300D01*
G75*
G02*
X107197520Y-69636302I0J249998D01*
G01*
X107197520Y-69111298D01*
G75*
G02*
X107447518Y-68861300I249998J0D01*
G01*
G37*
%TD*%
%TO.C,R26*%
G36*
G01*
X110085678Y-67036300D02*
X110985682Y-67036300D01*
G75*
G02*
X111235680Y-67286298I0J-249998D01*
G01*
X111235680Y-67811302D01*
G75*
G02*
X110985682Y-68061300I-249998J0D01*
G01*
X110085678Y-68061300D01*
G75*
G02*
X109835680Y-67811302I0J249998D01*
G01*
X109835680Y-67286298D01*
G75*
G02*
X110085678Y-67036300I249998J0D01*
G01*
G37*
G36*
G01*
X110085678Y-68861300D02*
X110985682Y-68861300D01*
G75*
G02*
X111235680Y-69111298I0J-249998D01*
G01*
X111235680Y-69636302D01*
G75*
G02*
X110985682Y-69886300I-249998J0D01*
G01*
X110085678Y-69886300D01*
G75*
G02*
X109835680Y-69636302I0J249998D01*
G01*
X109835680Y-69111298D01*
G75*
G02*
X110085678Y-68861300I249998J0D01*
G01*
G37*
%TD*%
%TO.C,R25*%
G36*
G01*
X112723838Y-67036300D02*
X113623842Y-67036300D01*
G75*
G02*
X113873840Y-67286298I0J-249998D01*
G01*
X113873840Y-67811302D01*
G75*
G02*
X113623842Y-68061300I-249998J0D01*
G01*
X112723838Y-68061300D01*
G75*
G02*
X112473840Y-67811302I0J249998D01*
G01*
X112473840Y-67286298D01*
G75*
G02*
X112723838Y-67036300I249998J0D01*
G01*
G37*
G36*
G01*
X112723838Y-68861300D02*
X113623842Y-68861300D01*
G75*
G02*
X113873840Y-69111298I0J-249998D01*
G01*
X113873840Y-69636302D01*
G75*
G02*
X113623842Y-69886300I-249998J0D01*
G01*
X112723838Y-69886300D01*
G75*
G02*
X112473840Y-69636302I0J249998D01*
G01*
X112473840Y-69111298D01*
G75*
G02*
X112723838Y-68861300I249998J0D01*
G01*
G37*
%TD*%
%TO.C,R24*%
G36*
G01*
X81380398Y-67036300D02*
X82280402Y-67036300D01*
G75*
G02*
X82530400Y-67286298I0J-249998D01*
G01*
X82530400Y-67811302D01*
G75*
G02*
X82280402Y-68061300I-249998J0D01*
G01*
X81380398Y-68061300D01*
G75*
G02*
X81130400Y-67811302I0J249998D01*
G01*
X81130400Y-67286298D01*
G75*
G02*
X81380398Y-67036300I249998J0D01*
G01*
G37*
G36*
G01*
X81380398Y-68861300D02*
X82280402Y-68861300D01*
G75*
G02*
X82530400Y-69111298I0J-249998D01*
G01*
X82530400Y-69636302D01*
G75*
G02*
X82280402Y-69886300I-249998J0D01*
G01*
X81380398Y-69886300D01*
G75*
G02*
X81130400Y-69636302I0J249998D01*
G01*
X81130400Y-69111298D01*
G75*
G02*
X81380398Y-68861300I249998J0D01*
G01*
G37*
%TD*%
%TO.C,R23*%
G36*
G01*
X84008398Y-67036300D02*
X84908402Y-67036300D01*
G75*
G02*
X85158400Y-67286298I0J-249998D01*
G01*
X85158400Y-67811302D01*
G75*
G02*
X84908402Y-68061300I-249998J0D01*
G01*
X84008398Y-68061300D01*
G75*
G02*
X83758400Y-67811302I0J249998D01*
G01*
X83758400Y-67286298D01*
G75*
G02*
X84008398Y-67036300I249998J0D01*
G01*
G37*
G36*
G01*
X84008398Y-68861300D02*
X84908402Y-68861300D01*
G75*
G02*
X85158400Y-69111298I0J-249998D01*
G01*
X85158400Y-69636302D01*
G75*
G02*
X84908402Y-69886300I-249998J0D01*
G01*
X84008398Y-69886300D01*
G75*
G02*
X83758400Y-69636302I0J249998D01*
G01*
X83758400Y-69111298D01*
G75*
G02*
X84008398Y-68861300I249998J0D01*
G01*
G37*
%TD*%
%TO.C,R22*%
G36*
G01*
X86636398Y-67036300D02*
X87536402Y-67036300D01*
G75*
G02*
X87786400Y-67286298I0J-249998D01*
G01*
X87786400Y-67811302D01*
G75*
G02*
X87536402Y-68061300I-249998J0D01*
G01*
X86636398Y-68061300D01*
G75*
G02*
X86386400Y-67811302I0J249998D01*
G01*
X86386400Y-67286298D01*
G75*
G02*
X86636398Y-67036300I249998J0D01*
G01*
G37*
G36*
G01*
X86636398Y-68861300D02*
X87536402Y-68861300D01*
G75*
G02*
X87786400Y-69111298I0J-249998D01*
G01*
X87786400Y-69636302D01*
G75*
G02*
X87536402Y-69886300I-249998J0D01*
G01*
X86636398Y-69886300D01*
G75*
G02*
X86386400Y-69636302I0J249998D01*
G01*
X86386400Y-69111298D01*
G75*
G02*
X86636398Y-68861300I249998J0D01*
G01*
G37*
%TD*%
%TO.C,R21*%
G36*
G01*
X89264398Y-67036300D02*
X90164402Y-67036300D01*
G75*
G02*
X90414400Y-67286298I0J-249998D01*
G01*
X90414400Y-67811302D01*
G75*
G02*
X90164402Y-68061300I-249998J0D01*
G01*
X89264398Y-68061300D01*
G75*
G02*
X89014400Y-67811302I0J249998D01*
G01*
X89014400Y-67286298D01*
G75*
G02*
X89264398Y-67036300I249998J0D01*
G01*
G37*
G36*
G01*
X89264398Y-68861300D02*
X90164402Y-68861300D01*
G75*
G02*
X90414400Y-69111298I0J-249998D01*
G01*
X90414400Y-69636302D01*
G75*
G02*
X90164402Y-69886300I-249998J0D01*
G01*
X89264398Y-69886300D01*
G75*
G02*
X89014400Y-69636302I0J249998D01*
G01*
X89014400Y-69111298D01*
G75*
G02*
X89264398Y-68861300I249998J0D01*
G01*
G37*
%TD*%
%TO.C,R20*%
G36*
G01*
X138450002Y-77425000D02*
X137549998Y-77425000D01*
G75*
G02*
X137300000Y-77175002I0J249998D01*
G01*
X137300000Y-76649998D01*
G75*
G02*
X137549998Y-76400000I249998J0D01*
G01*
X138450002Y-76400000D01*
G75*
G02*
X138700000Y-76649998I0J-249998D01*
G01*
X138700000Y-77175002D01*
G75*
G02*
X138450002Y-77425000I-249998J0D01*
G01*
G37*
G36*
G01*
X138450002Y-75600000D02*
X137549998Y-75600000D01*
G75*
G02*
X137300000Y-75350002I0J249998D01*
G01*
X137300000Y-74824998D01*
G75*
G02*
X137549998Y-74575000I249998J0D01*
G01*
X138450002Y-74575000D01*
G75*
G02*
X138700000Y-74824998I0J-249998D01*
G01*
X138700000Y-75350002D01*
G75*
G02*
X138450002Y-75600000I-249998J0D01*
G01*
G37*
%TD*%
%TO.C,R19*%
G36*
G01*
X134650002Y-77425000D02*
X133749998Y-77425000D01*
G75*
G02*
X133500000Y-77175002I0J249998D01*
G01*
X133500000Y-76649998D01*
G75*
G02*
X133749998Y-76400000I249998J0D01*
G01*
X134650002Y-76400000D01*
G75*
G02*
X134900000Y-76649998I0J-249998D01*
G01*
X134900000Y-77175002D01*
G75*
G02*
X134650002Y-77425000I-249998J0D01*
G01*
G37*
G36*
G01*
X134650002Y-75600000D02*
X133749998Y-75600000D01*
G75*
G02*
X133500000Y-75350002I0J249998D01*
G01*
X133500000Y-74824998D01*
G75*
G02*
X133749998Y-74575000I249998J0D01*
G01*
X134650002Y-74575000D01*
G75*
G02*
X134900000Y-74824998I0J-249998D01*
G01*
X134900000Y-75350002D01*
G75*
G02*
X134650002Y-75600000I-249998J0D01*
G01*
G37*
%TD*%
%TO.C,R18*%
G36*
G01*
X135649998Y-74575000D02*
X136550002Y-74575000D01*
G75*
G02*
X136800000Y-74824998I0J-249998D01*
G01*
X136800000Y-75350002D01*
G75*
G02*
X136550002Y-75600000I-249998J0D01*
G01*
X135649998Y-75600000D01*
G75*
G02*
X135400000Y-75350002I0J249998D01*
G01*
X135400000Y-74824998D01*
G75*
G02*
X135649998Y-74575000I249998J0D01*
G01*
G37*
G36*
G01*
X135649998Y-76400000D02*
X136550002Y-76400000D01*
G75*
G02*
X136800000Y-76649998I0J-249998D01*
G01*
X136800000Y-77175002D01*
G75*
G02*
X136550002Y-77425000I-249998J0D01*
G01*
X135649998Y-77425000D01*
G75*
G02*
X135400000Y-77175002I0J249998D01*
G01*
X135400000Y-76649998D01*
G75*
G02*
X135649998Y-76400000I249998J0D01*
G01*
G37*
%TD*%
%TO.C,R17*%
G36*
G01*
X140350002Y-77425000D02*
X139449998Y-77425000D01*
G75*
G02*
X139200000Y-77175002I0J249998D01*
G01*
X139200000Y-76649998D01*
G75*
G02*
X139449998Y-76400000I249998J0D01*
G01*
X140350002Y-76400000D01*
G75*
G02*
X140600000Y-76649998I0J-249998D01*
G01*
X140600000Y-77175002D01*
G75*
G02*
X140350002Y-77425000I-249998J0D01*
G01*
G37*
G36*
G01*
X140350002Y-75600000D02*
X139449998Y-75600000D01*
G75*
G02*
X139200000Y-75350002I0J249998D01*
G01*
X139200000Y-74824998D01*
G75*
G02*
X139449998Y-74575000I249998J0D01*
G01*
X140350002Y-74575000D01*
G75*
G02*
X140600000Y-74824998I0J-249998D01*
G01*
X140600000Y-75350002D01*
G75*
G02*
X140350002Y-75600000I-249998J0D01*
G01*
G37*
%TD*%
%TO.C,R16*%
G36*
G01*
X75750000Y-72825000D02*
X75750000Y-73375000D01*
G75*
G02*
X75550000Y-73575000I-200000J0D01*
G01*
X75150000Y-73575000D01*
G75*
G02*
X74950000Y-73375000I0J200000D01*
G01*
X74950000Y-72825000D01*
G75*
G02*
X75150000Y-72625000I200000J0D01*
G01*
X75550000Y-72625000D01*
G75*
G02*
X75750000Y-72825000I0J-200000D01*
G01*
G37*
G36*
G01*
X74100000Y-72825000D02*
X74100000Y-73375000D01*
G75*
G02*
X73900000Y-73575000I-200000J0D01*
G01*
X73500000Y-73575000D01*
G75*
G02*
X73300000Y-73375000I0J200000D01*
G01*
X73300000Y-72825000D01*
G75*
G02*
X73500000Y-72625000I200000J0D01*
G01*
X73900000Y-72625000D01*
G75*
G02*
X74100000Y-72825000I0J-200000D01*
G01*
G37*
%TD*%
%TO.C,R15*%
G36*
G01*
X114075000Y-113675000D02*
X114075000Y-113125000D01*
G75*
G02*
X114275000Y-112925000I200000J0D01*
G01*
X114675000Y-112925000D01*
G75*
G02*
X114875000Y-113125000I0J-200000D01*
G01*
X114875000Y-113675000D01*
G75*
G02*
X114675000Y-113875000I-200000J0D01*
G01*
X114275000Y-113875000D01*
G75*
G02*
X114075000Y-113675000I0J200000D01*
G01*
G37*
G36*
G01*
X115725000Y-113675000D02*
X115725000Y-113125000D01*
G75*
G02*
X115925000Y-112925000I200000J0D01*
G01*
X116325000Y-112925000D01*
G75*
G02*
X116525000Y-113125000I0J-200000D01*
G01*
X116525000Y-113675000D01*
G75*
G02*
X116325000Y-113875000I-200000J0D01*
G01*
X115925000Y-113875000D01*
G75*
G02*
X115725000Y-113675000I0J200000D01*
G01*
G37*
%TD*%
%TO.C,R14*%
G36*
G01*
X114075000Y-112075000D02*
X114075000Y-111525000D01*
G75*
G02*
X114275000Y-111325000I200000J0D01*
G01*
X114675000Y-111325000D01*
G75*
G02*
X114875000Y-111525000I0J-200000D01*
G01*
X114875000Y-112075000D01*
G75*
G02*
X114675000Y-112275000I-200000J0D01*
G01*
X114275000Y-112275000D01*
G75*
G02*
X114075000Y-112075000I0J200000D01*
G01*
G37*
G36*
G01*
X115725000Y-112075000D02*
X115725000Y-111525000D01*
G75*
G02*
X115925000Y-111325000I200000J0D01*
G01*
X116325000Y-111325000D01*
G75*
G02*
X116525000Y-111525000I0J-200000D01*
G01*
X116525000Y-112075000D01*
G75*
G02*
X116325000Y-112275000I-200000J0D01*
G01*
X115925000Y-112275000D01*
G75*
G02*
X115725000Y-112075000I0J200000D01*
G01*
G37*
%TD*%
%TO.C,R13*%
G36*
G01*
X114075000Y-110475000D02*
X114075000Y-109925000D01*
G75*
G02*
X114275000Y-109725000I200000J0D01*
G01*
X114675000Y-109725000D01*
G75*
G02*
X114875000Y-109925000I0J-200000D01*
G01*
X114875000Y-110475000D01*
G75*
G02*
X114675000Y-110675000I-200000J0D01*
G01*
X114275000Y-110675000D01*
G75*
G02*
X114075000Y-110475000I0J200000D01*
G01*
G37*
G36*
G01*
X115725000Y-110475000D02*
X115725000Y-109925000D01*
G75*
G02*
X115925000Y-109725000I200000J0D01*
G01*
X116325000Y-109725000D01*
G75*
G02*
X116525000Y-109925000I0J-200000D01*
G01*
X116525000Y-110475000D01*
G75*
G02*
X116325000Y-110675000I-200000J0D01*
G01*
X115925000Y-110675000D01*
G75*
G02*
X115725000Y-110475000I0J200000D01*
G01*
G37*
%TD*%
%TO.C,R12*%
G36*
G01*
X109425000Y-93275000D02*
X109425000Y-93825000D01*
G75*
G02*
X109225000Y-94025000I-200000J0D01*
G01*
X108825000Y-94025000D01*
G75*
G02*
X108625000Y-93825000I0J200000D01*
G01*
X108625000Y-93275000D01*
G75*
G02*
X108825000Y-93075000I200000J0D01*
G01*
X109225000Y-93075000D01*
G75*
G02*
X109425000Y-93275000I0J-200000D01*
G01*
G37*
G36*
G01*
X107775000Y-93275000D02*
X107775000Y-93825000D01*
G75*
G02*
X107575000Y-94025000I-200000J0D01*
G01*
X107175000Y-94025000D01*
G75*
G02*
X106975000Y-93825000I0J200000D01*
G01*
X106975000Y-93275000D01*
G75*
G02*
X107175000Y-93075000I200000J0D01*
G01*
X107575000Y-93075000D01*
G75*
G02*
X107775000Y-93275000I0J-200000D01*
G01*
G37*
%TD*%
%TO.C,R11*%
G36*
G01*
X162019600Y-67246200D02*
X162569600Y-67246200D01*
G75*
G02*
X162769600Y-67446200I0J-200000D01*
G01*
X162769600Y-67846200D01*
G75*
G02*
X162569600Y-68046200I-200000J0D01*
G01*
X162019600Y-68046200D01*
G75*
G02*
X161819600Y-67846200I0J200000D01*
G01*
X161819600Y-67446200D01*
G75*
G02*
X162019600Y-67246200I200000J0D01*
G01*
G37*
G36*
G01*
X162019600Y-68896200D02*
X162569600Y-68896200D01*
G75*
G02*
X162769600Y-69096200I0J-200000D01*
G01*
X162769600Y-69496200D01*
G75*
G02*
X162569600Y-69696200I-200000J0D01*
G01*
X162019600Y-69696200D01*
G75*
G02*
X161819600Y-69496200I0J200000D01*
G01*
X161819600Y-69096200D01*
G75*
G02*
X162019600Y-68896200I200000J0D01*
G01*
G37*
%TD*%
%TO.C,R10*%
G36*
G01*
X149599000Y-67170000D02*
X150149000Y-67170000D01*
G75*
G02*
X150349000Y-67370000I0J-200000D01*
G01*
X150349000Y-67770000D01*
G75*
G02*
X150149000Y-67970000I-200000J0D01*
G01*
X149599000Y-67970000D01*
G75*
G02*
X149399000Y-67770000I0J200000D01*
G01*
X149399000Y-67370000D01*
G75*
G02*
X149599000Y-67170000I200000J0D01*
G01*
G37*
G36*
G01*
X149599000Y-68820000D02*
X150149000Y-68820000D01*
G75*
G02*
X150349000Y-69020000I0J-200000D01*
G01*
X150349000Y-69420000D01*
G75*
G02*
X150149000Y-69620000I-200000J0D01*
G01*
X149599000Y-69620000D01*
G75*
G02*
X149399000Y-69420000I0J200000D01*
G01*
X149399000Y-69020000D01*
G75*
G02*
X149599000Y-68820000I200000J0D01*
G01*
G37*
%TD*%
%TO.C,R9*%
G36*
G01*
X138600800Y-67373200D02*
X139150800Y-67373200D01*
G75*
G02*
X139350800Y-67573200I0J-200000D01*
G01*
X139350800Y-67973200D01*
G75*
G02*
X139150800Y-68173200I-200000J0D01*
G01*
X138600800Y-68173200D01*
G75*
G02*
X138400800Y-67973200I0J200000D01*
G01*
X138400800Y-67573200D01*
G75*
G02*
X138600800Y-67373200I200000J0D01*
G01*
G37*
G36*
G01*
X138600800Y-69023200D02*
X139150800Y-69023200D01*
G75*
G02*
X139350800Y-69223200I0J-200000D01*
G01*
X139350800Y-69623200D01*
G75*
G02*
X139150800Y-69823200I-200000J0D01*
G01*
X138600800Y-69823200D01*
G75*
G02*
X138400800Y-69623200I0J200000D01*
G01*
X138400800Y-69223200D01*
G75*
G02*
X138600800Y-69023200I200000J0D01*
G01*
G37*
%TD*%
%TO.C,R8*%
G36*
G01*
X126180200Y-67373200D02*
X126730200Y-67373200D01*
G75*
G02*
X126930200Y-67573200I0J-200000D01*
G01*
X126930200Y-67973200D01*
G75*
G02*
X126730200Y-68173200I-200000J0D01*
G01*
X126180200Y-68173200D01*
G75*
G02*
X125980200Y-67973200I0J200000D01*
G01*
X125980200Y-67573200D01*
G75*
G02*
X126180200Y-67373200I200000J0D01*
G01*
G37*
G36*
G01*
X126180200Y-69023200D02*
X126730200Y-69023200D01*
G75*
G02*
X126930200Y-69223200I0J-200000D01*
G01*
X126930200Y-69623200D01*
G75*
G02*
X126730200Y-69823200I-200000J0D01*
G01*
X126180200Y-69823200D01*
G75*
G02*
X125980200Y-69623200I0J200000D01*
G01*
X125980200Y-69223200D01*
G75*
G02*
X126180200Y-69023200I200000J0D01*
G01*
G37*
%TD*%
%TO.C,R7*%
G36*
G01*
X102566200Y-67238200D02*
X103116200Y-67238200D01*
G75*
G02*
X103316200Y-67438200I0J-200000D01*
G01*
X103316200Y-67838200D01*
G75*
G02*
X103116200Y-68038200I-200000J0D01*
G01*
X102566200Y-68038200D01*
G75*
G02*
X102366200Y-67838200I0J200000D01*
G01*
X102366200Y-67438200D01*
G75*
G02*
X102566200Y-67238200I200000J0D01*
G01*
G37*
G36*
G01*
X102566200Y-68888200D02*
X103116200Y-68888200D01*
G75*
G02*
X103316200Y-69088200I0J-200000D01*
G01*
X103316200Y-69488200D01*
G75*
G02*
X103116200Y-69688200I-200000J0D01*
G01*
X102566200Y-69688200D01*
G75*
G02*
X102366200Y-69488200I0J200000D01*
G01*
X102366200Y-69088200D01*
G75*
G02*
X102566200Y-68888200I200000J0D01*
G01*
G37*
%TD*%
%TO.C,R6*%
G36*
G01*
X115317000Y-67238200D02*
X115867000Y-67238200D01*
G75*
G02*
X116067000Y-67438200I0J-200000D01*
G01*
X116067000Y-67838200D01*
G75*
G02*
X115867000Y-68038200I-200000J0D01*
G01*
X115317000Y-68038200D01*
G75*
G02*
X115117000Y-67838200I0J200000D01*
G01*
X115117000Y-67438200D01*
G75*
G02*
X115317000Y-67238200I200000J0D01*
G01*
G37*
G36*
G01*
X115317000Y-68888200D02*
X115867000Y-68888200D01*
G75*
G02*
X116067000Y-69088200I0J-200000D01*
G01*
X116067000Y-69488200D01*
G75*
G02*
X115867000Y-69688200I-200000J0D01*
G01*
X115317000Y-69688200D01*
G75*
G02*
X115117000Y-69488200I0J200000D01*
G01*
X115117000Y-69088200D01*
G75*
G02*
X115317000Y-68888200I200000J0D01*
G01*
G37*
%TD*%
%TO.C,R5*%
G36*
G01*
X91763200Y-67238200D02*
X92313200Y-67238200D01*
G75*
G02*
X92513200Y-67438200I0J-200000D01*
G01*
X92513200Y-67838200D01*
G75*
G02*
X92313200Y-68038200I-200000J0D01*
G01*
X91763200Y-68038200D01*
G75*
G02*
X91563200Y-67838200I0J200000D01*
G01*
X91563200Y-67438200D01*
G75*
G02*
X91763200Y-67238200I200000J0D01*
G01*
G37*
G36*
G01*
X91763200Y-68888200D02*
X92313200Y-68888200D01*
G75*
G02*
X92513200Y-69088200I0J-200000D01*
G01*
X92513200Y-69488200D01*
G75*
G02*
X92313200Y-69688200I-200000J0D01*
G01*
X91763200Y-69688200D01*
G75*
G02*
X91563200Y-69488200I0J200000D01*
G01*
X91563200Y-69088200D01*
G75*
G02*
X91763200Y-68888200I200000J0D01*
G01*
G37*
%TD*%
%TO.C,R4*%
G36*
G01*
X79317200Y-67238200D02*
X79867200Y-67238200D01*
G75*
G02*
X80067200Y-67438200I0J-200000D01*
G01*
X80067200Y-67838200D01*
G75*
G02*
X79867200Y-68038200I-200000J0D01*
G01*
X79317200Y-68038200D01*
G75*
G02*
X79117200Y-67838200I0J200000D01*
G01*
X79117200Y-67438200D01*
G75*
G02*
X79317200Y-67238200I200000J0D01*
G01*
G37*
G36*
G01*
X79317200Y-68888200D02*
X79867200Y-68888200D01*
G75*
G02*
X80067200Y-69088200I0J-200000D01*
G01*
X80067200Y-69488200D01*
G75*
G02*
X79867200Y-69688200I-200000J0D01*
G01*
X79317200Y-69688200D01*
G75*
G02*
X79117200Y-69488200I0J200000D01*
G01*
X79117200Y-69088200D01*
G75*
G02*
X79317200Y-68888200I200000J0D01*
G01*
G37*
%TD*%
%TO.C,R3*%
G36*
G01*
X106925000Y-99400000D02*
X107475000Y-99400000D01*
G75*
G02*
X107675000Y-99600000I0J-200000D01*
G01*
X107675000Y-100000000D01*
G75*
G02*
X107475000Y-100200000I-200000J0D01*
G01*
X106925000Y-100200000D01*
G75*
G02*
X106725000Y-100000000I0J200000D01*
G01*
X106725000Y-99600000D01*
G75*
G02*
X106925000Y-99400000I200000J0D01*
G01*
G37*
G36*
G01*
X106925000Y-101050000D02*
X107475000Y-101050000D01*
G75*
G02*
X107675000Y-101250000I0J-200000D01*
G01*
X107675000Y-101650000D01*
G75*
G02*
X107475000Y-101850000I-200000J0D01*
G01*
X106925000Y-101850000D01*
G75*
G02*
X106725000Y-101650000I0J200000D01*
G01*
X106725000Y-101250000D01*
G75*
G02*
X106925000Y-101050000I200000J0D01*
G01*
G37*
%TD*%
%TO.C,R2*%
G36*
G01*
X84875000Y-81675000D02*
X84325000Y-81675000D01*
G75*
G02*
X84125000Y-81475000I0J200000D01*
G01*
X84125000Y-81075000D01*
G75*
G02*
X84325000Y-80875000I200000J0D01*
G01*
X84875000Y-80875000D01*
G75*
G02*
X85075000Y-81075000I0J-200000D01*
G01*
X85075000Y-81475000D01*
G75*
G02*
X84875000Y-81675000I-200000J0D01*
G01*
G37*
G36*
G01*
X84875000Y-80025000D02*
X84325000Y-80025000D01*
G75*
G02*
X84125000Y-79825000I0J200000D01*
G01*
X84125000Y-79425000D01*
G75*
G02*
X84325000Y-79225000I200000J0D01*
G01*
X84875000Y-79225000D01*
G75*
G02*
X85075000Y-79425000I0J-200000D01*
G01*
X85075000Y-79825000D01*
G75*
G02*
X84875000Y-80025000I-200000J0D01*
G01*
G37*
%TD*%
%TO.C,R1*%
G36*
G01*
X79775000Y-112875000D02*
X79775000Y-112325000D01*
G75*
G02*
X79975000Y-112125000I200000J0D01*
G01*
X80375000Y-112125000D01*
G75*
G02*
X80575000Y-112325000I0J-200000D01*
G01*
X80575000Y-112875000D01*
G75*
G02*
X80375000Y-113075000I-200000J0D01*
G01*
X79975000Y-113075000D01*
G75*
G02*
X79775000Y-112875000I0J200000D01*
G01*
G37*
G36*
G01*
X81425000Y-112875000D02*
X81425000Y-112325000D01*
G75*
G02*
X81625000Y-112125000I200000J0D01*
G01*
X82025000Y-112125000D01*
G75*
G02*
X82225000Y-112325000I0J-200000D01*
G01*
X82225000Y-112875000D01*
G75*
G02*
X82025000Y-113075000I-200000J0D01*
G01*
X81625000Y-113075000D01*
G75*
G02*
X81425000Y-112875000I0J200000D01*
G01*
G37*
%TD*%
D14*
%TO.C,J12*%
X148130000Y-84916720D03*
%TD*%
D33*
%TO.C,J4*%
X142860000Y-77116000D03*
X142860000Y-75084000D03*
X147940000Y-76100000D03*
D34*
X146670000Y-75465000D03*
X146670000Y-76735000D03*
X145400000Y-75465000D03*
X145400000Y-76735000D03*
X144130000Y-75465000D03*
X144130000Y-76735000D03*
%TD*%
D10*
%TO.C,J3*%
X171700000Y-73800000D03*
D11*
X171700000Y-68720000D03*
%TD*%
D10*
%TO.C,J1*%
X69450000Y-108550000D03*
D11*
X69450000Y-113630000D03*
%TD*%
D35*
%TO.C,HSE1*%
X103825000Y-91150000D03*
X103825000Y-93450000D03*
X105575000Y-93450000D03*
X105575000Y-91150000D03*
%TD*%
%TO.C,FB2*%
G36*
G01*
X103225000Y-101306250D02*
X103225000Y-100793750D01*
G75*
G02*
X103443750Y-100575000I218750J0D01*
G01*
X103881250Y-100575000D01*
G75*
G02*
X104100000Y-100793750I0J-218750D01*
G01*
X104100000Y-101306250D01*
G75*
G02*
X103881250Y-101525000I-218750J0D01*
G01*
X103443750Y-101525000D01*
G75*
G02*
X103225000Y-101306250I0J218750D01*
G01*
G37*
G36*
G01*
X104800000Y-101306250D02*
X104800000Y-100793750D01*
G75*
G02*
X105018750Y-100575000I218750J0D01*
G01*
X105456250Y-100575000D01*
G75*
G02*
X105675000Y-100793750I0J-218750D01*
G01*
X105675000Y-101306250D01*
G75*
G02*
X105456250Y-101525000I-218750J0D01*
G01*
X105018750Y-101525000D01*
G75*
G02*
X104800000Y-101306250I0J218750D01*
G01*
G37*
%TD*%
%TO.C,FB1*%
G36*
G01*
X86943750Y-103650000D02*
X87456250Y-103650000D01*
G75*
G02*
X87675000Y-103868750I0J-218750D01*
G01*
X87675000Y-104306250D01*
G75*
G02*
X87456250Y-104525000I-218750J0D01*
G01*
X86943750Y-104525000D01*
G75*
G02*
X86725000Y-104306250I0J218750D01*
G01*
X86725000Y-103868750D01*
G75*
G02*
X86943750Y-103650000I218750J0D01*
G01*
G37*
G36*
G01*
X86943750Y-102075000D02*
X87456250Y-102075000D01*
G75*
G02*
X87675000Y-102293750I0J-218750D01*
G01*
X87675000Y-102731250D01*
G75*
G02*
X87456250Y-102950000I-218750J0D01*
G01*
X86943750Y-102950000D01*
G75*
G02*
X86725000Y-102731250I0J218750D01*
G01*
X86725000Y-102293750D01*
G75*
G02*
X86943750Y-102075000I218750J0D01*
G01*
G37*
%TD*%
%TO.C,F2*%
G36*
G01*
X171425000Y-78043750D02*
X171425000Y-78556250D01*
G75*
G02*
X171206250Y-78775000I-218750J0D01*
G01*
X170768750Y-78775000D01*
G75*
G02*
X170550000Y-78556250I0J218750D01*
G01*
X170550000Y-78043750D01*
G75*
G02*
X170768750Y-77825000I218750J0D01*
G01*
X171206250Y-77825000D01*
G75*
G02*
X171425000Y-78043750I0J-218750D01*
G01*
G37*
G36*
G01*
X169850000Y-78043750D02*
X169850000Y-78556250D01*
G75*
G02*
X169631250Y-78775000I-218750J0D01*
G01*
X169193750Y-78775000D01*
G75*
G02*
X168975000Y-78556250I0J218750D01*
G01*
X168975000Y-78043750D01*
G75*
G02*
X169193750Y-77825000I218750J0D01*
G01*
X169631250Y-77825000D01*
G75*
G02*
X169850000Y-78043750I0J-218750D01*
G01*
G37*
%TD*%
%TO.C,F1*%
G36*
G01*
X85193750Y-103650000D02*
X85706250Y-103650000D01*
G75*
G02*
X85925000Y-103868750I0J-218750D01*
G01*
X85925000Y-104306250D01*
G75*
G02*
X85706250Y-104525000I-218750J0D01*
G01*
X85193750Y-104525000D01*
G75*
G02*
X84975000Y-104306250I0J218750D01*
G01*
X84975000Y-103868750D01*
G75*
G02*
X85193750Y-103650000I218750J0D01*
G01*
G37*
G36*
G01*
X85193750Y-102075000D02*
X85706250Y-102075000D01*
G75*
G02*
X85925000Y-102293750I0J-218750D01*
G01*
X85925000Y-102731250D01*
G75*
G02*
X85706250Y-102950000I-218750J0D01*
G01*
X85193750Y-102950000D01*
G75*
G02*
X84975000Y-102731250I0J218750D01*
G01*
X84975000Y-102293750D01*
G75*
G02*
X85193750Y-102075000I218750J0D01*
G01*
G37*
%TD*%
%TO.C,D3*%
G36*
G01*
X79625000Y-111106250D02*
X79625000Y-110193750D01*
G75*
G02*
X79868750Y-109950000I243750J0D01*
G01*
X80356250Y-109950000D01*
G75*
G02*
X80600000Y-110193750I0J-243750D01*
G01*
X80600000Y-111106250D01*
G75*
G02*
X80356250Y-111350000I-243750J0D01*
G01*
X79868750Y-111350000D01*
G75*
G02*
X79625000Y-111106250I0J243750D01*
G01*
G37*
G36*
G01*
X81500000Y-111106250D02*
X81500000Y-110193750D01*
G75*
G02*
X81743750Y-109950000I243750J0D01*
G01*
X82231250Y-109950000D01*
G75*
G02*
X82475000Y-110193750I0J-243750D01*
G01*
X82475000Y-111106250D01*
G75*
G02*
X82231250Y-111350000I-243750J0D01*
G01*
X81743750Y-111350000D01*
G75*
G02*
X81500000Y-111106250I0J243750D01*
G01*
G37*
%TD*%
D36*
%TO.C,D2*%
X81425000Y-99900000D03*
X78375000Y-99900000D03*
%TD*%
%TO.C,D1*%
X81425000Y-96400000D03*
X78375000Y-96400000D03*
%TD*%
%TO.C,C28*%
G36*
G01*
X166271800Y-113575000D02*
X166771800Y-113575000D01*
G75*
G02*
X166996800Y-113800000I0J-225000D01*
G01*
X166996800Y-114250000D01*
G75*
G02*
X166771800Y-114475000I-225000J0D01*
G01*
X166271800Y-114475000D01*
G75*
G02*
X166046800Y-114250000I0J225000D01*
G01*
X166046800Y-113800000D01*
G75*
G02*
X166271800Y-113575000I225000J0D01*
G01*
G37*
G36*
G01*
X166271800Y-115125000D02*
X166771800Y-115125000D01*
G75*
G02*
X166996800Y-115350000I0J-225000D01*
G01*
X166996800Y-115800000D01*
G75*
G02*
X166771800Y-116025000I-225000J0D01*
G01*
X166271800Y-116025000D01*
G75*
G02*
X166046800Y-115800000I0J225000D01*
G01*
X166046800Y-115350000D01*
G75*
G02*
X166271800Y-115125000I225000J0D01*
G01*
G37*
%TD*%
%TO.C,C27*%
G36*
G01*
X166271800Y-110325000D02*
X166771800Y-110325000D01*
G75*
G02*
X166996800Y-110550000I0J-225000D01*
G01*
X166996800Y-111000000D01*
G75*
G02*
X166771800Y-111225000I-225000J0D01*
G01*
X166271800Y-111225000D01*
G75*
G02*
X166046800Y-111000000I0J225000D01*
G01*
X166046800Y-110550000D01*
G75*
G02*
X166271800Y-110325000I225000J0D01*
G01*
G37*
G36*
G01*
X166271800Y-111875000D02*
X166771800Y-111875000D01*
G75*
G02*
X166996800Y-112100000I0J-225000D01*
G01*
X166996800Y-112550000D01*
G75*
G02*
X166771800Y-112775000I-225000J0D01*
G01*
X166271800Y-112775000D01*
G75*
G02*
X166046800Y-112550000I0J225000D01*
G01*
X166046800Y-112100000D01*
G75*
G02*
X166271800Y-111875000I225000J0D01*
G01*
G37*
%TD*%
%TO.C,C26*%
G36*
G01*
X105925000Y-95050000D02*
X105925000Y-95550000D01*
G75*
G02*
X105700000Y-95775000I-225000J0D01*
G01*
X105250000Y-95775000D01*
G75*
G02*
X105025000Y-95550000I0J225000D01*
G01*
X105025000Y-95050000D01*
G75*
G02*
X105250000Y-94825000I225000J0D01*
G01*
X105700000Y-94825000D01*
G75*
G02*
X105925000Y-95050000I0J-225000D01*
G01*
G37*
G36*
G01*
X104375000Y-95050000D02*
X104375000Y-95550000D01*
G75*
G02*
X104150000Y-95775000I-225000J0D01*
G01*
X103700000Y-95775000D01*
G75*
G02*
X103475000Y-95550000I0J225000D01*
G01*
X103475000Y-95050000D01*
G75*
G02*
X103700000Y-94825000I225000J0D01*
G01*
X104150000Y-94825000D01*
G75*
G02*
X104375000Y-95050000I0J-225000D01*
G01*
G37*
%TD*%
%TO.C,C25*%
G36*
G01*
X103475000Y-89550000D02*
X103475000Y-89050000D01*
G75*
G02*
X103700000Y-88825000I225000J0D01*
G01*
X104150000Y-88825000D01*
G75*
G02*
X104375000Y-89050000I0J-225000D01*
G01*
X104375000Y-89550000D01*
G75*
G02*
X104150000Y-89775000I-225000J0D01*
G01*
X103700000Y-89775000D01*
G75*
G02*
X103475000Y-89550000I0J225000D01*
G01*
G37*
G36*
G01*
X105025000Y-89550000D02*
X105025000Y-89050000D01*
G75*
G02*
X105250000Y-88825000I225000J0D01*
G01*
X105700000Y-88825000D01*
G75*
G02*
X105925000Y-89050000I0J-225000D01*
G01*
X105925000Y-89550000D01*
G75*
G02*
X105700000Y-89775000I-225000J0D01*
G01*
X105250000Y-89775000D01*
G75*
G02*
X105025000Y-89550000I0J225000D01*
G01*
G37*
%TD*%
%TO.C,C24*%
G36*
G01*
X109200000Y-98025000D02*
X108700000Y-98025000D01*
G75*
G02*
X108475000Y-97800000I0J225000D01*
G01*
X108475000Y-97350000D01*
G75*
G02*
X108700000Y-97125000I225000J0D01*
G01*
X109200000Y-97125000D01*
G75*
G02*
X109425000Y-97350000I0J-225000D01*
G01*
X109425000Y-97800000D01*
G75*
G02*
X109200000Y-98025000I-225000J0D01*
G01*
G37*
G36*
G01*
X109200000Y-96475000D02*
X108700000Y-96475000D01*
G75*
G02*
X108475000Y-96250000I0J225000D01*
G01*
X108475000Y-95800000D01*
G75*
G02*
X108700000Y-95575000I225000J0D01*
G01*
X109200000Y-95575000D01*
G75*
G02*
X109425000Y-95800000I0J-225000D01*
G01*
X109425000Y-96250000D01*
G75*
G02*
X109200000Y-96475000I-225000J0D01*
G01*
G37*
%TD*%
%TO.C,C23*%
G36*
G01*
X106725000Y-102500000D02*
X107675000Y-102500000D01*
G75*
G02*
X107925000Y-102750000I0J-250000D01*
G01*
X107925000Y-103250000D01*
G75*
G02*
X107675000Y-103500000I-250000J0D01*
G01*
X106725000Y-103500000D01*
G75*
G02*
X106475000Y-103250000I0J250000D01*
G01*
X106475000Y-102750000D01*
G75*
G02*
X106725000Y-102500000I250000J0D01*
G01*
G37*
G36*
G01*
X106725000Y-104400000D02*
X107675000Y-104400000D01*
G75*
G02*
X107925000Y-104650000I0J-250000D01*
G01*
X107925000Y-105150000D01*
G75*
G02*
X107675000Y-105400000I-250000J0D01*
G01*
X106725000Y-105400000D01*
G75*
G02*
X106475000Y-105150000I0J250000D01*
G01*
X106475000Y-104650000D01*
G75*
G02*
X106725000Y-104400000I250000J0D01*
G01*
G37*
%TD*%
%TO.C,C21*%
G36*
G01*
X134700000Y-83425000D02*
X134200000Y-83425000D01*
G75*
G02*
X133975000Y-83200000I0J225000D01*
G01*
X133975000Y-82750000D01*
G75*
G02*
X134200000Y-82525000I225000J0D01*
G01*
X134700000Y-82525000D01*
G75*
G02*
X134925000Y-82750000I0J-225000D01*
G01*
X134925000Y-83200000D01*
G75*
G02*
X134700000Y-83425000I-225000J0D01*
G01*
G37*
G36*
G01*
X134700000Y-81875000D02*
X134200000Y-81875000D01*
G75*
G02*
X133975000Y-81650000I0J225000D01*
G01*
X133975000Y-81200000D01*
G75*
G02*
X134200000Y-80975000I225000J0D01*
G01*
X134700000Y-80975000D01*
G75*
G02*
X134925000Y-81200000I0J-225000D01*
G01*
X134925000Y-81650000D01*
G75*
G02*
X134700000Y-81875000I-225000J0D01*
G01*
G37*
%TD*%
%TO.C,C20*%
G36*
G01*
X109200000Y-86025000D02*
X108700000Y-86025000D01*
G75*
G02*
X108475000Y-85800000I0J225000D01*
G01*
X108475000Y-85350000D01*
G75*
G02*
X108700000Y-85125000I225000J0D01*
G01*
X109200000Y-85125000D01*
G75*
G02*
X109425000Y-85350000I0J-225000D01*
G01*
X109425000Y-85800000D01*
G75*
G02*
X109200000Y-86025000I-225000J0D01*
G01*
G37*
G36*
G01*
X109200000Y-84475000D02*
X108700000Y-84475000D01*
G75*
G02*
X108475000Y-84250000I0J225000D01*
G01*
X108475000Y-83800000D01*
G75*
G02*
X108700000Y-83575000I225000J0D01*
G01*
X109200000Y-83575000D01*
G75*
G02*
X109425000Y-83800000I0J-225000D01*
G01*
X109425000Y-84250000D01*
G75*
G02*
X109200000Y-84475000I-225000J0D01*
G01*
G37*
%TD*%
%TO.C,C19*%
G36*
G01*
X109200000Y-92025000D02*
X108700000Y-92025000D01*
G75*
G02*
X108475000Y-91800000I0J225000D01*
G01*
X108475000Y-91350000D01*
G75*
G02*
X108700000Y-91125000I225000J0D01*
G01*
X109200000Y-91125000D01*
G75*
G02*
X109425000Y-91350000I0J-225000D01*
G01*
X109425000Y-91800000D01*
G75*
G02*
X109200000Y-92025000I-225000J0D01*
G01*
G37*
G36*
G01*
X109200000Y-90475000D02*
X108700000Y-90475000D01*
G75*
G02*
X108475000Y-90250000I0J225000D01*
G01*
X108475000Y-89800000D01*
G75*
G02*
X108700000Y-89575000I225000J0D01*
G01*
X109200000Y-89575000D01*
G75*
G02*
X109425000Y-89800000I0J-225000D01*
G01*
X109425000Y-90250000D01*
G75*
G02*
X109200000Y-90475000I-225000J0D01*
G01*
G37*
%TD*%
%TO.C,C18*%
G36*
G01*
X111975000Y-79300000D02*
X111975000Y-78800000D01*
G75*
G02*
X112200000Y-78575000I225000J0D01*
G01*
X112650000Y-78575000D01*
G75*
G02*
X112875000Y-78800000I0J-225000D01*
G01*
X112875000Y-79300000D01*
G75*
G02*
X112650000Y-79525000I-225000J0D01*
G01*
X112200000Y-79525000D01*
G75*
G02*
X111975000Y-79300000I0J225000D01*
G01*
G37*
G36*
G01*
X113525000Y-79300000D02*
X113525000Y-78800000D01*
G75*
G02*
X113750000Y-78575000I225000J0D01*
G01*
X114200000Y-78575000D01*
G75*
G02*
X114425000Y-78800000I0J-225000D01*
G01*
X114425000Y-79300000D01*
G75*
G02*
X114200000Y-79525000I-225000J0D01*
G01*
X113750000Y-79525000D01*
G75*
G02*
X113525000Y-79300000I0J225000D01*
G01*
G37*
%TD*%
%TO.C,C17*%
G36*
G01*
X118475000Y-79300000D02*
X118475000Y-78800000D01*
G75*
G02*
X118700000Y-78575000I225000J0D01*
G01*
X119150000Y-78575000D01*
G75*
G02*
X119375000Y-78800000I0J-225000D01*
G01*
X119375000Y-79300000D01*
G75*
G02*
X119150000Y-79525000I-225000J0D01*
G01*
X118700000Y-79525000D01*
G75*
G02*
X118475000Y-79300000I0J225000D01*
G01*
G37*
G36*
G01*
X120025000Y-79300000D02*
X120025000Y-78800000D01*
G75*
G02*
X120250000Y-78575000I225000J0D01*
G01*
X120700000Y-78575000D01*
G75*
G02*
X120925000Y-78800000I0J-225000D01*
G01*
X120925000Y-79300000D01*
G75*
G02*
X120700000Y-79525000I-225000J0D01*
G01*
X120250000Y-79525000D01*
G75*
G02*
X120025000Y-79300000I0J225000D01*
G01*
G37*
%TD*%
%TO.C,C16*%
G36*
G01*
X122475000Y-79300000D02*
X122475000Y-78800000D01*
G75*
G02*
X122700000Y-78575000I225000J0D01*
G01*
X123150000Y-78575000D01*
G75*
G02*
X123375000Y-78800000I0J-225000D01*
G01*
X123375000Y-79300000D01*
G75*
G02*
X123150000Y-79525000I-225000J0D01*
G01*
X122700000Y-79525000D01*
G75*
G02*
X122475000Y-79300000I0J225000D01*
G01*
G37*
G36*
G01*
X124025000Y-79300000D02*
X124025000Y-78800000D01*
G75*
G02*
X124250000Y-78575000I225000J0D01*
G01*
X124700000Y-78575000D01*
G75*
G02*
X124925000Y-78800000I0J-225000D01*
G01*
X124925000Y-79300000D01*
G75*
G02*
X124700000Y-79525000I-225000J0D01*
G01*
X124250000Y-79525000D01*
G75*
G02*
X124025000Y-79300000I0J225000D01*
G01*
G37*
%TD*%
%TO.C,C15*%
G36*
G01*
X128975000Y-79300000D02*
X128975000Y-78800000D01*
G75*
G02*
X129200000Y-78575000I225000J0D01*
G01*
X129650000Y-78575000D01*
G75*
G02*
X129875000Y-78800000I0J-225000D01*
G01*
X129875000Y-79300000D01*
G75*
G02*
X129650000Y-79525000I-225000J0D01*
G01*
X129200000Y-79525000D01*
G75*
G02*
X128975000Y-79300000I0J225000D01*
G01*
G37*
G36*
G01*
X130525000Y-79300000D02*
X130525000Y-78800000D01*
G75*
G02*
X130750000Y-78575000I225000J0D01*
G01*
X131200000Y-78575000D01*
G75*
G02*
X131425000Y-78800000I0J-225000D01*
G01*
X131425000Y-79300000D01*
G75*
G02*
X131200000Y-79525000I-225000J0D01*
G01*
X130750000Y-79525000D01*
G75*
G02*
X130525000Y-79300000I0J225000D01*
G01*
G37*
%TD*%
%TO.C,C13*%
G36*
G01*
X129425000Y-104300000D02*
X129425000Y-104800000D01*
G75*
G02*
X129200000Y-105025000I-225000J0D01*
G01*
X128750000Y-105025000D01*
G75*
G02*
X128525000Y-104800000I0J225000D01*
G01*
X128525000Y-104300000D01*
G75*
G02*
X128750000Y-104075000I225000J0D01*
G01*
X129200000Y-104075000D01*
G75*
G02*
X129425000Y-104300000I0J-225000D01*
G01*
G37*
G36*
G01*
X127875000Y-104300000D02*
X127875000Y-104800000D01*
G75*
G02*
X127650000Y-105025000I-225000J0D01*
G01*
X127200000Y-105025000D01*
G75*
G02*
X126975000Y-104800000I0J225000D01*
G01*
X126975000Y-104300000D01*
G75*
G02*
X127200000Y-104075000I225000J0D01*
G01*
X127650000Y-104075000D01*
G75*
G02*
X127875000Y-104300000I0J-225000D01*
G01*
G37*
%TD*%
%TO.C,C12*%
G36*
G01*
X124425000Y-104300000D02*
X124425000Y-104800000D01*
G75*
G02*
X124200000Y-105025000I-225000J0D01*
G01*
X123750000Y-105025000D01*
G75*
G02*
X123525000Y-104800000I0J225000D01*
G01*
X123525000Y-104300000D01*
G75*
G02*
X123750000Y-104075000I225000J0D01*
G01*
X124200000Y-104075000D01*
G75*
G02*
X124425000Y-104300000I0J-225000D01*
G01*
G37*
G36*
G01*
X122875000Y-104300000D02*
X122875000Y-104800000D01*
G75*
G02*
X122650000Y-105025000I-225000J0D01*
G01*
X122200000Y-105025000D01*
G75*
G02*
X121975000Y-104800000I0J225000D01*
G01*
X121975000Y-104300000D01*
G75*
G02*
X122200000Y-104075000I225000J0D01*
G01*
X122650000Y-104075000D01*
G75*
G02*
X122875000Y-104300000I0J-225000D01*
G01*
G37*
%TD*%
%TO.C,C11*%
G36*
G01*
X119425000Y-104300000D02*
X119425000Y-104800000D01*
G75*
G02*
X119200000Y-105025000I-225000J0D01*
G01*
X118750000Y-105025000D01*
G75*
G02*
X118525000Y-104800000I0J225000D01*
G01*
X118525000Y-104300000D01*
G75*
G02*
X118750000Y-104075000I225000J0D01*
G01*
X119200000Y-104075000D01*
G75*
G02*
X119425000Y-104300000I0J-225000D01*
G01*
G37*
G36*
G01*
X117875000Y-104300000D02*
X117875000Y-104800000D01*
G75*
G02*
X117650000Y-105025000I-225000J0D01*
G01*
X117200000Y-105025000D01*
G75*
G02*
X116975000Y-104800000I0J225000D01*
G01*
X116975000Y-104300000D01*
G75*
G02*
X117200000Y-104075000I225000J0D01*
G01*
X117650000Y-104075000D01*
G75*
G02*
X117875000Y-104300000I0J-225000D01*
G01*
G37*
%TD*%
%TO.C,C10*%
G36*
G01*
X109200000Y-101850000D02*
X108700000Y-101850000D01*
G75*
G02*
X108475000Y-101625000I0J225000D01*
G01*
X108475000Y-101175000D01*
G75*
G02*
X108700000Y-100950000I225000J0D01*
G01*
X109200000Y-100950000D01*
G75*
G02*
X109425000Y-101175000I0J-225000D01*
G01*
X109425000Y-101625000D01*
G75*
G02*
X109200000Y-101850000I-225000J0D01*
G01*
G37*
G36*
G01*
X109200000Y-100300000D02*
X108700000Y-100300000D01*
G75*
G02*
X108475000Y-100075000I0J225000D01*
G01*
X108475000Y-99625000D01*
G75*
G02*
X108700000Y-99400000I225000J0D01*
G01*
X109200000Y-99400000D01*
G75*
G02*
X109425000Y-99625000I0J-225000D01*
G01*
X109425000Y-100075000D01*
G75*
G02*
X109200000Y-100300000I-225000J0D01*
G01*
G37*
%TD*%
%TO.C,C9*%
G36*
G01*
X136875000Y-83450000D02*
X135925000Y-83450000D01*
G75*
G02*
X135675000Y-83200000I0J250000D01*
G01*
X135675000Y-82700000D01*
G75*
G02*
X135925000Y-82450000I250000J0D01*
G01*
X136875000Y-82450000D01*
G75*
G02*
X137125000Y-82700000I0J-250000D01*
G01*
X137125000Y-83200000D01*
G75*
G02*
X136875000Y-83450000I-250000J0D01*
G01*
G37*
G36*
G01*
X136875000Y-81550000D02*
X135925000Y-81550000D01*
G75*
G02*
X135675000Y-81300000I0J250000D01*
G01*
X135675000Y-80800000D01*
G75*
G02*
X135925000Y-80550000I250000J0D01*
G01*
X136875000Y-80550000D01*
G75*
G02*
X137125000Y-80800000I0J-250000D01*
G01*
X137125000Y-81300000D01*
G75*
G02*
X136875000Y-81550000I-250000J0D01*
G01*
G37*
%TD*%
%TO.C,C8*%
G36*
G01*
X111450000Y-77525000D02*
X111450000Y-76575000D01*
G75*
G02*
X111700000Y-76325000I250000J0D01*
G01*
X112200000Y-76325000D01*
G75*
G02*
X112450000Y-76575000I0J-250000D01*
G01*
X112450000Y-77525000D01*
G75*
G02*
X112200000Y-77775000I-250000J0D01*
G01*
X111700000Y-77775000D01*
G75*
G02*
X111450000Y-77525000I0J250000D01*
G01*
G37*
G36*
G01*
X113350000Y-77525000D02*
X113350000Y-76575000D01*
G75*
G02*
X113600000Y-76325000I250000J0D01*
G01*
X114100000Y-76325000D01*
G75*
G02*
X114350000Y-76575000I0J-250000D01*
G01*
X114350000Y-77525000D01*
G75*
G02*
X114100000Y-77775000I-250000J0D01*
G01*
X113600000Y-77775000D01*
G75*
G02*
X113350000Y-77525000I0J250000D01*
G01*
G37*
%TD*%
%TO.C,C7*%
G36*
G01*
X118500000Y-77525000D02*
X118500000Y-76575000D01*
G75*
G02*
X118750000Y-76325000I250000J0D01*
G01*
X119250000Y-76325000D01*
G75*
G02*
X119500000Y-76575000I0J-250000D01*
G01*
X119500000Y-77525000D01*
G75*
G02*
X119250000Y-77775000I-250000J0D01*
G01*
X118750000Y-77775000D01*
G75*
G02*
X118500000Y-77525000I0J250000D01*
G01*
G37*
G36*
G01*
X120400000Y-77525000D02*
X120400000Y-76575000D01*
G75*
G02*
X120650000Y-76325000I250000J0D01*
G01*
X121150000Y-76325000D01*
G75*
G02*
X121400000Y-76575000I0J-250000D01*
G01*
X121400000Y-77525000D01*
G75*
G02*
X121150000Y-77775000I-250000J0D01*
G01*
X120650000Y-77775000D01*
G75*
G02*
X120400000Y-77525000I0J250000D01*
G01*
G37*
%TD*%
%TO.C,C6*%
G36*
G01*
X107450000Y-98025000D02*
X106950000Y-98025000D01*
G75*
G02*
X106725000Y-97800000I0J225000D01*
G01*
X106725000Y-97350000D01*
G75*
G02*
X106950000Y-97125000I225000J0D01*
G01*
X107450000Y-97125000D01*
G75*
G02*
X107675000Y-97350000I0J-225000D01*
G01*
X107675000Y-97800000D01*
G75*
G02*
X107450000Y-98025000I-225000J0D01*
G01*
G37*
G36*
G01*
X107450000Y-96475000D02*
X106950000Y-96475000D01*
G75*
G02*
X106725000Y-96250000I0J225000D01*
G01*
X106725000Y-95800000D01*
G75*
G02*
X106950000Y-95575000I225000J0D01*
G01*
X107450000Y-95575000D01*
G75*
G02*
X107675000Y-95800000I0J-225000D01*
G01*
X107675000Y-96250000D01*
G75*
G02*
X107450000Y-96475000I-225000J0D01*
G01*
G37*
%TD*%
%TO.C,C5*%
G36*
G01*
X105900000Y-98575000D02*
X105900000Y-99525000D01*
G75*
G02*
X105650000Y-99775000I-250000J0D01*
G01*
X105150000Y-99775000D01*
G75*
G02*
X104900000Y-99525000I0J250000D01*
G01*
X104900000Y-98575000D01*
G75*
G02*
X105150000Y-98325000I250000J0D01*
G01*
X105650000Y-98325000D01*
G75*
G02*
X105900000Y-98575000I0J-250000D01*
G01*
G37*
G36*
G01*
X104000000Y-98575000D02*
X104000000Y-99525000D01*
G75*
G02*
X103750000Y-99775000I-250000J0D01*
G01*
X103250000Y-99775000D01*
G75*
G02*
X103000000Y-99525000I0J250000D01*
G01*
X103000000Y-98575000D01*
G75*
G02*
X103250000Y-98325000I250000J0D01*
G01*
X103750000Y-98325000D01*
G75*
G02*
X104000000Y-98575000I0J-250000D01*
G01*
G37*
%TD*%
%TO.C,C4*%
G36*
G01*
X83250000Y-81650000D02*
X82750000Y-81650000D01*
G75*
G02*
X82525000Y-81425000I0J225000D01*
G01*
X82525000Y-80975000D01*
G75*
G02*
X82750000Y-80750000I225000J0D01*
G01*
X83250000Y-80750000D01*
G75*
G02*
X83475000Y-80975000I0J-225000D01*
G01*
X83475000Y-81425000D01*
G75*
G02*
X83250000Y-81650000I-225000J0D01*
G01*
G37*
G36*
G01*
X83250000Y-80100000D02*
X82750000Y-80100000D01*
G75*
G02*
X82525000Y-79875000I0J225000D01*
G01*
X82525000Y-79425000D01*
G75*
G02*
X82750000Y-79200000I225000J0D01*
G01*
X83250000Y-79200000D01*
G75*
G02*
X83475000Y-79425000I0J-225000D01*
G01*
X83475000Y-79875000D01*
G75*
G02*
X83250000Y-80100000I-225000J0D01*
G01*
G37*
%TD*%
%TO.C,C3*%
G36*
G01*
X135175000Y-100750000D02*
X134225000Y-100750000D01*
G75*
G02*
X133975000Y-100500000I0J250000D01*
G01*
X133975000Y-100000000D01*
G75*
G02*
X134225000Y-99750000I250000J0D01*
G01*
X135175000Y-99750000D01*
G75*
G02*
X135425000Y-100000000I0J-250000D01*
G01*
X135425000Y-100500000D01*
G75*
G02*
X135175000Y-100750000I-250000J0D01*
G01*
G37*
G36*
G01*
X135175000Y-98850000D02*
X134225000Y-98850000D01*
G75*
G02*
X133975000Y-98600000I0J250000D01*
G01*
X133975000Y-98100000D01*
G75*
G02*
X134225000Y-97850000I250000J0D01*
G01*
X135175000Y-97850000D01*
G75*
G02*
X135425000Y-98100000I0J-250000D01*
G01*
X135425000Y-98600000D01*
G75*
G02*
X135175000Y-98850000I-250000J0D01*
G01*
G37*
%TD*%
%TO.C,C2*%
G36*
G01*
X98650000Y-102575000D02*
X98650000Y-103525000D01*
G75*
G02*
X98400000Y-103775000I-250000J0D01*
G01*
X97900000Y-103775000D01*
G75*
G02*
X97650000Y-103525000I0J250000D01*
G01*
X97650000Y-102575000D01*
G75*
G02*
X97900000Y-102325000I250000J0D01*
G01*
X98400000Y-102325000D01*
G75*
G02*
X98650000Y-102575000I0J-250000D01*
G01*
G37*
G36*
G01*
X96750000Y-102575000D02*
X96750000Y-103525000D01*
G75*
G02*
X96500000Y-103775000I-250000J0D01*
G01*
X96000000Y-103775000D01*
G75*
G02*
X95750000Y-103525000I0J250000D01*
G01*
X95750000Y-102575000D01*
G75*
G02*
X96000000Y-102325000I250000J0D01*
G01*
X96500000Y-102325000D01*
G75*
G02*
X96750000Y-102575000I0J-250000D01*
G01*
G37*
%TD*%
%TO.C,C1*%
G36*
G01*
X89550000Y-103475000D02*
X89550000Y-102525000D01*
G75*
G02*
X89800000Y-102275000I250000J0D01*
G01*
X90300000Y-102275000D01*
G75*
G02*
X90550000Y-102525000I0J-250000D01*
G01*
X90550000Y-103475000D01*
G75*
G02*
X90300000Y-103725000I-250000J0D01*
G01*
X89800000Y-103725000D01*
G75*
G02*
X89550000Y-103475000I0J250000D01*
G01*
G37*
G36*
G01*
X91450000Y-103475000D02*
X91450000Y-102525000D01*
G75*
G02*
X91700000Y-102275000I250000J0D01*
G01*
X92200000Y-102275000D01*
G75*
G02*
X92450000Y-102525000I0J-250000D01*
G01*
X92450000Y-103475000D01*
G75*
G02*
X92200000Y-103725000I-250000J0D01*
G01*
X91700000Y-103725000D01*
G75*
G02*
X91450000Y-103475000I0J250000D01*
G01*
G37*
%TD*%
M02*
