%TF.GenerationSoftware,KiCad,Pcbnew,(5.1.10)-1*%
%TF.CreationDate,2021-08-30T20:13:54+03:00*%
%TF.ProjectId,STM32_Edge_Computing_Device,53544d33-325f-4456-9467-655f436f6d70,1.0*%
%TF.SameCoordinates,Original*%
%TF.FileFunction,Legend,Top*%
%TF.FilePolarity,Positive*%
%FSLAX46Y46*%
G04 Gerber Fmt 4.6, Leading zero omitted, Abs format (unit mm)*
G04 Created by KiCad (PCBNEW (5.1.10)-1) date 2021-08-30 20:13:54*
%MOMM*%
%LPD*%
G01*
G04 APERTURE LIST*
%ADD10C,0.200000*%
%ADD11C,0.250000*%
%ADD12C,0.300000*%
%ADD13C,0.150000*%
%ADD14C,0.120000*%
%ADD15C,0.010000*%
%ADD16C,0.100000*%
G04 APERTURE END LIST*
D10*
X74220711Y-83500000D02*
G75*
G03*
X74220711Y-83500000I-70711J0D01*
G01*
X78420711Y-98600000D02*
G75*
G03*
X78420711Y-98600000I-70711J0D01*
G01*
X78420711Y-95150000D02*
G75*
G03*
X78420711Y-95150000I-70711J0D01*
G01*
X116007142Y-93842857D02*
X116007142Y-94700000D01*
X115950000Y-94871428D01*
X115835714Y-94985714D01*
X115664285Y-95042857D01*
X115550000Y-95042857D01*
X117150000Y-95042857D02*
X116578571Y-95042857D01*
X116578571Y-93842857D01*
X118235714Y-94928571D02*
X118178571Y-94985714D01*
X118007142Y-95042857D01*
X117892857Y-95042857D01*
X117721428Y-94985714D01*
X117607142Y-94871428D01*
X117550000Y-94757142D01*
X117492857Y-94528571D01*
X117492857Y-94357142D01*
X117550000Y-94128571D01*
X117607142Y-94014285D01*
X117721428Y-93900000D01*
X117892857Y-93842857D01*
X118007142Y-93842857D01*
X118178571Y-93900000D01*
X118235714Y-93957142D01*
X119092857Y-93842857D02*
X119092857Y-94700000D01*
X119035714Y-94871428D01*
X118921428Y-94985714D01*
X118750000Y-95042857D01*
X118635714Y-95042857D01*
X120235714Y-95042857D02*
X119664285Y-95042857D01*
X119664285Y-93842857D01*
X121321428Y-94928571D02*
X121264285Y-94985714D01*
X121092857Y-95042857D01*
X120978571Y-95042857D01*
X120807142Y-94985714D01*
X120692857Y-94871428D01*
X120635714Y-94757142D01*
X120578571Y-94528571D01*
X120578571Y-94357142D01*
X120635714Y-94128571D01*
X120692857Y-94014285D01*
X120807142Y-93900000D01*
X120978571Y-93842857D01*
X121092857Y-93842857D01*
X121264285Y-93900000D01*
X121321428Y-93957142D01*
X122178571Y-93842857D02*
X122178571Y-94700000D01*
X122121428Y-94871428D01*
X122007142Y-94985714D01*
X121835714Y-95042857D01*
X121721428Y-95042857D01*
X123321428Y-95042857D02*
X122750000Y-95042857D01*
X122750000Y-93842857D01*
X124407142Y-94928571D02*
X124350000Y-94985714D01*
X124178571Y-95042857D01*
X124064285Y-95042857D01*
X123892857Y-94985714D01*
X123778571Y-94871428D01*
X123721428Y-94757142D01*
X123664285Y-94528571D01*
X123664285Y-94357142D01*
X123721428Y-94128571D01*
X123778571Y-94014285D01*
X123892857Y-93900000D01*
X124064285Y-93842857D01*
X124178571Y-93842857D01*
X124350000Y-93900000D01*
X124407142Y-93957142D01*
X125264285Y-93842857D02*
X125264285Y-94700000D01*
X125207142Y-94871428D01*
X125092857Y-94985714D01*
X124921428Y-95042857D01*
X124807142Y-95042857D01*
X126407142Y-95042857D02*
X125835714Y-95042857D01*
X125835714Y-93842857D01*
X127492857Y-94928571D02*
X127435714Y-94985714D01*
X127264285Y-95042857D01*
X127150000Y-95042857D01*
X126978571Y-94985714D01*
X126864285Y-94871428D01*
X126807142Y-94757142D01*
X126750000Y-94528571D01*
X126750000Y-94357142D01*
X126807142Y-94128571D01*
X126864285Y-94014285D01*
X126978571Y-93900000D01*
X127150000Y-93842857D01*
X127264285Y-93842857D01*
X127435714Y-93900000D01*
X127492857Y-93957142D01*
D11*
X68777455Y-120088095D02*
X68885788Y-119221428D01*
X68854836Y-119469047D02*
X68932217Y-119345238D01*
X69001860Y-119283333D01*
X69133407Y-119221428D01*
X69257217Y-119221428D01*
X70085193Y-120026190D02*
X69953645Y-120088095D01*
X69706026Y-120088095D01*
X69589955Y-120026190D01*
X69543526Y-119902380D01*
X69605431Y-119407142D01*
X69682812Y-119283333D01*
X69814360Y-119221428D01*
X70061979Y-119221428D01*
X70178050Y-119283333D01*
X70224479Y-119407142D01*
X70209002Y-119530952D01*
X69574479Y-119654761D01*
X70681026Y-119221428D02*
X70882217Y-120088095D01*
X71300074Y-119221428D01*
X73358407Y-120088095D02*
X72615550Y-120088095D01*
X72986979Y-120088095D02*
X73149479Y-118788095D01*
X73002455Y-118973809D01*
X72863169Y-119097619D01*
X72731622Y-119159523D01*
X73931026Y-119964285D02*
X73985193Y-120026190D01*
X73915550Y-120088095D01*
X73861383Y-120026190D01*
X73931026Y-119964285D01*
X73915550Y-120088095D01*
X74944717Y-118788095D02*
X75068526Y-118788095D01*
X75184598Y-118850000D01*
X75238764Y-118911904D01*
X75285193Y-119035714D01*
X75316145Y-119283333D01*
X75277455Y-119592857D01*
X75184598Y-119840476D01*
X75107217Y-119964285D01*
X75037574Y-120026190D01*
X74906026Y-120088095D01*
X74782217Y-120088095D01*
X74666145Y-120026190D01*
X74611979Y-119964285D01*
X74565550Y-119840476D01*
X74534598Y-119592857D01*
X74573288Y-119283333D01*
X74666145Y-119035714D01*
X74743526Y-118911904D01*
X74813169Y-118850000D01*
X74944717Y-118788095D01*
D10*
X139720952Y-111452380D02*
X140292380Y-111452380D01*
X139881666Y-112452380D02*
X140006666Y-111452380D01*
X140488809Y-111785714D02*
X140595952Y-112452380D01*
X140845952Y-111976190D01*
X140976904Y-112452380D01*
X141250714Y-111785714D01*
X141548333Y-112452380D02*
X141631666Y-111785714D01*
X141673333Y-111452380D02*
X141619761Y-111500000D01*
X141661428Y-111547619D01*
X141715000Y-111500000D01*
X141673333Y-111452380D01*
X141661428Y-111547619D01*
X142107857Y-111785714D02*
X142024523Y-112452380D01*
X142095952Y-111880952D02*
X142149523Y-111833333D01*
X142250714Y-111785714D01*
X142393571Y-111785714D01*
X142482857Y-111833333D01*
X142518571Y-111928571D01*
X142453095Y-112452380D01*
X138805476Y-108052380D02*
X138930476Y-107052380D01*
X139168571Y-107052380D01*
X139305476Y-107100000D01*
X139388809Y-107195238D01*
X139424523Y-107290476D01*
X139448333Y-107480952D01*
X139430476Y-107623809D01*
X139359047Y-107814285D01*
X139299523Y-107909523D01*
X139192380Y-108004761D01*
X139043571Y-108052380D01*
X138805476Y-108052380D01*
X139805476Y-108052380D02*
X139888809Y-107385714D01*
X139930476Y-107052380D02*
X139876904Y-107100000D01*
X139918571Y-107147619D01*
X139972142Y-107100000D01*
X139930476Y-107052380D01*
X139918571Y-107147619D01*
X140793571Y-107385714D02*
X140692380Y-108195238D01*
X140632857Y-108290476D01*
X140579285Y-108338095D01*
X140478095Y-108385714D01*
X140335238Y-108385714D01*
X140245952Y-108338095D01*
X140716190Y-108004761D02*
X140615000Y-108052380D01*
X140424523Y-108052380D01*
X140335238Y-108004761D01*
X140293571Y-107957142D01*
X140257857Y-107861904D01*
X140293571Y-107576190D01*
X140353095Y-107480952D01*
X140406666Y-107433333D01*
X140507857Y-107385714D01*
X140698333Y-107385714D01*
X140787619Y-107433333D01*
X141186428Y-108052380D02*
X141269761Y-107385714D01*
X141311428Y-107052380D02*
X141257857Y-107100000D01*
X141299523Y-107147619D01*
X141353095Y-107100000D01*
X141311428Y-107052380D01*
X141299523Y-107147619D01*
X141603095Y-107385714D02*
X141984047Y-107385714D01*
X141787619Y-107052380D02*
X141680476Y-107909523D01*
X141716190Y-108004761D01*
X141805476Y-108052380D01*
X141900714Y-108052380D01*
X142662619Y-108052380D02*
X142728095Y-107528571D01*
X142692380Y-107433333D01*
X142603095Y-107385714D01*
X142412619Y-107385714D01*
X142311428Y-107433333D01*
X142668571Y-108004761D02*
X142567380Y-108052380D01*
X142329285Y-108052380D01*
X142240000Y-108004761D01*
X142204285Y-107909523D01*
X142216190Y-107814285D01*
X142275714Y-107719047D01*
X142376904Y-107671428D01*
X142615000Y-107671428D01*
X142716190Y-107623809D01*
X143281666Y-108052380D02*
X143192380Y-108004761D01*
X143156666Y-107909523D01*
X143263809Y-107052380D01*
G36*
X173600000Y-107000000D02*
G01*
X172200000Y-107700000D01*
X172200000Y-107200000D01*
X170400000Y-107200000D01*
X170400000Y-106700000D01*
X172200000Y-106700000D01*
X172200000Y-106200000D01*
X173600000Y-107000000D01*
G37*
X173600000Y-107000000D02*
X172200000Y-107700000D01*
X172200000Y-107200000D01*
X170400000Y-107200000D01*
X170400000Y-106700000D01*
X172200000Y-106700000D01*
X172200000Y-106200000D01*
X173600000Y-107000000D01*
G36*
X173700000Y-120400000D02*
G01*
X172300000Y-121100000D01*
X172300000Y-120600000D01*
X170500000Y-120600000D01*
X170500000Y-120100000D01*
X172300000Y-120100000D01*
X172300000Y-119600000D01*
X173700000Y-120400000D01*
G37*
X173700000Y-120400000D02*
X172300000Y-121100000D01*
X172300000Y-120600000D01*
X170500000Y-120600000D01*
X170500000Y-120100000D01*
X172300000Y-120100000D01*
X172300000Y-119600000D01*
X173700000Y-120400000D01*
D12*
X166278571Y-95192857D02*
X164778571Y-95192857D01*
X165850000Y-94692857D01*
X164778571Y-94192857D01*
X166278571Y-94192857D01*
X164778571Y-93192857D02*
X164778571Y-92907142D01*
X164850000Y-92764285D01*
X164992857Y-92621428D01*
X165278571Y-92550000D01*
X165778571Y-92550000D01*
X166064285Y-92621428D01*
X166207142Y-92764285D01*
X166278571Y-92907142D01*
X166278571Y-93192857D01*
X166207142Y-93335714D01*
X166064285Y-93478571D01*
X165778571Y-93550000D01*
X165278571Y-93550000D01*
X164992857Y-93478571D01*
X164850000Y-93335714D01*
X164778571Y-93192857D01*
X164778571Y-92121428D02*
X164778571Y-91264285D01*
X166278571Y-91692857D02*
X164778571Y-91692857D01*
X164778571Y-90478571D02*
X164778571Y-90192857D01*
X164850000Y-90050000D01*
X164992857Y-89907142D01*
X165278571Y-89835714D01*
X165778571Y-89835714D01*
X166064285Y-89907142D01*
X166207142Y-90050000D01*
X166278571Y-90192857D01*
X166278571Y-90478571D01*
X166207142Y-90621428D01*
X166064285Y-90764285D01*
X165778571Y-90835714D01*
X165278571Y-90835714D01*
X164992857Y-90764285D01*
X164850000Y-90621428D01*
X164778571Y-90478571D01*
X166278571Y-88335714D02*
X165564285Y-88835714D01*
X166278571Y-89192857D02*
X164778571Y-89192857D01*
X164778571Y-88621428D01*
X164850000Y-88478571D01*
X164921428Y-88407142D01*
X165064285Y-88335714D01*
X165278571Y-88335714D01*
X165421428Y-88407142D01*
X165492857Y-88478571D01*
X165564285Y-88621428D01*
X165564285Y-89192857D01*
D10*
X173842857Y-68785714D02*
X174757142Y-68785714D01*
X71442857Y-113685714D02*
X72357142Y-113685714D01*
X71342857Y-108585714D02*
X72257142Y-108585714D01*
X71800000Y-109042857D02*
X71800000Y-108128571D01*
D12*
X143364285Y-73407142D02*
X143578571Y-73478571D01*
X143935714Y-73478571D01*
X144078571Y-73407142D01*
X144150000Y-73335714D01*
X144221428Y-73192857D01*
X144221428Y-73050000D01*
X144150000Y-72907142D01*
X144078571Y-72835714D01*
X143935714Y-72764285D01*
X143650000Y-72692857D01*
X143507142Y-72621428D01*
X143435714Y-72550000D01*
X143364285Y-72407142D01*
X143364285Y-72264285D01*
X143435714Y-72121428D01*
X143507142Y-72050000D01*
X143650000Y-71978571D01*
X144007142Y-71978571D01*
X144221428Y-72050000D01*
X144721428Y-71978571D02*
X145078571Y-73478571D01*
X145364285Y-72407142D01*
X145650000Y-73478571D01*
X146007142Y-71978571D01*
X146578571Y-73478571D02*
X146578571Y-71978571D01*
X146935714Y-71978571D01*
X147150000Y-72050000D01*
X147292857Y-72192857D01*
X147364285Y-72335714D01*
X147435714Y-72621428D01*
X147435714Y-72835714D01*
X147364285Y-73121428D01*
X147292857Y-73264285D01*
X147150000Y-73407142D01*
X146935714Y-73478571D01*
X146578571Y-73478571D01*
D11*
X168859523Y-63488095D02*
X168859523Y-62188095D01*
X169292857Y-63116666D01*
X169726190Y-62188095D01*
X169726190Y-63488095D01*
X170592857Y-62188095D02*
X170840476Y-62188095D01*
X170964285Y-62250000D01*
X171088095Y-62373809D01*
X171150000Y-62621428D01*
X171150000Y-63054761D01*
X171088095Y-63302380D01*
X170964285Y-63426190D01*
X170840476Y-63488095D01*
X170592857Y-63488095D01*
X170469047Y-63426190D01*
X170345238Y-63302380D01*
X170283333Y-63054761D01*
X170283333Y-62621428D01*
X170345238Y-62373809D01*
X170469047Y-62250000D01*
X170592857Y-62188095D01*
X171521428Y-62188095D02*
X172264285Y-62188095D01*
X171892857Y-63488095D02*
X171892857Y-62188095D01*
X172945238Y-62188095D02*
X173192857Y-62188095D01*
X173316666Y-62250000D01*
X173440476Y-62373809D01*
X173502380Y-62621428D01*
X173502380Y-63054761D01*
X173440476Y-63302380D01*
X173316666Y-63426190D01*
X173192857Y-63488095D01*
X172945238Y-63488095D01*
X172821428Y-63426190D01*
X172697619Y-63302380D01*
X172635714Y-63054761D01*
X172635714Y-62621428D01*
X172697619Y-62373809D01*
X172821428Y-62250000D01*
X172945238Y-62188095D01*
X174802380Y-63488095D02*
X174369047Y-62869047D01*
X174059523Y-63488095D02*
X174059523Y-62188095D01*
X174554761Y-62188095D01*
X174678571Y-62250000D01*
X174740476Y-62311904D01*
X174802380Y-62435714D01*
X174802380Y-62621428D01*
X174740476Y-62745238D01*
X174678571Y-62807142D01*
X174554761Y-62869047D01*
X174059523Y-62869047D01*
X168364285Y-65626190D02*
X168550000Y-65688095D01*
X168859523Y-65688095D01*
X168983333Y-65626190D01*
X169045238Y-65564285D01*
X169107142Y-65440476D01*
X169107142Y-65316666D01*
X169045238Y-65192857D01*
X168983333Y-65130952D01*
X168859523Y-65069047D01*
X168611904Y-65007142D01*
X168488095Y-64945238D01*
X168426190Y-64883333D01*
X168364285Y-64759523D01*
X168364285Y-64635714D01*
X168426190Y-64511904D01*
X168488095Y-64450000D01*
X168611904Y-64388095D01*
X168921428Y-64388095D01*
X169107142Y-64450000D01*
X169664285Y-64388095D02*
X169664285Y-65440476D01*
X169726190Y-65564285D01*
X169788095Y-65626190D01*
X169911904Y-65688095D01*
X170159523Y-65688095D01*
X170283333Y-65626190D01*
X170345238Y-65564285D01*
X170407142Y-65440476D01*
X170407142Y-64388095D01*
X171026190Y-65688095D02*
X171026190Y-64388095D01*
X171521428Y-64388095D01*
X171645238Y-64450000D01*
X171707142Y-64511904D01*
X171769047Y-64635714D01*
X171769047Y-64821428D01*
X171707142Y-64945238D01*
X171645238Y-65007142D01*
X171521428Y-65069047D01*
X171026190Y-65069047D01*
X172326190Y-65688095D02*
X172326190Y-64388095D01*
X172821428Y-64388095D01*
X172945238Y-64450000D01*
X173007142Y-64511904D01*
X173069047Y-64635714D01*
X173069047Y-64821428D01*
X173007142Y-64945238D01*
X172945238Y-65007142D01*
X172821428Y-65069047D01*
X172326190Y-65069047D01*
X174245238Y-65688095D02*
X173626190Y-65688095D01*
X173626190Y-64388095D01*
X174926190Y-65069047D02*
X174926190Y-65688095D01*
X174492857Y-64388095D02*
X174926190Y-65069047D01*
X175359523Y-64388095D01*
D12*
X68121428Y-101403571D02*
X68121428Y-99903571D01*
X68478571Y-99903571D01*
X68692857Y-99975000D01*
X68835714Y-100117857D01*
X68907142Y-100260714D01*
X68978571Y-100546428D01*
X68978571Y-100760714D01*
X68907142Y-101046428D01*
X68835714Y-101189285D01*
X68692857Y-101332142D01*
X68478571Y-101403571D01*
X68121428Y-101403571D01*
X69621428Y-101403571D02*
X69621428Y-99903571D01*
X71121428Y-99975000D02*
X70978571Y-99903571D01*
X70764285Y-99903571D01*
X70550000Y-99975000D01*
X70407142Y-100117857D01*
X70335714Y-100260714D01*
X70264285Y-100546428D01*
X70264285Y-100760714D01*
X70335714Y-101046428D01*
X70407142Y-101189285D01*
X70550000Y-101332142D01*
X70764285Y-101403571D01*
X70907142Y-101403571D01*
X71121428Y-101332142D01*
X71192857Y-101260714D01*
X71192857Y-100760714D01*
X70907142Y-100760714D01*
X71835714Y-101403571D02*
X71835714Y-99903571D01*
X72335714Y-99903571D02*
X73192857Y-99903571D01*
X72764285Y-101403571D02*
X72764285Y-99903571D01*
X73621428Y-100975000D02*
X74335714Y-100975000D01*
X73478571Y-101403571D02*
X73978571Y-99903571D01*
X74478571Y-101403571D01*
X75692857Y-101403571D02*
X74978571Y-101403571D01*
X74978571Y-99903571D01*
X67835714Y-103882142D02*
X68050000Y-103953571D01*
X68407142Y-103953571D01*
X68550000Y-103882142D01*
X68621428Y-103810714D01*
X68692857Y-103667857D01*
X68692857Y-103525000D01*
X68621428Y-103382142D01*
X68550000Y-103310714D01*
X68407142Y-103239285D01*
X68121428Y-103167857D01*
X67978571Y-103096428D01*
X67907142Y-103025000D01*
X67835714Y-102882142D01*
X67835714Y-102739285D01*
X67907142Y-102596428D01*
X67978571Y-102525000D01*
X68121428Y-102453571D01*
X68478571Y-102453571D01*
X68692857Y-102525000D01*
X69335714Y-102453571D02*
X69335714Y-103667857D01*
X69407142Y-103810714D01*
X69478571Y-103882142D01*
X69621428Y-103953571D01*
X69907142Y-103953571D01*
X70050000Y-103882142D01*
X70121428Y-103810714D01*
X70192857Y-103667857D01*
X70192857Y-102453571D01*
X70907142Y-103953571D02*
X70907142Y-102453571D01*
X71478571Y-102453571D01*
X71621428Y-102525000D01*
X71692857Y-102596428D01*
X71764285Y-102739285D01*
X71764285Y-102953571D01*
X71692857Y-103096428D01*
X71621428Y-103167857D01*
X71478571Y-103239285D01*
X70907142Y-103239285D01*
X72407142Y-103953571D02*
X72407142Y-102453571D01*
X72978571Y-102453571D01*
X73121428Y-102525000D01*
X73192857Y-102596428D01*
X73264285Y-102739285D01*
X73264285Y-102953571D01*
X73192857Y-103096428D01*
X73121428Y-103167857D01*
X72978571Y-103239285D01*
X72407142Y-103239285D01*
X74621428Y-103953571D02*
X73907142Y-103953571D01*
X73907142Y-102453571D01*
X75407142Y-103239285D02*
X75407142Y-103953571D01*
X74907142Y-102453571D02*
X75407142Y-103239285D01*
X75907142Y-102453571D01*
X83521428Y-72378571D02*
X83521428Y-70878571D01*
X84164285Y-71021428D02*
X84235714Y-70950000D01*
X84378571Y-70878571D01*
X84735714Y-70878571D01*
X84878571Y-70950000D01*
X84950000Y-71021428D01*
X85021428Y-71164285D01*
X85021428Y-71307142D01*
X84950000Y-71521428D01*
X84092857Y-72378571D01*
X85021428Y-72378571D01*
X86521428Y-72235714D02*
X86450000Y-72307142D01*
X86235714Y-72378571D01*
X86092857Y-72378571D01*
X85878571Y-72307142D01*
X85735714Y-72164285D01*
X85664285Y-72021428D01*
X85592857Y-71735714D01*
X85592857Y-71521428D01*
X85664285Y-71235714D01*
X85735714Y-71092857D01*
X85878571Y-70950000D01*
X86092857Y-70878571D01*
X86235714Y-70878571D01*
X86450000Y-70950000D01*
X86521428Y-71021428D01*
X87950000Y-72378571D02*
X87092857Y-72378571D01*
X87521428Y-72378571D02*
X87521428Y-70878571D01*
X87378571Y-71092857D01*
X87235714Y-71235714D01*
X87092857Y-71307142D01*
X107021428Y-72378571D02*
X107021428Y-70878571D01*
X107664285Y-71021428D02*
X107735714Y-70950000D01*
X107878571Y-70878571D01*
X108235714Y-70878571D01*
X108378571Y-70950000D01*
X108450000Y-71021428D01*
X108521428Y-71164285D01*
X108521428Y-71307142D01*
X108450000Y-71521428D01*
X107592857Y-72378571D01*
X108521428Y-72378571D01*
X110021428Y-72235714D02*
X109950000Y-72307142D01*
X109735714Y-72378571D01*
X109592857Y-72378571D01*
X109378571Y-72307142D01*
X109235714Y-72164285D01*
X109164285Y-72021428D01*
X109092857Y-71735714D01*
X109092857Y-71521428D01*
X109164285Y-71235714D01*
X109235714Y-71092857D01*
X109378571Y-70950000D01*
X109592857Y-70878571D01*
X109735714Y-70878571D01*
X109950000Y-70950000D01*
X110021428Y-71021428D01*
X110592857Y-71021428D02*
X110664285Y-70950000D01*
X110807142Y-70878571D01*
X111164285Y-70878571D01*
X111307142Y-70950000D01*
X111378571Y-71021428D01*
X111450000Y-71164285D01*
X111450000Y-71307142D01*
X111378571Y-71521428D01*
X110521428Y-72378571D01*
X111450000Y-72378571D01*
X130421428Y-72378571D02*
X130421428Y-70878571D01*
X131064285Y-71021428D02*
X131135714Y-70950000D01*
X131278571Y-70878571D01*
X131635714Y-70878571D01*
X131778571Y-70950000D01*
X131850000Y-71021428D01*
X131921428Y-71164285D01*
X131921428Y-71307142D01*
X131850000Y-71521428D01*
X130992857Y-72378571D01*
X131921428Y-72378571D01*
X133421428Y-72235714D02*
X133350000Y-72307142D01*
X133135714Y-72378571D01*
X132992857Y-72378571D01*
X132778571Y-72307142D01*
X132635714Y-72164285D01*
X132564285Y-72021428D01*
X132492857Y-71735714D01*
X132492857Y-71521428D01*
X132564285Y-71235714D01*
X132635714Y-71092857D01*
X132778571Y-70950000D01*
X132992857Y-70878571D01*
X133135714Y-70878571D01*
X133350000Y-70950000D01*
X133421428Y-71021428D01*
X133921428Y-70878571D02*
X134850000Y-70878571D01*
X134350000Y-71450000D01*
X134564285Y-71450000D01*
X134707142Y-71521428D01*
X134778571Y-71592857D01*
X134850000Y-71735714D01*
X134850000Y-72092857D01*
X134778571Y-72235714D01*
X134707142Y-72307142D01*
X134564285Y-72378571D01*
X134135714Y-72378571D01*
X133992857Y-72307142D01*
X133921428Y-72235714D01*
X154121428Y-72378571D02*
X154121428Y-70878571D01*
X154764285Y-71021428D02*
X154835714Y-70950000D01*
X154978571Y-70878571D01*
X155335714Y-70878571D01*
X155478571Y-70950000D01*
X155550000Y-71021428D01*
X155621428Y-71164285D01*
X155621428Y-71307142D01*
X155550000Y-71521428D01*
X154692857Y-72378571D01*
X155621428Y-72378571D01*
X157121428Y-72235714D02*
X157050000Y-72307142D01*
X156835714Y-72378571D01*
X156692857Y-72378571D01*
X156478571Y-72307142D01*
X156335714Y-72164285D01*
X156264285Y-72021428D01*
X156192857Y-71735714D01*
X156192857Y-71521428D01*
X156264285Y-71235714D01*
X156335714Y-71092857D01*
X156478571Y-70950000D01*
X156692857Y-70878571D01*
X156835714Y-70878571D01*
X157050000Y-70950000D01*
X157121428Y-71021428D01*
X158407142Y-71378571D02*
X158407142Y-72378571D01*
X158050000Y-70807142D02*
X157692857Y-71878571D01*
X158621428Y-71878571D01*
D10*
X173842857Y-73885714D02*
X174757142Y-73885714D01*
X174300000Y-74342857D02*
X174300000Y-73428571D01*
D12*
X140878571Y-99992857D02*
X139378571Y-99992857D01*
X140450000Y-99492857D01*
X139378571Y-98992857D01*
X140878571Y-98992857D01*
X139378571Y-97992857D02*
X139378571Y-97707142D01*
X139450000Y-97564285D01*
X139592857Y-97421428D01*
X139878571Y-97350000D01*
X140378571Y-97350000D01*
X140664285Y-97421428D01*
X140807142Y-97564285D01*
X140878571Y-97707142D01*
X140878571Y-97992857D01*
X140807142Y-98135714D01*
X140664285Y-98278571D01*
X140378571Y-98350000D01*
X139878571Y-98350000D01*
X139592857Y-98278571D01*
X139450000Y-98135714D01*
X139378571Y-97992857D01*
X139378571Y-96921428D02*
X139378571Y-96064285D01*
X140878571Y-96492857D02*
X139378571Y-96492857D01*
X139378571Y-95278571D02*
X139378571Y-94992857D01*
X139450000Y-94850000D01*
X139592857Y-94707142D01*
X139878571Y-94635714D01*
X140378571Y-94635714D01*
X140664285Y-94707142D01*
X140807142Y-94850000D01*
X140878571Y-94992857D01*
X140878571Y-95278571D01*
X140807142Y-95421428D01*
X140664285Y-95564285D01*
X140378571Y-95635714D01*
X139878571Y-95635714D01*
X139592857Y-95564285D01*
X139450000Y-95421428D01*
X139378571Y-95278571D01*
X140878571Y-93135714D02*
X140164285Y-93635714D01*
X140878571Y-93992857D02*
X139378571Y-93992857D01*
X139378571Y-93421428D01*
X139450000Y-93278571D01*
X139521428Y-93207142D01*
X139664285Y-93135714D01*
X139878571Y-93135714D01*
X140021428Y-93207142D01*
X140092857Y-93278571D01*
X140164285Y-93421428D01*
X140164285Y-93992857D01*
X140878571Y-91350000D02*
X139378571Y-91350000D01*
X139378571Y-90992857D01*
X139450000Y-90778571D01*
X139592857Y-90635714D01*
X139735714Y-90564285D01*
X140021428Y-90492857D01*
X140235714Y-90492857D01*
X140521428Y-90564285D01*
X140664285Y-90635714D01*
X140807142Y-90778571D01*
X140878571Y-90992857D01*
X140878571Y-91350000D01*
X140878571Y-88992857D02*
X140164285Y-89492857D01*
X140878571Y-89850000D02*
X139378571Y-89850000D01*
X139378571Y-89278571D01*
X139450000Y-89135714D01*
X139521428Y-89064285D01*
X139664285Y-88992857D01*
X139878571Y-88992857D01*
X140021428Y-89064285D01*
X140092857Y-89135714D01*
X140164285Y-89278571D01*
X140164285Y-89850000D01*
X140878571Y-88350000D02*
X139378571Y-88350000D01*
X139378571Y-87850000D02*
X140878571Y-87350000D01*
X139378571Y-86850000D01*
X140092857Y-86350000D02*
X140092857Y-85850000D01*
X140878571Y-85635714D02*
X140878571Y-86350000D01*
X139378571Y-86350000D01*
X139378571Y-85635714D01*
X140878571Y-84135714D02*
X140164285Y-84635714D01*
X140878571Y-84992857D02*
X139378571Y-84992857D01*
X139378571Y-84421428D01*
X139450000Y-84278571D01*
X139521428Y-84207142D01*
X139664285Y-84135714D01*
X139878571Y-84135714D01*
X140021428Y-84207142D01*
X140092857Y-84278571D01*
X140164285Y-84421428D01*
X140164285Y-84992857D01*
X162321428Y-105378571D02*
X162678571Y-106878571D01*
X162964285Y-105807142D01*
X163250000Y-106878571D01*
X163607142Y-105378571D01*
X164892857Y-106878571D02*
X164178571Y-106878571D01*
X164178571Y-105378571D01*
X165321428Y-106450000D02*
X166035714Y-106450000D01*
X165178571Y-106878571D02*
X165678571Y-105378571D01*
X166178571Y-106878571D01*
X166678571Y-106878571D02*
X166678571Y-105378571D01*
X167535714Y-106878571D01*
X167535714Y-105378571D01*
X152250000Y-114207142D02*
X152464285Y-114278571D01*
X152821428Y-114278571D01*
X152964285Y-114207142D01*
X153035714Y-114135714D01*
X153107142Y-113992857D01*
X153107142Y-113850000D01*
X153035714Y-113707142D01*
X152964285Y-113635714D01*
X152821428Y-113564285D01*
X152535714Y-113492857D01*
X152392857Y-113421428D01*
X152321428Y-113350000D01*
X152250000Y-113207142D01*
X152250000Y-113064285D01*
X152321428Y-112921428D01*
X152392857Y-112850000D01*
X152535714Y-112778571D01*
X152892857Y-112778571D01*
X153107142Y-112850000D01*
X153750000Y-114278571D02*
X153750000Y-112778571D01*
X154321428Y-112778571D01*
X154464285Y-112850000D01*
X154535714Y-112921428D01*
X154607142Y-113064285D01*
X154607142Y-113278571D01*
X154535714Y-113421428D01*
X154464285Y-113492857D01*
X154321428Y-113564285D01*
X153750000Y-113564285D01*
X155250000Y-114278571D02*
X155250000Y-112778571D01*
X155892857Y-112921428D02*
X155964285Y-112850000D01*
X156107142Y-112778571D01*
X156464285Y-112778571D01*
X156607142Y-112850000D01*
X156678571Y-112921428D01*
X156750000Y-113064285D01*
X156750000Y-113207142D01*
X156678571Y-113421428D01*
X155821428Y-114278571D01*
X156750000Y-114278571D01*
X124750000Y-114307142D02*
X124964285Y-114378571D01*
X125321428Y-114378571D01*
X125464285Y-114307142D01*
X125535714Y-114235714D01*
X125607142Y-114092857D01*
X125607142Y-113950000D01*
X125535714Y-113807142D01*
X125464285Y-113735714D01*
X125321428Y-113664285D01*
X125035714Y-113592857D01*
X124892857Y-113521428D01*
X124821428Y-113450000D01*
X124750000Y-113307142D01*
X124750000Y-113164285D01*
X124821428Y-113021428D01*
X124892857Y-112950000D01*
X125035714Y-112878571D01*
X125392857Y-112878571D01*
X125607142Y-112950000D01*
X126250000Y-114378571D02*
X126250000Y-112878571D01*
X126821428Y-112878571D01*
X126964285Y-112950000D01*
X127035714Y-113021428D01*
X127107142Y-113164285D01*
X127107142Y-113378571D01*
X127035714Y-113521428D01*
X126964285Y-113592857D01*
X126821428Y-113664285D01*
X126250000Y-113664285D01*
X127750000Y-114378571D02*
X127750000Y-112878571D01*
X129250000Y-114378571D02*
X128392857Y-114378571D01*
X128821428Y-114378571D02*
X128821428Y-112878571D01*
X128678571Y-113092857D01*
X128535714Y-113235714D01*
X128392857Y-113307142D01*
X100528571Y-116650000D02*
X101242857Y-116650000D01*
X100385714Y-117078571D02*
X100885714Y-115578571D01*
X101385714Y-117078571D01*
X101885714Y-117078571D02*
X101885714Y-115578571D01*
X102242857Y-115578571D01*
X102457142Y-115650000D01*
X102600000Y-115792857D01*
X102671428Y-115935714D01*
X102742857Y-116221428D01*
X102742857Y-116435714D01*
X102671428Y-116721428D01*
X102600000Y-116864285D01*
X102457142Y-117007142D01*
X102242857Y-117078571D01*
X101885714Y-117078571D01*
X104242857Y-116935714D02*
X104171428Y-117007142D01*
X103957142Y-117078571D01*
X103814285Y-117078571D01*
X103600000Y-117007142D01*
X103457142Y-116864285D01*
X103385714Y-116721428D01*
X103314285Y-116435714D01*
X103314285Y-116221428D01*
X103385714Y-115935714D01*
X103457142Y-115792857D01*
X103600000Y-115650000D01*
X103814285Y-115578571D01*
X103957142Y-115578571D01*
X104171428Y-115650000D01*
X104242857Y-115721428D01*
X104814285Y-115721428D02*
X104885714Y-115650000D01*
X105028571Y-115578571D01*
X105385714Y-115578571D01*
X105528571Y-115650000D01*
X105600000Y-115721428D01*
X105671428Y-115864285D01*
X105671428Y-116007142D01*
X105600000Y-116221428D01*
X104742857Y-117078571D01*
X105671428Y-117078571D01*
X82028571Y-116650000D02*
X82742857Y-116650000D01*
X81885714Y-117078571D02*
X82385714Y-115578571D01*
X82885714Y-117078571D01*
X83385714Y-117078571D02*
X83385714Y-115578571D01*
X83742857Y-115578571D01*
X83957142Y-115650000D01*
X84100000Y-115792857D01*
X84171428Y-115935714D01*
X84242857Y-116221428D01*
X84242857Y-116435714D01*
X84171428Y-116721428D01*
X84100000Y-116864285D01*
X83957142Y-117007142D01*
X83742857Y-117078571D01*
X83385714Y-117078571D01*
X85742857Y-116935714D02*
X85671428Y-117007142D01*
X85457142Y-117078571D01*
X85314285Y-117078571D01*
X85100000Y-117007142D01*
X84957142Y-116864285D01*
X84885714Y-116721428D01*
X84814285Y-116435714D01*
X84814285Y-116221428D01*
X84885714Y-115935714D01*
X84957142Y-115792857D01*
X85100000Y-115650000D01*
X85314285Y-115578571D01*
X85457142Y-115578571D01*
X85671428Y-115650000D01*
X85742857Y-115721428D01*
X87171428Y-117078571D02*
X86314285Y-117078571D01*
X86742857Y-117078571D02*
X86742857Y-115578571D01*
X86600000Y-115792857D01*
X86457142Y-115935714D01*
X86314285Y-116007142D01*
D10*
X83242857Y-110685714D02*
X84157142Y-110685714D01*
X83700000Y-111142857D02*
X83700000Y-110228571D01*
D12*
X106485714Y-109507142D02*
X106700000Y-109578571D01*
X107057142Y-109578571D01*
X107200000Y-109507142D01*
X107271428Y-109435714D01*
X107342857Y-109292857D01*
X107342857Y-109150000D01*
X107271428Y-109007142D01*
X107200000Y-108935714D01*
X107057142Y-108864285D01*
X106771428Y-108792857D01*
X106628571Y-108721428D01*
X106557142Y-108650000D01*
X106485714Y-108507142D01*
X106485714Y-108364285D01*
X106557142Y-108221428D01*
X106628571Y-108150000D01*
X106771428Y-108078571D01*
X107128571Y-108078571D01*
X107342857Y-108150000D01*
X107771428Y-108078571D02*
X108628571Y-108078571D01*
X108200000Y-109578571D02*
X108200000Y-108078571D01*
X109057142Y-109150000D02*
X109771428Y-109150000D01*
X108914285Y-109578571D02*
X109414285Y-108078571D01*
X109914285Y-109578571D01*
X110200000Y-108078571D02*
X111057142Y-108078571D01*
X110628571Y-109578571D02*
X110628571Y-108078571D01*
X111557142Y-108078571D02*
X111557142Y-109292857D01*
X111628571Y-109435714D01*
X111700000Y-109507142D01*
X111842857Y-109578571D01*
X112128571Y-109578571D01*
X112271428Y-109507142D01*
X112342857Y-109435714D01*
X112414285Y-109292857D01*
X112414285Y-108078571D01*
X113057142Y-109507142D02*
X113271428Y-109578571D01*
X113628571Y-109578571D01*
X113771428Y-109507142D01*
X113842857Y-109435714D01*
X113914285Y-109292857D01*
X113914285Y-109150000D01*
X113842857Y-109007142D01*
X113771428Y-108935714D01*
X113628571Y-108864285D01*
X113342857Y-108792857D01*
X113200000Y-108721428D01*
X113128571Y-108650000D01*
X113057142Y-108507142D01*
X113057142Y-108364285D01*
X113128571Y-108221428D01*
X113200000Y-108150000D01*
X113342857Y-108078571D01*
X113700000Y-108078571D01*
X113914285Y-108150000D01*
X77635714Y-109078571D02*
X77635714Y-107578571D01*
X78207142Y-107578571D01*
X78350000Y-107650000D01*
X78421428Y-107721428D01*
X78492857Y-107864285D01*
X78492857Y-108078571D01*
X78421428Y-108221428D01*
X78350000Y-108292857D01*
X78207142Y-108364285D01*
X77635714Y-108364285D01*
X79421428Y-107578571D02*
X79707142Y-107578571D01*
X79850000Y-107650000D01*
X79992857Y-107792857D01*
X80064285Y-108078571D01*
X80064285Y-108578571D01*
X79992857Y-108864285D01*
X79850000Y-109007142D01*
X79707142Y-109078571D01*
X79421428Y-109078571D01*
X79278571Y-109007142D01*
X79135714Y-108864285D01*
X79064285Y-108578571D01*
X79064285Y-108078571D01*
X79135714Y-107792857D01*
X79278571Y-107650000D01*
X79421428Y-107578571D01*
X80564285Y-107578571D02*
X80921428Y-109078571D01*
X81207142Y-108007142D01*
X81492857Y-109078571D01*
X81850000Y-107578571D01*
X82421428Y-108292857D02*
X82921428Y-108292857D01*
X83135714Y-109078571D02*
X82421428Y-109078571D01*
X82421428Y-107578571D01*
X83135714Y-107578571D01*
X84635714Y-109078571D02*
X84135714Y-108364285D01*
X83778571Y-109078571D02*
X83778571Y-107578571D01*
X84350000Y-107578571D01*
X84492857Y-107650000D01*
X84564285Y-107721428D01*
X84635714Y-107864285D01*
X84635714Y-108078571D01*
X84564285Y-108221428D01*
X84492857Y-108292857D01*
X84350000Y-108364285D01*
X83778571Y-108364285D01*
X69892857Y-78978571D02*
X69392857Y-78264285D01*
X69035714Y-78978571D02*
X69035714Y-77478571D01*
X69607142Y-77478571D01*
X69750000Y-77550000D01*
X69821428Y-77621428D01*
X69892857Y-77764285D01*
X69892857Y-77978571D01*
X69821428Y-78121428D01*
X69750000Y-78192857D01*
X69607142Y-78264285D01*
X69035714Y-78264285D01*
X70535714Y-77478571D02*
X70535714Y-78692857D01*
X70607142Y-78835714D01*
X70678571Y-78907142D01*
X70821428Y-78978571D01*
X71107142Y-78978571D01*
X71250000Y-78907142D01*
X71321428Y-78835714D01*
X71392857Y-78692857D01*
X71392857Y-77478571D01*
X72107142Y-78978571D02*
X72107142Y-77478571D01*
X72964285Y-78978571D01*
X72964285Y-77478571D01*
X69035714Y-66292857D02*
X69250000Y-66364285D01*
X69321429Y-66435714D01*
X69392857Y-66578571D01*
X69392857Y-66792857D01*
X69321429Y-66935714D01*
X69250000Y-67007142D01*
X69107143Y-67078571D01*
X68535714Y-67078571D01*
X68535714Y-65578571D01*
X69035714Y-65578571D01*
X69178571Y-65650000D01*
X69250000Y-65721428D01*
X69321429Y-65864285D01*
X69321429Y-66007142D01*
X69250000Y-66150000D01*
X69178571Y-66221428D01*
X69035714Y-66292857D01*
X68535714Y-66292857D01*
X70321429Y-65578571D02*
X70607143Y-65578571D01*
X70750000Y-65650000D01*
X70892857Y-65792857D01*
X70964286Y-66078571D01*
X70964286Y-66578571D01*
X70892857Y-66864285D01*
X70750000Y-67007142D01*
X70607143Y-67078571D01*
X70321429Y-67078571D01*
X70178571Y-67007142D01*
X70035714Y-66864285D01*
X69964286Y-66578571D01*
X69964286Y-66078571D01*
X70035714Y-65792857D01*
X70178571Y-65650000D01*
X70321429Y-65578571D01*
X71892857Y-65578571D02*
X72178571Y-65578571D01*
X72321429Y-65650000D01*
X72464286Y-65792857D01*
X72535714Y-66078571D01*
X72535714Y-66578571D01*
X72464286Y-66864285D01*
X72321429Y-67007142D01*
X72178571Y-67078571D01*
X71892857Y-67078571D01*
X71750000Y-67007142D01*
X71607143Y-66864285D01*
X71535714Y-66578571D01*
X71535714Y-66078571D01*
X71607143Y-65792857D01*
X71750000Y-65650000D01*
X71892857Y-65578571D01*
X72964286Y-65578571D02*
X73821429Y-65578571D01*
X73392857Y-67078571D02*
X73392857Y-65578571D01*
X75921428Y-87578571D02*
X75421428Y-86864285D01*
X75064285Y-87578571D02*
X75064285Y-86078571D01*
X75635714Y-86078571D01*
X75778571Y-86150000D01*
X75850000Y-86221428D01*
X75921428Y-86364285D01*
X75921428Y-86578571D01*
X75850000Y-86721428D01*
X75778571Y-86792857D01*
X75635714Y-86864285D01*
X75064285Y-86864285D01*
X76564285Y-86792857D02*
X77064285Y-86792857D01*
X77278571Y-87578571D02*
X76564285Y-87578571D01*
X76564285Y-86078571D01*
X77278571Y-86078571D01*
X77850000Y-87507142D02*
X78064285Y-87578571D01*
X78421428Y-87578571D01*
X78564285Y-87507142D01*
X78635714Y-87435714D01*
X78707142Y-87292857D01*
X78707142Y-87150000D01*
X78635714Y-87007142D01*
X78564285Y-86935714D01*
X78421428Y-86864285D01*
X78135714Y-86792857D01*
X77992857Y-86721428D01*
X77921428Y-86650000D01*
X77850000Y-86507142D01*
X77850000Y-86364285D01*
X77921428Y-86221428D01*
X77992857Y-86150000D01*
X78135714Y-86078571D01*
X78492857Y-86078571D01*
X78707142Y-86150000D01*
X79350000Y-86792857D02*
X79850000Y-86792857D01*
X80064285Y-87578571D02*
X79350000Y-87578571D01*
X79350000Y-86078571D01*
X80064285Y-86078571D01*
X80492857Y-86078571D02*
X81350000Y-86078571D01*
X80921428Y-87578571D02*
X80921428Y-86078571D01*
D13*
X97690476Y-53307619D02*
X98166666Y-53307619D01*
X98214285Y-52831428D01*
X98166666Y-52879047D01*
X98071428Y-52926666D01*
X97833333Y-52926666D01*
X97738095Y-52879047D01*
X97690476Y-52831428D01*
X97642857Y-52736190D01*
X97642857Y-52498095D01*
X97690476Y-52402857D01*
X97738095Y-52355238D01*
X97833333Y-52307619D01*
X98071428Y-52307619D01*
X98166666Y-52355238D01*
X98214285Y-52402857D01*
X97357142Y-53307619D02*
X97023809Y-52307619D01*
X96690476Y-53307619D01*
X121190476Y-53307619D02*
X121666666Y-53307619D01*
X121714285Y-52831428D01*
X121666666Y-52879047D01*
X121571428Y-52926666D01*
X121333333Y-52926666D01*
X121238095Y-52879047D01*
X121190476Y-52831428D01*
X121142857Y-52736190D01*
X121142857Y-52498095D01*
X121190476Y-52402857D01*
X121238095Y-52355238D01*
X121333333Y-52307619D01*
X121571428Y-52307619D01*
X121666666Y-52355238D01*
X121714285Y-52402857D01*
X120857142Y-53307619D02*
X120523809Y-52307619D01*
X120190476Y-53307619D01*
X144590476Y-53307619D02*
X145066666Y-53307619D01*
X145114285Y-52831428D01*
X145066666Y-52879047D01*
X144971428Y-52926666D01*
X144733333Y-52926666D01*
X144638095Y-52879047D01*
X144590476Y-52831428D01*
X144542857Y-52736190D01*
X144542857Y-52498095D01*
X144590476Y-52402857D01*
X144638095Y-52355238D01*
X144733333Y-52307619D01*
X144971428Y-52307619D01*
X145066666Y-52355238D01*
X145114285Y-52402857D01*
X144257142Y-53307619D02*
X143923809Y-52307619D01*
X143590476Y-53307619D01*
X168390476Y-53347619D02*
X168866666Y-53347619D01*
X168914285Y-52871428D01*
X168866666Y-52919047D01*
X168771428Y-52966666D01*
X168533333Y-52966666D01*
X168438095Y-52919047D01*
X168390476Y-52871428D01*
X168342857Y-52776190D01*
X168342857Y-52538095D01*
X168390476Y-52442857D01*
X168438095Y-52395238D01*
X168533333Y-52347619D01*
X168771428Y-52347619D01*
X168866666Y-52395238D01*
X168914285Y-52442857D01*
X168057142Y-53347619D02*
X167723809Y-52347619D01*
X167390476Y-53347619D01*
X140582125Y-129752380D02*
X140105935Y-129752380D01*
X140058316Y-130228571D01*
X140105935Y-130180952D01*
X140201173Y-130133333D01*
X140439268Y-130133333D01*
X140534506Y-130180952D01*
X140582125Y-130228571D01*
X140629744Y-130323809D01*
X140629744Y-130561904D01*
X140582125Y-130657142D01*
X140534506Y-130704761D01*
X140439268Y-130752380D01*
X140201173Y-130752380D01*
X140105935Y-130704761D01*
X140058316Y-130657142D01*
X140915459Y-129752380D02*
X141248792Y-130752380D01*
X141582125Y-129752380D01*
X113028541Y-129752380D02*
X112552351Y-129752380D01*
X112504732Y-130228571D01*
X112552351Y-130180952D01*
X112647589Y-130133333D01*
X112885684Y-130133333D01*
X112980922Y-130180952D01*
X113028541Y-130228571D01*
X113076160Y-130323809D01*
X113076160Y-130561904D01*
X113028541Y-130657142D01*
X112980922Y-130704761D01*
X112885684Y-130752380D01*
X112647589Y-130752380D01*
X112552351Y-130704761D01*
X112504732Y-130657142D01*
X113361875Y-129752380D02*
X113695208Y-130752380D01*
X114028541Y-129752380D01*
X93094941Y-129752380D02*
X92618751Y-129752380D01*
X92571132Y-130228571D01*
X92618751Y-130180952D01*
X92713989Y-130133333D01*
X92952084Y-130133333D01*
X93047322Y-130180952D01*
X93094941Y-130228571D01*
X93142560Y-130323809D01*
X93142560Y-130561904D01*
X93094941Y-130657142D01*
X93047322Y-130704761D01*
X92952084Y-130752380D01*
X92713989Y-130752380D01*
X92618751Y-130704761D01*
X92571132Y-130657142D01*
X93428275Y-129752380D02*
X93761608Y-130752380D01*
X94094941Y-129752380D01*
X98926190Y-61847619D02*
X98307142Y-61847619D01*
X98640476Y-61466666D01*
X98497619Y-61466666D01*
X98402380Y-61419047D01*
X98354761Y-61371428D01*
X98307142Y-61276190D01*
X98307142Y-61038095D01*
X98354761Y-60942857D01*
X98402380Y-60895238D01*
X98497619Y-60847619D01*
X98783333Y-60847619D01*
X98878571Y-60895238D01*
X98926190Y-60942857D01*
X97878571Y-60942857D02*
X97830952Y-60895238D01*
X97878571Y-60847619D01*
X97926190Y-60895238D01*
X97878571Y-60942857D01*
X97878571Y-60847619D01*
X97497619Y-61847619D02*
X96878571Y-61847619D01*
X97211904Y-61466666D01*
X97069047Y-61466666D01*
X96973809Y-61419047D01*
X96926190Y-61371428D01*
X96878571Y-61276190D01*
X96878571Y-61038095D01*
X96926190Y-60942857D01*
X96973809Y-60895238D01*
X97069047Y-60847619D01*
X97354761Y-60847619D01*
X97450000Y-60895238D01*
X97497619Y-60942857D01*
X96592857Y-61847619D02*
X96259523Y-60847619D01*
X95926190Y-61847619D01*
X122426190Y-61847619D02*
X121807142Y-61847619D01*
X122140476Y-61466666D01*
X121997619Y-61466666D01*
X121902380Y-61419047D01*
X121854761Y-61371428D01*
X121807142Y-61276190D01*
X121807142Y-61038095D01*
X121854761Y-60942857D01*
X121902380Y-60895238D01*
X121997619Y-60847619D01*
X122283333Y-60847619D01*
X122378571Y-60895238D01*
X122426190Y-60942857D01*
X121378571Y-60942857D02*
X121330952Y-60895238D01*
X121378571Y-60847619D01*
X121426190Y-60895238D01*
X121378571Y-60942857D01*
X121378571Y-60847619D01*
X120997619Y-61847619D02*
X120378571Y-61847619D01*
X120711904Y-61466666D01*
X120569047Y-61466666D01*
X120473809Y-61419047D01*
X120426190Y-61371428D01*
X120378571Y-61276190D01*
X120378571Y-61038095D01*
X120426190Y-60942857D01*
X120473809Y-60895238D01*
X120569047Y-60847619D01*
X120854761Y-60847619D01*
X120950000Y-60895238D01*
X120997619Y-60942857D01*
X120092857Y-61847619D02*
X119759523Y-60847619D01*
X119426190Y-61847619D01*
X145926190Y-61847619D02*
X145307142Y-61847619D01*
X145640476Y-61466666D01*
X145497619Y-61466666D01*
X145402380Y-61419047D01*
X145354761Y-61371428D01*
X145307142Y-61276190D01*
X145307142Y-61038095D01*
X145354761Y-60942857D01*
X145402380Y-60895238D01*
X145497619Y-60847619D01*
X145783333Y-60847619D01*
X145878571Y-60895238D01*
X145926190Y-60942857D01*
X144878571Y-60942857D02*
X144830952Y-60895238D01*
X144878571Y-60847619D01*
X144926190Y-60895238D01*
X144878571Y-60942857D01*
X144878571Y-60847619D01*
X144497619Y-61847619D02*
X143878571Y-61847619D01*
X144211904Y-61466666D01*
X144069047Y-61466666D01*
X143973809Y-61419047D01*
X143926190Y-61371428D01*
X143878571Y-61276190D01*
X143878571Y-61038095D01*
X143926190Y-60942857D01*
X143973809Y-60895238D01*
X144069047Y-60847619D01*
X144354761Y-60847619D01*
X144450000Y-60895238D01*
X144497619Y-60942857D01*
X143592857Y-61847619D02*
X143259523Y-60847619D01*
X142926190Y-61847619D01*
X169676190Y-61847619D02*
X169057142Y-61847619D01*
X169390476Y-61466666D01*
X169247619Y-61466666D01*
X169152380Y-61419047D01*
X169104761Y-61371428D01*
X169057142Y-61276190D01*
X169057142Y-61038095D01*
X169104761Y-60942857D01*
X169152380Y-60895238D01*
X169247619Y-60847619D01*
X169533333Y-60847619D01*
X169628571Y-60895238D01*
X169676190Y-60942857D01*
X168628571Y-60942857D02*
X168580952Y-60895238D01*
X168628571Y-60847619D01*
X168676190Y-60895238D01*
X168628571Y-60942857D01*
X168628571Y-60847619D01*
X168247619Y-61847619D02*
X167628571Y-61847619D01*
X167961904Y-61466666D01*
X167819047Y-61466666D01*
X167723809Y-61419047D01*
X167676190Y-61371428D01*
X167628571Y-61276190D01*
X167628571Y-61038095D01*
X167676190Y-60942857D01*
X167723809Y-60895238D01*
X167819047Y-60847619D01*
X168104761Y-60847619D01*
X168200000Y-60895238D01*
X168247619Y-60942857D01*
X167342857Y-61847619D02*
X167009523Y-60847619D01*
X166676190Y-61847619D01*
X139473809Y-121752380D02*
X140092857Y-121752380D01*
X139759523Y-122133333D01*
X139902380Y-122133333D01*
X139997619Y-122180952D01*
X140045238Y-122228571D01*
X140092857Y-122323809D01*
X140092857Y-122561904D01*
X140045238Y-122657142D01*
X139997619Y-122704761D01*
X139902380Y-122752380D01*
X139616666Y-122752380D01*
X139521428Y-122704761D01*
X139473809Y-122657142D01*
X140521428Y-122657142D02*
X140569047Y-122704761D01*
X140521428Y-122752380D01*
X140473809Y-122704761D01*
X140521428Y-122657142D01*
X140521428Y-122752380D01*
X140902380Y-121752380D02*
X141521428Y-121752380D01*
X141188095Y-122133333D01*
X141330952Y-122133333D01*
X141426190Y-122180952D01*
X141473809Y-122228571D01*
X141521428Y-122323809D01*
X141521428Y-122561904D01*
X141473809Y-122657142D01*
X141426190Y-122704761D01*
X141330952Y-122752380D01*
X141045238Y-122752380D01*
X140950000Y-122704761D01*
X140902380Y-122657142D01*
X141807142Y-121752380D02*
X142140476Y-122752380D01*
X142473809Y-121752380D01*
X111973809Y-121752380D02*
X112592857Y-121752380D01*
X112259523Y-122133333D01*
X112402380Y-122133333D01*
X112497619Y-122180952D01*
X112545238Y-122228571D01*
X112592857Y-122323809D01*
X112592857Y-122561904D01*
X112545238Y-122657142D01*
X112497619Y-122704761D01*
X112402380Y-122752380D01*
X112116666Y-122752380D01*
X112021428Y-122704761D01*
X111973809Y-122657142D01*
X113021428Y-122657142D02*
X113069047Y-122704761D01*
X113021428Y-122752380D01*
X112973809Y-122704761D01*
X113021428Y-122657142D01*
X113021428Y-122752380D01*
X113402380Y-121752380D02*
X114021428Y-121752380D01*
X113688095Y-122133333D01*
X113830952Y-122133333D01*
X113926190Y-122180952D01*
X113973809Y-122228571D01*
X114021428Y-122323809D01*
X114021428Y-122561904D01*
X113973809Y-122657142D01*
X113926190Y-122704761D01*
X113830952Y-122752380D01*
X113545238Y-122752380D01*
X113450000Y-122704761D01*
X113402380Y-122657142D01*
X114307142Y-121752380D02*
X114640476Y-122752380D01*
X114973809Y-121752380D01*
X91973809Y-121752380D02*
X92592857Y-121752380D01*
X92259523Y-122133333D01*
X92402380Y-122133333D01*
X92497619Y-122180952D01*
X92545238Y-122228571D01*
X92592857Y-122323809D01*
X92592857Y-122561904D01*
X92545238Y-122657142D01*
X92497619Y-122704761D01*
X92402380Y-122752380D01*
X92116666Y-122752380D01*
X92021428Y-122704761D01*
X91973809Y-122657142D01*
X93021428Y-122657142D02*
X93069047Y-122704761D01*
X93021428Y-122752380D01*
X92973809Y-122704761D01*
X93021428Y-122657142D01*
X93021428Y-122752380D01*
X93402380Y-121752380D02*
X94021428Y-121752380D01*
X93688095Y-122133333D01*
X93830952Y-122133333D01*
X93926190Y-122180952D01*
X93973809Y-122228571D01*
X94021428Y-122323809D01*
X94021428Y-122561904D01*
X93973809Y-122657142D01*
X93926190Y-122704761D01*
X93830952Y-122752380D01*
X93545238Y-122752380D01*
X93450000Y-122704761D01*
X93402380Y-122657142D01*
X94307142Y-121752380D02*
X94640476Y-122752380D01*
X94973809Y-121752380D01*
X76009523Y-129752380D02*
X75533333Y-129752380D01*
X75485714Y-130228571D01*
X75533333Y-130180952D01*
X75628571Y-130133333D01*
X75866666Y-130133333D01*
X75961904Y-130180952D01*
X76009523Y-130228571D01*
X76057142Y-130323809D01*
X76057142Y-130561904D01*
X76009523Y-130657142D01*
X75961904Y-130704761D01*
X75866666Y-130752380D01*
X75628571Y-130752380D01*
X75533333Y-130704761D01*
X75485714Y-130657142D01*
X76342857Y-129752380D02*
X76676190Y-130752380D01*
X77009523Y-129752380D01*
X74723809Y-121752380D02*
X75342857Y-121752380D01*
X75009523Y-122133333D01*
X75152380Y-122133333D01*
X75247619Y-122180952D01*
X75295238Y-122228571D01*
X75342857Y-122323809D01*
X75342857Y-122561904D01*
X75295238Y-122657142D01*
X75247619Y-122704761D01*
X75152380Y-122752380D01*
X74866666Y-122752380D01*
X74771428Y-122704761D01*
X74723809Y-122657142D01*
X75771428Y-122657142D02*
X75819047Y-122704761D01*
X75771428Y-122752380D01*
X75723809Y-122704761D01*
X75771428Y-122657142D01*
X75771428Y-122752380D01*
X76152380Y-121752380D02*
X76771428Y-121752380D01*
X76438095Y-122133333D01*
X76580952Y-122133333D01*
X76676190Y-122180952D01*
X76723809Y-122228571D01*
X76771428Y-122323809D01*
X76771428Y-122561904D01*
X76723809Y-122657142D01*
X76676190Y-122704761D01*
X76580952Y-122752380D01*
X76295238Y-122752380D01*
X76200000Y-122704761D01*
X76152380Y-122657142D01*
X77057142Y-121752380D02*
X77390476Y-122752380D01*
X77723809Y-121752380D01*
D10*
%TO.C,J10*%
X155765000Y-101050000D02*
X155765000Y-81745000D01*
X155765000Y-81745000D02*
X158175000Y-81745000D01*
X158175000Y-81745000D02*
X158175000Y-102575000D01*
X158175000Y-102575000D02*
X156970000Y-102575000D01*
%TO.C,U1*%
X89120000Y-93300000D02*
X89120000Y-94335000D01*
X89120000Y-94335000D02*
X99280000Y-94335000D01*
X99280000Y-94335000D02*
X99280000Y-93300000D01*
X89200000Y-99300000D02*
X89200000Y-99300000D01*
X89200000Y-99200000D02*
X89200000Y-99200000D01*
X89200000Y-99200000D02*
G75*
G02*
X89200000Y-99300000I0J-50000D01*
G01*
X89200000Y-99300000D02*
G75*
G02*
X89200000Y-99200000I0J50000D01*
G01*
D14*
%TO.C,C14*%
X134960000Y-92909420D02*
X134960000Y-93190580D01*
X133940000Y-92909420D02*
X133940000Y-93190580D01*
D15*
%TO.C,*%
G36*
X94645706Y-110438167D02*
G01*
X94877164Y-110499359D01*
X95121426Y-110611847D01*
X95350446Y-110772436D01*
X95550845Y-110969496D01*
X95709245Y-111191391D01*
X95741488Y-111250908D01*
X95785986Y-111332674D01*
X95821963Y-111372095D01*
X95865732Y-111381187D01*
X95910921Y-111375751D01*
X96040259Y-111373188D01*
X96201801Y-111397492D01*
X96376610Y-111444600D01*
X96545751Y-111510449D01*
X96551854Y-111513286D01*
X96765252Y-111644542D01*
X96952103Y-111821994D01*
X97100878Y-112033993D01*
X97137641Y-112105276D01*
X97180199Y-112199255D01*
X97207805Y-112277319D01*
X97223670Y-112357302D01*
X97231002Y-112457036D01*
X97233012Y-112594353D01*
X97233059Y-112635411D01*
X97230903Y-112795563D01*
X97222761Y-112914026D01*
X97206126Y-113008773D01*
X97178488Y-113097779D01*
X97162928Y-113137944D01*
X97066542Y-113315103D01*
X96927063Y-113490050D01*
X96759605Y-113647014D01*
X96579280Y-113770224D01*
X96534685Y-113793549D01*
X96336589Y-113890470D01*
X94125295Y-113895841D01*
X93765356Y-113896404D01*
X93421628Y-113896339D01*
X93098971Y-113895683D01*
X92802248Y-113894476D01*
X92536322Y-113892755D01*
X92306054Y-113890558D01*
X92116308Y-113887923D01*
X91971946Y-113884888D01*
X91877830Y-113881492D01*
X91839295Y-113877936D01*
X91626833Y-113781597D01*
X91438819Y-113636741D01*
X91286887Y-113453227D01*
X91236911Y-113367529D01*
X91190822Y-113237871D01*
X91162130Y-113073522D01*
X91152703Y-112897501D01*
X91164408Y-112732829D01*
X91179457Y-112659359D01*
X91254472Y-112483160D01*
X91375548Y-112316096D01*
X91529139Y-112171621D01*
X91701697Y-112063187D01*
X91827681Y-112015621D01*
X91909545Y-111987891D01*
X91951371Y-111950558D01*
X91972280Y-111885544D01*
X91973843Y-111877428D01*
X92043433Y-111661274D01*
X92161937Y-111470755D01*
X92321544Y-111312695D01*
X92514441Y-111193915D01*
X92732817Y-111121237D01*
X92860082Y-111103452D01*
X93059105Y-111088824D01*
X93278435Y-110874036D01*
X93520611Y-110675201D01*
X93782859Y-110531157D01*
X94060748Y-110442945D01*
X94349841Y-110411601D01*
X94645706Y-110438167D01*
G37*
X94645706Y-110438167D02*
X94877164Y-110499359D01*
X95121426Y-110611847D01*
X95350446Y-110772436D01*
X95550845Y-110969496D01*
X95709245Y-111191391D01*
X95741488Y-111250908D01*
X95785986Y-111332674D01*
X95821963Y-111372095D01*
X95865732Y-111381187D01*
X95910921Y-111375751D01*
X96040259Y-111373188D01*
X96201801Y-111397492D01*
X96376610Y-111444600D01*
X96545751Y-111510449D01*
X96551854Y-111513286D01*
X96765252Y-111644542D01*
X96952103Y-111821994D01*
X97100878Y-112033993D01*
X97137641Y-112105276D01*
X97180199Y-112199255D01*
X97207805Y-112277319D01*
X97223670Y-112357302D01*
X97231002Y-112457036D01*
X97233012Y-112594353D01*
X97233059Y-112635411D01*
X97230903Y-112795563D01*
X97222761Y-112914026D01*
X97206126Y-113008773D01*
X97178488Y-113097779D01*
X97162928Y-113137944D01*
X97066542Y-113315103D01*
X96927063Y-113490050D01*
X96759605Y-113647014D01*
X96579280Y-113770224D01*
X96534685Y-113793549D01*
X96336589Y-113890470D01*
X94125295Y-113895841D01*
X93765356Y-113896404D01*
X93421628Y-113896339D01*
X93098971Y-113895683D01*
X92802248Y-113894476D01*
X92536322Y-113892755D01*
X92306054Y-113890558D01*
X92116308Y-113887923D01*
X91971946Y-113884888D01*
X91877830Y-113881492D01*
X91839295Y-113877936D01*
X91626833Y-113781597D01*
X91438819Y-113636741D01*
X91286887Y-113453227D01*
X91236911Y-113367529D01*
X91190822Y-113237871D01*
X91162130Y-113073522D01*
X91152703Y-112897501D01*
X91164408Y-112732829D01*
X91179457Y-112659359D01*
X91254472Y-112483160D01*
X91375548Y-112316096D01*
X91529139Y-112171621D01*
X91701697Y-112063187D01*
X91827681Y-112015621D01*
X91909545Y-111987891D01*
X91951371Y-111950558D01*
X91972280Y-111885544D01*
X91973843Y-111877428D01*
X92043433Y-111661274D01*
X92161937Y-111470755D01*
X92321544Y-111312695D01*
X92514441Y-111193915D01*
X92732817Y-111121237D01*
X92860082Y-111103452D01*
X93059105Y-111088824D01*
X93278435Y-110874036D01*
X93520611Y-110675201D01*
X93782859Y-110531157D01*
X94060748Y-110442945D01*
X94349841Y-110411601D01*
X94645706Y-110438167D01*
G36*
X99941615Y-107922526D02*
G01*
X100027059Y-107959562D01*
X100176366Y-108066202D01*
X100284216Y-108206461D01*
X100349336Y-108369718D01*
X100370451Y-108545349D01*
X100346285Y-108722733D01*
X100275563Y-108891247D01*
X100157011Y-109040269D01*
X100156796Y-109040473D01*
X100006957Y-109144757D01*
X99838042Y-109199920D01*
X99661003Y-109208515D01*
X99486789Y-109173094D01*
X99326351Y-109096212D01*
X99190640Y-108980420D01*
X99090606Y-108828273D01*
X99073614Y-108787926D01*
X99042421Y-108705882D01*
X97860221Y-108705882D01*
X96949177Y-109617294D01*
X96757025Y-109809156D01*
X96577917Y-109987285D01*
X96416251Y-110147359D01*
X96276425Y-110285056D01*
X96162836Y-110396055D01*
X96079881Y-110476035D01*
X96031958Y-110520673D01*
X96021759Y-110528705D01*
X95993951Y-110509019D01*
X95937647Y-110457680D01*
X95872879Y-110393691D01*
X95740373Y-110258678D01*
X96710661Y-109288044D01*
X97416087Y-108582367D01*
X99431890Y-108582367D01*
X99468864Y-108684493D01*
X99553029Y-108767598D01*
X99572105Y-108778831D01*
X99687383Y-108819722D01*
X99788289Y-108804827D01*
X99879946Y-108738063D01*
X99951718Y-108631650D01*
X99970097Y-108519499D01*
X99937443Y-108414478D01*
X99856117Y-108329452D01*
X99799415Y-108299071D01*
X99721464Y-108273082D01*
X99659290Y-108277388D01*
X99596784Y-108303041D01*
X99496582Y-108377522D01*
X99441373Y-108475337D01*
X99431890Y-108582367D01*
X97416087Y-108582367D01*
X97680950Y-108317411D01*
X99067000Y-108317411D01*
X99134921Y-108196562D01*
X99248501Y-108051462D01*
X99396402Y-107948734D01*
X99568183Y-107891153D01*
X99753402Y-107881492D01*
X99941615Y-107922526D01*
G37*
X99941615Y-107922526D02*
X100027059Y-107959562D01*
X100176366Y-108066202D01*
X100284216Y-108206461D01*
X100349336Y-108369718D01*
X100370451Y-108545349D01*
X100346285Y-108722733D01*
X100275563Y-108891247D01*
X100157011Y-109040269D01*
X100156796Y-109040473D01*
X100006957Y-109144757D01*
X99838042Y-109199920D01*
X99661003Y-109208515D01*
X99486789Y-109173094D01*
X99326351Y-109096212D01*
X99190640Y-108980420D01*
X99090606Y-108828273D01*
X99073614Y-108787926D01*
X99042421Y-108705882D01*
X97860221Y-108705882D01*
X96949177Y-109617294D01*
X96757025Y-109809156D01*
X96577917Y-109987285D01*
X96416251Y-110147359D01*
X96276425Y-110285056D01*
X96162836Y-110396055D01*
X96079881Y-110476035D01*
X96031958Y-110520673D01*
X96021759Y-110528705D01*
X95993951Y-110509019D01*
X95937647Y-110457680D01*
X95872879Y-110393691D01*
X95740373Y-110258678D01*
X96710661Y-109288044D01*
X97416087Y-108582367D01*
X99431890Y-108582367D01*
X99468864Y-108684493D01*
X99553029Y-108767598D01*
X99572105Y-108778831D01*
X99687383Y-108819722D01*
X99788289Y-108804827D01*
X99879946Y-108738063D01*
X99951718Y-108631650D01*
X99970097Y-108519499D01*
X99937443Y-108414478D01*
X99856117Y-108329452D01*
X99799415Y-108299071D01*
X99721464Y-108273082D01*
X99659290Y-108277388D01*
X99596784Y-108303041D01*
X99496582Y-108377522D01*
X99441373Y-108475337D01*
X99431890Y-108582367D01*
X97416087Y-108582367D01*
X97680950Y-108317411D01*
X99067000Y-108317411D01*
X99134921Y-108196562D01*
X99248501Y-108051462D01*
X99396402Y-107948734D01*
X99568183Y-107891153D01*
X99753402Y-107881492D01*
X99941615Y-107922526D01*
G36*
X88797050Y-107884544D02*
G01*
X88969012Y-107939413D01*
X89124203Y-108036609D01*
X89247634Y-108168153D01*
X89287277Y-108233418D01*
X89330712Y-108317411D01*
X90719051Y-108317411D01*
X91689340Y-109288044D01*
X92659628Y-110258678D01*
X92527122Y-110393691D01*
X92456050Y-110463676D01*
X92401933Y-110512473D01*
X92378242Y-110528705D01*
X92354347Y-110508249D01*
X92292683Y-110449762D01*
X92197647Y-110357564D01*
X92073636Y-110235978D01*
X91925049Y-110089326D01*
X91756282Y-109921928D01*
X91571733Y-109738107D01*
X91450824Y-109617294D01*
X90539780Y-108705882D01*
X89364764Y-108705882D01*
X89272945Y-108868576D01*
X89154735Y-109023617D01*
X89006955Y-109133465D01*
X88839749Y-109197010D01*
X88663264Y-109213141D01*
X88487644Y-109180747D01*
X88323034Y-109098718D01*
X88196906Y-108986373D01*
X88087796Y-108822807D01*
X88031947Y-108648923D01*
X88027216Y-108509748D01*
X88433602Y-108509748D01*
X88439188Y-108614774D01*
X88489537Y-108712784D01*
X88524646Y-108748049D01*
X88621922Y-108810259D01*
X88714772Y-108820049D01*
X88816843Y-108782829D01*
X88902534Y-108708913D01*
X88958152Y-108603606D01*
X88970589Y-108527474D01*
X88946582Y-108454025D01*
X88886728Y-108374826D01*
X88809273Y-108309532D01*
X88739865Y-108278952D01*
X88625913Y-108282308D01*
X88532917Y-108330542D01*
X88466829Y-108410679D01*
X88433602Y-108509748D01*
X88027216Y-108509748D01*
X88025983Y-108473482D01*
X88066527Y-108305247D01*
X88150203Y-108152979D01*
X88273633Y-108025438D01*
X88433441Y-107931386D01*
X88623308Y-107879982D01*
X88797050Y-107884544D01*
G37*
X88797050Y-107884544D02*
X88969012Y-107939413D01*
X89124203Y-108036609D01*
X89247634Y-108168153D01*
X89287277Y-108233418D01*
X89330712Y-108317411D01*
X90719051Y-108317411D01*
X91689340Y-109288044D01*
X92659628Y-110258678D01*
X92527122Y-110393691D01*
X92456050Y-110463676D01*
X92401933Y-110512473D01*
X92378242Y-110528705D01*
X92354347Y-110508249D01*
X92292683Y-110449762D01*
X92197647Y-110357564D01*
X92073636Y-110235978D01*
X91925049Y-110089326D01*
X91756282Y-109921928D01*
X91571733Y-109738107D01*
X91450824Y-109617294D01*
X90539780Y-108705882D01*
X89364764Y-108705882D01*
X89272945Y-108868576D01*
X89154735Y-109023617D01*
X89006955Y-109133465D01*
X88839749Y-109197010D01*
X88663264Y-109213141D01*
X88487644Y-109180747D01*
X88323034Y-109098718D01*
X88196906Y-108986373D01*
X88087796Y-108822807D01*
X88031947Y-108648923D01*
X88027216Y-108509748D01*
X88433602Y-108509748D01*
X88439188Y-108614774D01*
X88489537Y-108712784D01*
X88524646Y-108748049D01*
X88621922Y-108810259D01*
X88714772Y-108820049D01*
X88816843Y-108782829D01*
X88902534Y-108708913D01*
X88958152Y-108603606D01*
X88970589Y-108527474D01*
X88946582Y-108454025D01*
X88886728Y-108374826D01*
X88809273Y-108309532D01*
X88739865Y-108278952D01*
X88625913Y-108282308D01*
X88532917Y-108330542D01*
X88466829Y-108410679D01*
X88433602Y-108509748D01*
X88027216Y-108509748D01*
X88025983Y-108473482D01*
X88066527Y-108305247D01*
X88150203Y-108152979D01*
X88273633Y-108025438D01*
X88433441Y-107931386D01*
X88623308Y-107879982D01*
X88797050Y-107884544D01*
G36*
X94390813Y-105385096D02*
G01*
X94567213Y-105462048D01*
X94710800Y-105588176D01*
X94800384Y-105723927D01*
X94844163Y-105859638D01*
X94858075Y-106021116D01*
X94842163Y-106182384D01*
X94799408Y-106311843D01*
X94732106Y-106413086D01*
X94640969Y-106511808D01*
X94544233Y-106590432D01*
X94470905Y-106628435D01*
X94457225Y-106633766D01*
X94445732Y-106643573D01*
X94436235Y-106662705D01*
X94428544Y-106696011D01*
X94422469Y-106748340D01*
X94417819Y-106824540D01*
X94414404Y-106929461D01*
X94412033Y-107067951D01*
X94410515Y-107244859D01*
X94409661Y-107465034D01*
X94409279Y-107733325D01*
X94409180Y-108054581D01*
X94409177Y-108199896D01*
X94409177Y-109751764D01*
X93990824Y-109751764D01*
X93990824Y-108197882D01*
X93990680Y-107851139D01*
X93990156Y-107559493D01*
X93989111Y-107318278D01*
X93987403Y-107122827D01*
X93984894Y-106968472D01*
X93981442Y-106850548D01*
X93976906Y-106764386D01*
X93971148Y-106705321D01*
X93964025Y-106668686D01*
X93955397Y-106649813D01*
X93945125Y-106644037D01*
X93944052Y-106644000D01*
X93901353Y-106623974D01*
X93831884Y-106571123D01*
X93749681Y-106496289D01*
X93738559Y-106485280D01*
X93645955Y-106384987D01*
X93589227Y-106300166D01*
X93556051Y-106210949D01*
X93548557Y-106178986D01*
X93538772Y-106051323D01*
X93932188Y-106051323D01*
X93976980Y-106160022D01*
X94011356Y-106201600D01*
X94113046Y-106272250D01*
X94222232Y-106285188D01*
X94331158Y-106240489D01*
X94381593Y-106198063D01*
X94452361Y-106098522D01*
X94468942Y-106016470D01*
X94442027Y-105914278D01*
X94372729Y-105824234D01*
X94278218Y-105763508D01*
X94200000Y-105747529D01*
X94096978Y-105774196D01*
X94018408Y-105834877D01*
X93946038Y-105940836D01*
X93932188Y-106051323D01*
X93538772Y-106051323D01*
X93533385Y-105981058D01*
X93569619Y-105797421D01*
X93651141Y-105635961D01*
X93771835Y-105504564D01*
X93925584Y-105411116D01*
X94106272Y-105363503D01*
X94184535Y-105359058D01*
X94390813Y-105385096D01*
G37*
X94390813Y-105385096D02*
X94567213Y-105462048D01*
X94710800Y-105588176D01*
X94800384Y-105723927D01*
X94844163Y-105859638D01*
X94858075Y-106021116D01*
X94842163Y-106182384D01*
X94799408Y-106311843D01*
X94732106Y-106413086D01*
X94640969Y-106511808D01*
X94544233Y-106590432D01*
X94470905Y-106628435D01*
X94457225Y-106633766D01*
X94445732Y-106643573D01*
X94436235Y-106662705D01*
X94428544Y-106696011D01*
X94422469Y-106748340D01*
X94417819Y-106824540D01*
X94414404Y-106929461D01*
X94412033Y-107067951D01*
X94410515Y-107244859D01*
X94409661Y-107465034D01*
X94409279Y-107733325D01*
X94409180Y-108054581D01*
X94409177Y-108199896D01*
X94409177Y-109751764D01*
X93990824Y-109751764D01*
X93990824Y-108197882D01*
X93990680Y-107851139D01*
X93990156Y-107559493D01*
X93989111Y-107318278D01*
X93987403Y-107122827D01*
X93984894Y-106968472D01*
X93981442Y-106850548D01*
X93976906Y-106764386D01*
X93971148Y-106705321D01*
X93964025Y-106668686D01*
X93955397Y-106649813D01*
X93945125Y-106644037D01*
X93944052Y-106644000D01*
X93901353Y-106623974D01*
X93831884Y-106571123D01*
X93749681Y-106496289D01*
X93738559Y-106485280D01*
X93645955Y-106384987D01*
X93589227Y-106300166D01*
X93556051Y-106210949D01*
X93548557Y-106178986D01*
X93538772Y-106051323D01*
X93932188Y-106051323D01*
X93976980Y-106160022D01*
X94011356Y-106201600D01*
X94113046Y-106272250D01*
X94222232Y-106285188D01*
X94331158Y-106240489D01*
X94381593Y-106198063D01*
X94452361Y-106098522D01*
X94468942Y-106016470D01*
X94442027Y-105914278D01*
X94372729Y-105824234D01*
X94278218Y-105763508D01*
X94200000Y-105747529D01*
X94096978Y-105774196D01*
X94018408Y-105834877D01*
X93946038Y-105940836D01*
X93932188Y-106051323D01*
X93538772Y-106051323D01*
X93533385Y-105981058D01*
X93569619Y-105797421D01*
X93651141Y-105635961D01*
X93771835Y-105504564D01*
X93925584Y-105411116D01*
X94106272Y-105363503D01*
X94184535Y-105359058D01*
X94390813Y-105385096D01*
G36*
X134978264Y-105507466D02*
G01*
X135213168Y-105656203D01*
X135545826Y-105884078D01*
X135945087Y-106168069D01*
X136379797Y-106485152D01*
X136818806Y-106812302D01*
X137230961Y-107126497D01*
X137585110Y-107404711D01*
X137850102Y-107623922D01*
X137994784Y-107761106D01*
X138007377Y-107777994D01*
X137945899Y-107859010D01*
X137751643Y-108038159D01*
X137454495Y-108291799D01*
X137084346Y-108596286D01*
X136671084Y-108927977D01*
X136244596Y-109263229D01*
X135834772Y-109578399D01*
X135471500Y-109849845D01*
X135184668Y-110053922D01*
X135004165Y-110166988D01*
X134969280Y-110181259D01*
X134855489Y-110129851D01*
X134609227Y-109971437D01*
X134257488Y-109724952D01*
X133827263Y-109409332D01*
X133345548Y-109043511D01*
X133327600Y-109029654D01*
X132852918Y-108659669D01*
X132440438Y-108331843D01*
X132114670Y-108066183D01*
X131900125Y-107882694D01*
X131821315Y-107801383D01*
X131821396Y-107800301D01*
X131905057Y-107721602D01*
X132120410Y-107545067D01*
X132436388Y-107294514D01*
X132821927Y-106993766D01*
X133245960Y-106666644D01*
X133677423Y-106336967D01*
X134085251Y-106028557D01*
X134438378Y-105765234D01*
X134705739Y-105570821D01*
X134856269Y-105469136D01*
X134872265Y-105460893D01*
X134978264Y-105507466D01*
G37*
X134978264Y-105507466D02*
X135213168Y-105656203D01*
X135545826Y-105884078D01*
X135945087Y-106168069D01*
X136379797Y-106485152D01*
X136818806Y-106812302D01*
X137230961Y-107126497D01*
X137585110Y-107404711D01*
X137850102Y-107623922D01*
X137994784Y-107761106D01*
X138007377Y-107777994D01*
X137945899Y-107859010D01*
X137751643Y-108038159D01*
X137454495Y-108291799D01*
X137084346Y-108596286D01*
X136671084Y-108927977D01*
X136244596Y-109263229D01*
X135834772Y-109578399D01*
X135471500Y-109849845D01*
X135184668Y-110053922D01*
X135004165Y-110166988D01*
X134969280Y-110181259D01*
X134855489Y-110129851D01*
X134609227Y-109971437D01*
X134257488Y-109724952D01*
X133827263Y-109409332D01*
X133345548Y-109043511D01*
X133327600Y-109029654D01*
X132852918Y-108659669D01*
X132440438Y-108331843D01*
X132114670Y-108066183D01*
X131900125Y-107882694D01*
X131821315Y-107801383D01*
X131821396Y-107800301D01*
X131905057Y-107721602D01*
X132120410Y-107545067D01*
X132436388Y-107294514D01*
X132821927Y-106993766D01*
X133245960Y-106666644D01*
X133677423Y-106336967D01*
X134085251Y-106028557D01*
X134438378Y-105765234D01*
X134705739Y-105570821D01*
X134856269Y-105469136D01*
X134872265Y-105460893D01*
X134978264Y-105507466D01*
G36*
X138175096Y-108048565D02*
G01*
X138209593Y-108167078D01*
X138233248Y-108412144D01*
X138247620Y-108805163D01*
X138254268Y-109367534D01*
X138255200Y-109778623D01*
X138255200Y-111598038D01*
X136811994Y-112705619D01*
X136333779Y-113072230D01*
X135901405Y-113402966D01*
X135544823Y-113674971D01*
X135293988Y-113865392D01*
X135186394Y-113945961D01*
X135121606Y-113983167D01*
X135074283Y-113969502D01*
X135041692Y-113879569D01*
X135021101Y-113687970D01*
X135009777Y-113369309D01*
X135004987Y-112898190D01*
X135004000Y-112250816D01*
X135004000Y-110422910D01*
X136502600Y-109267057D01*
X136984112Y-108896808D01*
X137415330Y-108567375D01*
X137768466Y-108299814D01*
X138015733Y-108115181D01*
X138128200Y-108035205D01*
X138175096Y-108048565D01*
G37*
X138175096Y-108048565D02*
X138209593Y-108167078D01*
X138233248Y-108412144D01*
X138247620Y-108805163D01*
X138254268Y-109367534D01*
X138255200Y-109778623D01*
X138255200Y-111598038D01*
X136811994Y-112705619D01*
X136333779Y-113072230D01*
X135901405Y-113402966D01*
X135544823Y-113674971D01*
X135293988Y-113865392D01*
X135186394Y-113945961D01*
X135121606Y-113983167D01*
X135074283Y-113969502D01*
X135041692Y-113879569D01*
X135021101Y-113687970D01*
X135009777Y-113369309D01*
X135004987Y-112898190D01*
X135004000Y-112250816D01*
X135004000Y-110422910D01*
X136502600Y-109267057D01*
X136984112Y-108896808D01*
X137415330Y-108567375D01*
X137768466Y-108299814D01*
X138015733Y-108115181D01*
X138128200Y-108035205D01*
X138175096Y-108048565D01*
G36*
X131833594Y-108092438D02*
G01*
X131971230Y-108195725D01*
X132240024Y-108399985D01*
X132610024Y-108682364D01*
X133051275Y-109020009D01*
X133459194Y-109332780D01*
X134902400Y-110440361D01*
X134902400Y-112202980D01*
X134898884Y-112874521D01*
X134887312Y-113364229D01*
X134866144Y-113693370D01*
X134833840Y-113883205D01*
X134788860Y-113954999D01*
X134775400Y-113956992D01*
X134658372Y-113894352D01*
X134409515Y-113725345D01*
X134056257Y-113469809D01*
X133626026Y-113147582D01*
X133149800Y-112781266D01*
X131651200Y-111614147D01*
X131651200Y-109786912D01*
X131652193Y-109138483D01*
X131656996Y-108667851D01*
X131668343Y-108349616D01*
X131688968Y-108158376D01*
X131721605Y-108068731D01*
X131768988Y-108055281D01*
X131833594Y-108092438D01*
G37*
X131833594Y-108092438D02*
X131971230Y-108195725D01*
X132240024Y-108399985D01*
X132610024Y-108682364D01*
X133051275Y-109020009D01*
X133459194Y-109332780D01*
X134902400Y-110440361D01*
X134902400Y-112202980D01*
X134898884Y-112874521D01*
X134887312Y-113364229D01*
X134866144Y-113693370D01*
X134833840Y-113883205D01*
X134788860Y-113954999D01*
X134775400Y-113956992D01*
X134658372Y-113894352D01*
X134409515Y-113725345D01*
X134056257Y-113469809D01*
X133626026Y-113147582D01*
X133149800Y-112781266D01*
X131651200Y-111614147D01*
X131651200Y-109786912D01*
X131652193Y-109138483D01*
X131656996Y-108667851D01*
X131668343Y-108349616D01*
X131688968Y-108158376D01*
X131721605Y-108068731D01*
X131768988Y-108055281D01*
X131833594Y-108092438D01*
G36*
X147346958Y-105440023D02*
G01*
X147610006Y-105606344D01*
X147978559Y-105860540D01*
X148425472Y-106183786D01*
X148923598Y-106557260D01*
X149019959Y-106630939D01*
X150650400Y-107881479D01*
X150650400Y-111611303D01*
X150015400Y-112109078D01*
X149680114Y-112370493D01*
X149241242Y-112710674D01*
X148756578Y-113084912D01*
X148299468Y-113436559D01*
X147218537Y-114266266D01*
X145530868Y-112977114D01*
X143843200Y-111687962D01*
X143843206Y-111604914D01*
X144149549Y-111604914D01*
X145596574Y-112720862D01*
X147043600Y-113836809D01*
X147071560Y-112150973D01*
X147080874Y-111529372D01*
X147082681Y-111078917D01*
X147073501Y-110767594D01*
X147049854Y-110563388D01*
X147037806Y-110525993D01*
X147297600Y-110525993D01*
X147297600Y-112207437D01*
X147300588Y-112843897D01*
X147310736Y-113299320D01*
X147329818Y-113595801D01*
X147359605Y-113755431D01*
X147401872Y-113800303D01*
X147424600Y-113789604D01*
X147545918Y-113696312D01*
X147798175Y-113503381D01*
X148150643Y-113234278D01*
X148572596Y-112912468D01*
X148843871Y-112705725D01*
X149285586Y-112366725D01*
X149668466Y-112068239D01*
X149963953Y-111832897D01*
X150143491Y-111683331D01*
X150184035Y-111643628D01*
X150124877Y-111559340D01*
X149933279Y-111379681D01*
X149640267Y-111129989D01*
X149276867Y-110835596D01*
X148874103Y-110521838D01*
X148463000Y-110214050D01*
X148213178Y-110034251D01*
X148078402Y-109981164D01*
X147918455Y-110034615D01*
X147675903Y-110214170D01*
X147669493Y-110219447D01*
X147297600Y-110525993D01*
X147037806Y-110525993D01*
X147008258Y-110434287D01*
X146945234Y-110348276D01*
X146868360Y-110282078D01*
X146670211Y-110130890D01*
X146507497Y-110044985D01*
X146344705Y-110034890D01*
X146146324Y-110111130D01*
X145876840Y-110284230D01*
X145500741Y-110564714D01*
X145240974Y-110764410D01*
X144149549Y-111604914D01*
X143843206Y-111604914D01*
X143843348Y-109747330D01*
X144046400Y-109747330D01*
X144049208Y-110357692D01*
X144059127Y-110789630D01*
X144078393Y-111067862D01*
X144109245Y-111217105D01*
X144153921Y-111262078D01*
X144182714Y-111252848D01*
X144314999Y-111160918D01*
X144569798Y-110973561D01*
X144908647Y-110719349D01*
X145239610Y-110467774D01*
X146160191Y-109763949D01*
X146121376Y-109733904D01*
X146555970Y-109733904D01*
X146850585Y-109969647D01*
X147076233Y-110140207D01*
X147225952Y-110187407D01*
X147383111Y-110114042D01*
X147541722Y-109992817D01*
X147716384Y-109827680D01*
X147722509Y-109789525D01*
X148404310Y-109789525D01*
X148434436Y-109859805D01*
X148558150Y-109965611D01*
X148791846Y-110153899D01*
X149096547Y-110394429D01*
X149433276Y-110656961D01*
X149763057Y-110911256D01*
X150046912Y-111127076D01*
X150245865Y-111274180D01*
X150320200Y-111322834D01*
X150328888Y-111227396D01*
X150336298Y-110963211D01*
X150341874Y-110564729D01*
X150345062Y-110066401D01*
X150345600Y-109743301D01*
X150345600Y-108162602D01*
X149323436Y-108946109D01*
X148894955Y-109280590D01*
X148612404Y-109518815D01*
X148455587Y-109681541D01*
X148404310Y-109789525D01*
X147722509Y-109789525D01*
X147736412Y-109702931D01*
X147690780Y-109631670D01*
X147429772Y-109400747D01*
X147167741Y-109363406D01*
X146873304Y-109507942D01*
X146555970Y-109733904D01*
X146121376Y-109733904D01*
X145382695Y-109162134D01*
X145010039Y-108875381D01*
X144666550Y-108614054D01*
X144405285Y-108418399D01*
X144325800Y-108360441D01*
X144046400Y-108160563D01*
X144046400Y-109747330D01*
X143843348Y-109747330D01*
X143843487Y-107926515D01*
X144171986Y-107926515D01*
X144367996Y-108095214D01*
X144662480Y-108324467D01*
X145018553Y-108588323D01*
X145399327Y-108860833D01*
X145767915Y-109116044D01*
X146087429Y-109328007D01*
X146320983Y-109470770D01*
X146431690Y-109518384D01*
X146433647Y-109517632D01*
X146581698Y-109419523D01*
X146801488Y-109263831D01*
X146815000Y-109254010D01*
X147094400Y-109050586D01*
X147094400Y-107323759D01*
X147300202Y-107323759D01*
X147302804Y-109038000D01*
X147681202Y-109308072D01*
X147928427Y-109456163D01*
X148116838Y-109518925D01*
X148164910Y-109511272D01*
X148283117Y-109426615D01*
X148527431Y-109245340D01*
X148862333Y-108993981D01*
X149252300Y-108699071D01*
X149257110Y-108695420D01*
X149635893Y-108405509D01*
X149947394Y-108162444D01*
X150160424Y-107990899D01*
X150243794Y-107915545D01*
X150244000Y-107914740D01*
X150167703Y-107845498D01*
X149956451Y-107673812D01*
X149636699Y-107420676D01*
X149234903Y-107107082D01*
X148897800Y-106846511D01*
X148440762Y-106494466D01*
X148034541Y-106181299D01*
X147708919Y-105929991D01*
X147493679Y-105763522D01*
X147424600Y-105709750D01*
X147376818Y-105711360D01*
X147342194Y-105817510D01*
X147319036Y-106050145D01*
X147305654Y-106431206D01*
X147300356Y-106982635D01*
X147300202Y-107323759D01*
X147094400Y-107323759D01*
X147094400Y-105640041D01*
X145619786Y-106770340D01*
X145153759Y-107129958D01*
X144751237Y-107445177D01*
X144436983Y-107696226D01*
X144235757Y-107863330D01*
X144171986Y-107926515D01*
X143843487Y-107926515D01*
X143843496Y-107818800D01*
X145443548Y-106599600D01*
X145944148Y-106224571D01*
X146398453Y-105896288D01*
X146778895Y-105633704D01*
X147057909Y-105455777D01*
X147207927Y-105381462D01*
X147216559Y-105380400D01*
X147346958Y-105440023D01*
G37*
X147346958Y-105440023D02*
X147610006Y-105606344D01*
X147978559Y-105860540D01*
X148425472Y-106183786D01*
X148923598Y-106557260D01*
X149019959Y-106630939D01*
X150650400Y-107881479D01*
X150650400Y-111611303D01*
X150015400Y-112109078D01*
X149680114Y-112370493D01*
X149241242Y-112710674D01*
X148756578Y-113084912D01*
X148299468Y-113436559D01*
X147218537Y-114266266D01*
X145530868Y-112977114D01*
X143843200Y-111687962D01*
X143843206Y-111604914D01*
X144149549Y-111604914D01*
X145596574Y-112720862D01*
X147043600Y-113836809D01*
X147071560Y-112150973D01*
X147080874Y-111529372D01*
X147082681Y-111078917D01*
X147073501Y-110767594D01*
X147049854Y-110563388D01*
X147037806Y-110525993D01*
X147297600Y-110525993D01*
X147297600Y-112207437D01*
X147300588Y-112843897D01*
X147310736Y-113299320D01*
X147329818Y-113595801D01*
X147359605Y-113755431D01*
X147401872Y-113800303D01*
X147424600Y-113789604D01*
X147545918Y-113696312D01*
X147798175Y-113503381D01*
X148150643Y-113234278D01*
X148572596Y-112912468D01*
X148843871Y-112705725D01*
X149285586Y-112366725D01*
X149668466Y-112068239D01*
X149963953Y-111832897D01*
X150143491Y-111683331D01*
X150184035Y-111643628D01*
X150124877Y-111559340D01*
X149933279Y-111379681D01*
X149640267Y-111129989D01*
X149276867Y-110835596D01*
X148874103Y-110521838D01*
X148463000Y-110214050D01*
X148213178Y-110034251D01*
X148078402Y-109981164D01*
X147918455Y-110034615D01*
X147675903Y-110214170D01*
X147669493Y-110219447D01*
X147297600Y-110525993D01*
X147037806Y-110525993D01*
X147008258Y-110434287D01*
X146945234Y-110348276D01*
X146868360Y-110282078D01*
X146670211Y-110130890D01*
X146507497Y-110044985D01*
X146344705Y-110034890D01*
X146146324Y-110111130D01*
X145876840Y-110284230D01*
X145500741Y-110564714D01*
X145240974Y-110764410D01*
X144149549Y-111604914D01*
X143843206Y-111604914D01*
X143843348Y-109747330D01*
X144046400Y-109747330D01*
X144049208Y-110357692D01*
X144059127Y-110789630D01*
X144078393Y-111067862D01*
X144109245Y-111217105D01*
X144153921Y-111262078D01*
X144182714Y-111252848D01*
X144314999Y-111160918D01*
X144569798Y-110973561D01*
X144908647Y-110719349D01*
X145239610Y-110467774D01*
X146160191Y-109763949D01*
X146121376Y-109733904D01*
X146555970Y-109733904D01*
X146850585Y-109969647D01*
X147076233Y-110140207D01*
X147225952Y-110187407D01*
X147383111Y-110114042D01*
X147541722Y-109992817D01*
X147716384Y-109827680D01*
X147722509Y-109789525D01*
X148404310Y-109789525D01*
X148434436Y-109859805D01*
X148558150Y-109965611D01*
X148791846Y-110153899D01*
X149096547Y-110394429D01*
X149433276Y-110656961D01*
X149763057Y-110911256D01*
X150046912Y-111127076D01*
X150245865Y-111274180D01*
X150320200Y-111322834D01*
X150328888Y-111227396D01*
X150336298Y-110963211D01*
X150341874Y-110564729D01*
X150345062Y-110066401D01*
X150345600Y-109743301D01*
X150345600Y-108162602D01*
X149323436Y-108946109D01*
X148894955Y-109280590D01*
X148612404Y-109518815D01*
X148455587Y-109681541D01*
X148404310Y-109789525D01*
X147722509Y-109789525D01*
X147736412Y-109702931D01*
X147690780Y-109631670D01*
X147429772Y-109400747D01*
X147167741Y-109363406D01*
X146873304Y-109507942D01*
X146555970Y-109733904D01*
X146121376Y-109733904D01*
X145382695Y-109162134D01*
X145010039Y-108875381D01*
X144666550Y-108614054D01*
X144405285Y-108418399D01*
X144325800Y-108360441D01*
X144046400Y-108160563D01*
X144046400Y-109747330D01*
X143843348Y-109747330D01*
X143843487Y-107926515D01*
X144171986Y-107926515D01*
X144367996Y-108095214D01*
X144662480Y-108324467D01*
X145018553Y-108588323D01*
X145399327Y-108860833D01*
X145767915Y-109116044D01*
X146087429Y-109328007D01*
X146320983Y-109470770D01*
X146431690Y-109518384D01*
X146433647Y-109517632D01*
X146581698Y-109419523D01*
X146801488Y-109263831D01*
X146815000Y-109254010D01*
X147094400Y-109050586D01*
X147094400Y-107323759D01*
X147300202Y-107323759D01*
X147302804Y-109038000D01*
X147681202Y-109308072D01*
X147928427Y-109456163D01*
X148116838Y-109518925D01*
X148164910Y-109511272D01*
X148283117Y-109426615D01*
X148527431Y-109245340D01*
X148862333Y-108993981D01*
X149252300Y-108699071D01*
X149257110Y-108695420D01*
X149635893Y-108405509D01*
X149947394Y-108162444D01*
X150160424Y-107990899D01*
X150243794Y-107915545D01*
X150244000Y-107914740D01*
X150167703Y-107845498D01*
X149956451Y-107673812D01*
X149636699Y-107420676D01*
X149234903Y-107107082D01*
X148897800Y-106846511D01*
X148440762Y-106494466D01*
X148034541Y-106181299D01*
X147708919Y-105929991D01*
X147493679Y-105763522D01*
X147424600Y-105709750D01*
X147376818Y-105711360D01*
X147342194Y-105817510D01*
X147319036Y-106050145D01*
X147305654Y-106431206D01*
X147300356Y-106982635D01*
X147300202Y-107323759D01*
X147094400Y-107323759D01*
X147094400Y-105640041D01*
X145619786Y-106770340D01*
X145153759Y-107129958D01*
X144751237Y-107445177D01*
X144436983Y-107696226D01*
X144235757Y-107863330D01*
X144171986Y-107926515D01*
X143843487Y-107926515D01*
X143843496Y-107818800D01*
X145443548Y-106599600D01*
X145944148Y-106224571D01*
X146398453Y-105896288D01*
X146778895Y-105633704D01*
X147057909Y-105455777D01*
X147207927Y-105381462D01*
X147216559Y-105380400D01*
X147346958Y-105440023D01*
G36*
X142089844Y-109181251D02*
G01*
X142724088Y-109756568D01*
X142064444Y-110410349D01*
X141404800Y-111064129D01*
X141404800Y-110104800D01*
X139677600Y-110104800D01*
X139677600Y-109495200D01*
X141393666Y-109495200D01*
X141424633Y-109050567D01*
X141455600Y-108605935D01*
X142089844Y-109181251D01*
G37*
X142089844Y-109181251D02*
X142724088Y-109756568D01*
X142064444Y-110410349D01*
X141404800Y-111064129D01*
X141404800Y-110104800D01*
X139677600Y-110104800D01*
X139677600Y-109495200D01*
X141393666Y-109495200D01*
X141424633Y-109050567D01*
X141455600Y-108605935D01*
X142089844Y-109181251D01*
G36*
X98074299Y-80406404D02*
G01*
X98236895Y-80415664D01*
X98316383Y-80437329D01*
X98334692Y-80476057D01*
X98323339Y-80514625D01*
X98265046Y-80674592D01*
X98245639Y-80736875D01*
X98213341Y-80790673D01*
X98137576Y-80824003D01*
X97993477Y-80841461D01*
X97756179Y-80847647D01*
X97644709Y-80848000D01*
X97370535Y-80850362D01*
X97190202Y-80862884D01*
X97070567Y-80893718D01*
X96978486Y-80951016D01*
X96890115Y-81033615D01*
X96750817Y-81227816D01*
X96707100Y-81419986D01*
X96764839Y-81579866D01*
X96780700Y-81597300D01*
X96888173Y-81638472D01*
X97101204Y-81664743D01*
X97383950Y-81673500D01*
X97624710Y-81675975D01*
X97807742Y-81682571D01*
X97903540Y-81692040D01*
X97911000Y-81695774D01*
X97892267Y-81764664D01*
X97846631Y-81902630D01*
X97841288Y-81918024D01*
X97771576Y-82118000D01*
X97222163Y-82115457D01*
X96868921Y-82100554D01*
X96613272Y-82060958D01*
X96504860Y-82021708D01*
X96328323Y-81861782D01*
X96246848Y-81640449D01*
X96259898Y-81379904D01*
X96366935Y-81102345D01*
X96532794Y-80868046D01*
X96757724Y-80656208D01*
X97011189Y-80515610D01*
X97322308Y-80435663D01*
X97720198Y-80405782D01*
X97806668Y-80404894D01*
X98074299Y-80406404D01*
G37*
X98074299Y-80406404D02*
X98236895Y-80415664D01*
X98316383Y-80437329D01*
X98334692Y-80476057D01*
X98323339Y-80514625D01*
X98265046Y-80674592D01*
X98245639Y-80736875D01*
X98213341Y-80790673D01*
X98137576Y-80824003D01*
X97993477Y-80841461D01*
X97756179Y-80847647D01*
X97644709Y-80848000D01*
X97370535Y-80850362D01*
X97190202Y-80862884D01*
X97070567Y-80893718D01*
X96978486Y-80951016D01*
X96890115Y-81033615D01*
X96750817Y-81227816D01*
X96707100Y-81419986D01*
X96764839Y-81579866D01*
X96780700Y-81597300D01*
X96888173Y-81638472D01*
X97101204Y-81664743D01*
X97383950Y-81673500D01*
X97624710Y-81675975D01*
X97807742Y-81682571D01*
X97903540Y-81692040D01*
X97911000Y-81695774D01*
X97892267Y-81764664D01*
X97846631Y-81902630D01*
X97841288Y-81918024D01*
X97771576Y-82118000D01*
X97222163Y-82115457D01*
X96868921Y-82100554D01*
X96613272Y-82060958D01*
X96504860Y-82021708D01*
X96328323Y-81861782D01*
X96246848Y-81640449D01*
X96259898Y-81379904D01*
X96366935Y-81102345D01*
X96532794Y-80868046D01*
X96757724Y-80656208D01*
X97011189Y-80515610D01*
X97322308Y-80435663D01*
X97720198Y-80405782D01*
X97806668Y-80404894D01*
X98074299Y-80406404D01*
G36*
X105721430Y-77367780D02*
G01*
X105784581Y-77395697D01*
X105785000Y-77398982D01*
X105766310Y-77476570D01*
X105715532Y-77648603D01*
X105640598Y-77888998D01*
X105556814Y-78149130D01*
X105397612Y-78579633D01*
X105240380Y-78886523D01*
X105082205Y-79073096D01*
X104920174Y-79142646D01*
X104751373Y-79098467D01*
X104729330Y-79084902D01*
X104672347Y-79011271D01*
X104575443Y-78849749D01*
X104453899Y-78626823D01*
X104363568Y-78450875D01*
X104205991Y-78153737D01*
X104081504Y-77955121D01*
X103994442Y-77860466D01*
X103949140Y-77875214D01*
X103943500Y-77923680D01*
X103923065Y-78006795D01*
X103868372Y-78178548D01*
X103789333Y-78408506D01*
X103746994Y-78526930D01*
X103652366Y-78783198D01*
X103582991Y-78942709D01*
X103521639Y-79028390D01*
X103451079Y-79063170D01*
X103354081Y-79069974D01*
X103338849Y-79070000D01*
X103127209Y-79070000D01*
X103354765Y-78390453D01*
X103497065Y-78001050D01*
X103629447Y-77723137D01*
X103761988Y-77542790D01*
X103904766Y-77446084D01*
X104057771Y-77419000D01*
X104176012Y-77432698D01*
X104278971Y-77486262D01*
X104384250Y-77598395D01*
X104509451Y-77787798D01*
X104670356Y-78069875D01*
X104788996Y-78273303D01*
X104889275Y-78424472D01*
X104952788Y-78496111D01*
X104959673Y-78498500D01*
X105001390Y-78442342D01*
X105069416Y-78291742D01*
X105152289Y-78073513D01*
X105197223Y-77942875D01*
X105286609Y-77681174D01*
X105353741Y-77516675D01*
X105414652Y-77425490D01*
X105485376Y-77383730D01*
X105581947Y-77367507D01*
X105583515Y-77367351D01*
X105721430Y-77367780D01*
G37*
X105721430Y-77367780D02*
X105784581Y-77395697D01*
X105785000Y-77398982D01*
X105766310Y-77476570D01*
X105715532Y-77648603D01*
X105640598Y-77888998D01*
X105556814Y-78149130D01*
X105397612Y-78579633D01*
X105240380Y-78886523D01*
X105082205Y-79073096D01*
X104920174Y-79142646D01*
X104751373Y-79098467D01*
X104729330Y-79084902D01*
X104672347Y-79011271D01*
X104575443Y-78849749D01*
X104453899Y-78626823D01*
X104363568Y-78450875D01*
X104205991Y-78153737D01*
X104081504Y-77955121D01*
X103994442Y-77860466D01*
X103949140Y-77875214D01*
X103943500Y-77923680D01*
X103923065Y-78006795D01*
X103868372Y-78178548D01*
X103789333Y-78408506D01*
X103746994Y-78526930D01*
X103652366Y-78783198D01*
X103582991Y-78942709D01*
X103521639Y-79028390D01*
X103451079Y-79063170D01*
X103354081Y-79069974D01*
X103338849Y-79070000D01*
X103127209Y-79070000D01*
X103354765Y-78390453D01*
X103497065Y-78001050D01*
X103629447Y-77723137D01*
X103761988Y-77542790D01*
X103904766Y-77446084D01*
X104057771Y-77419000D01*
X104176012Y-77432698D01*
X104278971Y-77486262D01*
X104384250Y-77598395D01*
X104509451Y-77787798D01*
X104670356Y-78069875D01*
X104788996Y-78273303D01*
X104889275Y-78424472D01*
X104952788Y-78496111D01*
X104959673Y-78498500D01*
X105001390Y-78442342D01*
X105069416Y-78291742D01*
X105152289Y-78073513D01*
X105197223Y-77942875D01*
X105286609Y-77681174D01*
X105353741Y-77516675D01*
X105414652Y-77425490D01*
X105485376Y-77383730D01*
X105581947Y-77367507D01*
X105583515Y-77367351D01*
X105721430Y-77367780D01*
G36*
X96257635Y-80417059D02*
G01*
X96322919Y-80449605D01*
X96323500Y-80453348D01*
X96303473Y-80528766D01*
X96248666Y-80699900D01*
X96166991Y-80942855D01*
X96066357Y-81233737D01*
X96044946Y-81294723D01*
X95766393Y-82086250D01*
X95544859Y-82105486D01*
X95323324Y-82124722D01*
X95910750Y-80404370D01*
X96117125Y-80403935D01*
X96257635Y-80417059D01*
G37*
X96257635Y-80417059D02*
X96322919Y-80449605D01*
X96323500Y-80453348D01*
X96303473Y-80528766D01*
X96248666Y-80699900D01*
X96166991Y-80942855D01*
X96066357Y-81233737D01*
X96044946Y-81294723D01*
X95766393Y-82086250D01*
X95544859Y-82105486D01*
X95323324Y-82124722D01*
X95910750Y-80404370D01*
X96117125Y-80403935D01*
X96257635Y-80417059D01*
G36*
X92424045Y-77367356D02*
G01*
X92665125Y-77389591D01*
X92819791Y-77427866D01*
X92928617Y-77496426D01*
X92998305Y-77568970D01*
X93117017Y-77796454D01*
X93128978Y-78059018D01*
X93041062Y-78335014D01*
X92860145Y-78602798D01*
X92594707Y-78839597D01*
X92433811Y-78940259D01*
X92276220Y-79000861D01*
X92076558Y-79033948D01*
X91833246Y-79050117D01*
X91520632Y-79053663D01*
X91304763Y-79028027D01*
X91170860Y-78977754D01*
X90992076Y-78811989D01*
X90911403Y-78587365D01*
X90924989Y-78371986D01*
X91373100Y-78371986D01*
X91430839Y-78531866D01*
X91446700Y-78549300D01*
X91565326Y-78599358D01*
X91763170Y-78621708D01*
X91995681Y-78617116D01*
X92218311Y-78586347D01*
X92380709Y-78533244D01*
X92552054Y-78392789D01*
X92655033Y-78205561D01*
X92671336Y-78013389D01*
X92643583Y-77932761D01*
X92586646Y-77859555D01*
X92492747Y-77819160D01*
X92328495Y-77802465D01*
X92157131Y-77800000D01*
X91922322Y-77805947D01*
X91770217Y-77832867D01*
X91656735Y-77894374D01*
X91556115Y-77985615D01*
X91416817Y-78179816D01*
X91373100Y-78371986D01*
X90924989Y-78371986D01*
X90927978Y-78324604D01*
X91040936Y-78044425D01*
X91220012Y-77799215D01*
X91510704Y-77552720D01*
X91852222Y-77409074D01*
X92261758Y-77362112D01*
X92424045Y-77367356D01*
G37*
X92424045Y-77367356D02*
X92665125Y-77389591D01*
X92819791Y-77427866D01*
X92928617Y-77496426D01*
X92998305Y-77568970D01*
X93117017Y-77796454D01*
X93128978Y-78059018D01*
X93041062Y-78335014D01*
X92860145Y-78602798D01*
X92594707Y-78839597D01*
X92433811Y-78940259D01*
X92276220Y-79000861D01*
X92076558Y-79033948D01*
X91833246Y-79050117D01*
X91520632Y-79053663D01*
X91304763Y-79028027D01*
X91170860Y-78977754D01*
X90992076Y-78811989D01*
X90911403Y-78587365D01*
X90924989Y-78371986D01*
X91373100Y-78371986D01*
X91430839Y-78531866D01*
X91446700Y-78549300D01*
X91565326Y-78599358D01*
X91763170Y-78621708D01*
X91995681Y-78617116D01*
X92218311Y-78586347D01*
X92380709Y-78533244D01*
X92552054Y-78392789D01*
X92655033Y-78205561D01*
X92671336Y-78013389D01*
X92643583Y-77932761D01*
X92586646Y-77859555D01*
X92492747Y-77819160D01*
X92328495Y-77802465D01*
X92157131Y-77800000D01*
X91922322Y-77805947D01*
X91770217Y-77832867D01*
X91656735Y-77894374D01*
X91556115Y-77985615D01*
X91416817Y-78179816D01*
X91373100Y-78371986D01*
X90924989Y-78371986D01*
X90927978Y-78324604D01*
X91040936Y-78044425D01*
X91220012Y-77799215D01*
X91510704Y-77552720D01*
X91852222Y-77409074D01*
X92261758Y-77362112D01*
X92424045Y-77367356D01*
G36*
X93810564Y-80421344D02*
G01*
X93908374Y-80490725D01*
X93957480Y-80635413D01*
X93972838Y-80879177D01*
X93973132Y-80918512D01*
X93983431Y-81161165D01*
X94008921Y-81396316D01*
X94044165Y-81591121D01*
X94083725Y-81712739D01*
X94108645Y-81737000D01*
X94164566Y-81688771D01*
X94279220Y-81556857D01*
X94436829Y-81360415D01*
X94621611Y-81118602D01*
X94655639Y-81072949D01*
X94859276Y-80801225D01*
X95006470Y-80615774D01*
X95115349Y-80500068D01*
X95204039Y-80437578D01*
X95290667Y-80411776D01*
X95386875Y-80406199D01*
X95540006Y-80413187D01*
X95621113Y-80433897D01*
X95625000Y-80440511D01*
X95586527Y-80510608D01*
X95482437Y-80656155D01*
X95329715Y-80856137D01*
X95145352Y-81089542D01*
X94946334Y-81335356D01*
X94749651Y-81572565D01*
X94572291Y-81780156D01*
X94431242Y-81937114D01*
X94351013Y-82016360D01*
X94124346Y-82146787D01*
X93894119Y-82175548D01*
X93699261Y-82102125D01*
X93646348Y-82031713D01*
X93599975Y-81892800D01*
X93556015Y-81667554D01*
X93510341Y-81338144D01*
X93497176Y-81229000D01*
X93461727Y-80927458D01*
X93432349Y-80675969D01*
X93411883Y-80498970D01*
X93403171Y-80420894D01*
X93403051Y-80419375D01*
X93458980Y-80409308D01*
X93598890Y-80403833D01*
X93649093Y-80403500D01*
X93810564Y-80421344D01*
G37*
X93810564Y-80421344D02*
X93908374Y-80490725D01*
X93957480Y-80635413D01*
X93972838Y-80879177D01*
X93973132Y-80918512D01*
X93983431Y-81161165D01*
X94008921Y-81396316D01*
X94044165Y-81591121D01*
X94083725Y-81712739D01*
X94108645Y-81737000D01*
X94164566Y-81688771D01*
X94279220Y-81556857D01*
X94436829Y-81360415D01*
X94621611Y-81118602D01*
X94655639Y-81072949D01*
X94859276Y-80801225D01*
X95006470Y-80615774D01*
X95115349Y-80500068D01*
X95204039Y-80437578D01*
X95290667Y-80411776D01*
X95386875Y-80406199D01*
X95540006Y-80413187D01*
X95621113Y-80433897D01*
X95625000Y-80440511D01*
X95586527Y-80510608D01*
X95482437Y-80656155D01*
X95329715Y-80856137D01*
X95145352Y-81089542D01*
X94946334Y-81335356D01*
X94749651Y-81572565D01*
X94572291Y-81780156D01*
X94431242Y-81937114D01*
X94351013Y-82016360D01*
X94124346Y-82146787D01*
X93894119Y-82175548D01*
X93699261Y-82102125D01*
X93646348Y-82031713D01*
X93599975Y-81892800D01*
X93556015Y-81667554D01*
X93510341Y-81338144D01*
X93497176Y-81229000D01*
X93461727Y-80927458D01*
X93432349Y-80675969D01*
X93411883Y-80498970D01*
X93403171Y-80420894D01*
X93403051Y-80419375D01*
X93458980Y-80409308D01*
X93598890Y-80403833D01*
X93649093Y-80403500D01*
X93810564Y-80421344D01*
G36*
X99704437Y-80407233D02*
G01*
X99963303Y-80414874D01*
X100170433Y-80428236D01*
X100297594Y-80447237D01*
X100324000Y-80462866D01*
X100303119Y-80562382D01*
X100262897Y-80682943D01*
X100230481Y-80753939D01*
X100181552Y-80800981D01*
X100091722Y-80829916D01*
X99936606Y-80846594D01*
X99691816Y-80856862D01*
X99517525Y-80861702D01*
X99210860Y-80872254D01*
X99009008Y-80887285D01*
X98889786Y-80910859D01*
X98831008Y-80947036D01*
X98811971Y-80990875D01*
X98814040Y-81041437D01*
X98858033Y-81073932D01*
X98965641Y-81092258D01*
X99158553Y-81100311D01*
X99430343Y-81102000D01*
X99743160Y-81106742D01*
X99943847Y-81122177D01*
X100046961Y-81150113D01*
X100069027Y-81181375D01*
X100051896Y-81280704D01*
X99989928Y-81348801D01*
X99862954Y-81392320D01*
X99650806Y-81417917D01*
X99333314Y-81432246D01*
X99306462Y-81433003D01*
X99004324Y-81444018D01*
X98806865Y-81459927D01*
X98691770Y-81484877D01*
X98636721Y-81523014D01*
X98621885Y-81560183D01*
X98625591Y-81609423D01*
X98673236Y-81642650D01*
X98785940Y-81664021D01*
X98984819Y-81677696D01*
X99266740Y-81687183D01*
X99932449Y-81705250D01*
X99845539Y-81911625D01*
X99758630Y-82118000D01*
X98928072Y-82118000D01*
X98566298Y-82114733D01*
X98315163Y-82103877D01*
X98158452Y-82083846D01*
X98079944Y-82053054D01*
X98065136Y-82033624D01*
X98072034Y-81938657D01*
X98117472Y-81755887D01*
X98191060Y-81514706D01*
X98282408Y-81244505D01*
X98381126Y-80974676D01*
X98476822Y-80734613D01*
X98559107Y-80553705D01*
X98617590Y-80461347D01*
X98622207Y-80457802D01*
X98716263Y-80435572D01*
X98899747Y-80419484D01*
X99144426Y-80409454D01*
X99422067Y-80405399D01*
X99704437Y-80407233D01*
G37*
X99704437Y-80407233D02*
X99963303Y-80414874D01*
X100170433Y-80428236D01*
X100297594Y-80447237D01*
X100324000Y-80462866D01*
X100303119Y-80562382D01*
X100262897Y-80682943D01*
X100230481Y-80753939D01*
X100181552Y-80800981D01*
X100091722Y-80829916D01*
X99936606Y-80846594D01*
X99691816Y-80856862D01*
X99517525Y-80861702D01*
X99210860Y-80872254D01*
X99009008Y-80887285D01*
X98889786Y-80910859D01*
X98831008Y-80947036D01*
X98811971Y-80990875D01*
X98814040Y-81041437D01*
X98858033Y-81073932D01*
X98965641Y-81092258D01*
X99158553Y-81100311D01*
X99430343Y-81102000D01*
X99743160Y-81106742D01*
X99943847Y-81122177D01*
X100046961Y-81150113D01*
X100069027Y-81181375D01*
X100051896Y-81280704D01*
X99989928Y-81348801D01*
X99862954Y-81392320D01*
X99650806Y-81417917D01*
X99333314Y-81432246D01*
X99306462Y-81433003D01*
X99004324Y-81444018D01*
X98806865Y-81459927D01*
X98691770Y-81484877D01*
X98636721Y-81523014D01*
X98621885Y-81560183D01*
X98625591Y-81609423D01*
X98673236Y-81642650D01*
X98785940Y-81664021D01*
X98984819Y-81677696D01*
X99266740Y-81687183D01*
X99932449Y-81705250D01*
X99845539Y-81911625D01*
X99758630Y-82118000D01*
X98928072Y-82118000D01*
X98566298Y-82114733D01*
X98315163Y-82103877D01*
X98158452Y-82083846D01*
X98079944Y-82053054D01*
X98065136Y-82033624D01*
X98072034Y-81938657D01*
X98117472Y-81755887D01*
X98191060Y-81514706D01*
X98282408Y-81244505D01*
X98381126Y-80974676D01*
X98476822Y-80734613D01*
X98559107Y-80553705D01*
X98617590Y-80461347D01*
X98622207Y-80457802D01*
X98716263Y-80435572D01*
X98899747Y-80419484D01*
X99144426Y-80409454D01*
X99422067Y-80405399D01*
X99704437Y-80407233D01*
G36*
X92592437Y-80407233D02*
G01*
X92851303Y-80414874D01*
X93058433Y-80428236D01*
X93185594Y-80447237D01*
X93212000Y-80462866D01*
X93191119Y-80562382D01*
X93150897Y-80682943D01*
X93118481Y-80753939D01*
X93069552Y-80800981D01*
X92979722Y-80829916D01*
X92824606Y-80846594D01*
X92579816Y-80856862D01*
X92405525Y-80861702D01*
X92098860Y-80872254D01*
X91897008Y-80887285D01*
X91777786Y-80910859D01*
X91719008Y-80947036D01*
X91699971Y-80990875D01*
X91702040Y-81041437D01*
X91746033Y-81073932D01*
X91853641Y-81092258D01*
X92046553Y-81100311D01*
X92318343Y-81102000D01*
X92631160Y-81106742D01*
X92831847Y-81122177D01*
X92934961Y-81150113D01*
X92957027Y-81181375D01*
X92939896Y-81280704D01*
X92877928Y-81348801D01*
X92750954Y-81392320D01*
X92538806Y-81417917D01*
X92221314Y-81432246D01*
X92194462Y-81433003D01*
X91892324Y-81444018D01*
X91694865Y-81459927D01*
X91579770Y-81484877D01*
X91524721Y-81523014D01*
X91509885Y-81560183D01*
X91513591Y-81609423D01*
X91561236Y-81642650D01*
X91673940Y-81664021D01*
X91872819Y-81677696D01*
X92154740Y-81687183D01*
X92820449Y-81705250D01*
X92733539Y-81911625D01*
X92646630Y-82118000D01*
X91816072Y-82118000D01*
X91454298Y-82114733D01*
X91203163Y-82103877D01*
X91046452Y-82083846D01*
X90967944Y-82053054D01*
X90953136Y-82033624D01*
X90960034Y-81938657D01*
X91005472Y-81755887D01*
X91079060Y-81514706D01*
X91170408Y-81244505D01*
X91269126Y-80974676D01*
X91364822Y-80734613D01*
X91447107Y-80553705D01*
X91505590Y-80461347D01*
X91510207Y-80457802D01*
X91604263Y-80435572D01*
X91787747Y-80419484D01*
X92032426Y-80409454D01*
X92310067Y-80405399D01*
X92592437Y-80407233D01*
G37*
X92592437Y-80407233D02*
X92851303Y-80414874D01*
X93058433Y-80428236D01*
X93185594Y-80447237D01*
X93212000Y-80462866D01*
X93191119Y-80562382D01*
X93150897Y-80682943D01*
X93118481Y-80753939D01*
X93069552Y-80800981D01*
X92979722Y-80829916D01*
X92824606Y-80846594D01*
X92579816Y-80856862D01*
X92405525Y-80861702D01*
X92098860Y-80872254D01*
X91897008Y-80887285D01*
X91777786Y-80910859D01*
X91719008Y-80947036D01*
X91699971Y-80990875D01*
X91702040Y-81041437D01*
X91746033Y-81073932D01*
X91853641Y-81092258D01*
X92046553Y-81100311D01*
X92318343Y-81102000D01*
X92631160Y-81106742D01*
X92831847Y-81122177D01*
X92934961Y-81150113D01*
X92957027Y-81181375D01*
X92939896Y-81280704D01*
X92877928Y-81348801D01*
X92750954Y-81392320D01*
X92538806Y-81417917D01*
X92221314Y-81432246D01*
X92194462Y-81433003D01*
X91892324Y-81444018D01*
X91694865Y-81459927D01*
X91579770Y-81484877D01*
X91524721Y-81523014D01*
X91509885Y-81560183D01*
X91513591Y-81609423D01*
X91561236Y-81642650D01*
X91673940Y-81664021D01*
X91872819Y-81677696D01*
X92154740Y-81687183D01*
X92820449Y-81705250D01*
X92733539Y-81911625D01*
X92646630Y-82118000D01*
X91816072Y-82118000D01*
X91454298Y-82114733D01*
X91203163Y-82103877D01*
X91046452Y-82083846D01*
X90967944Y-82053054D01*
X90953136Y-82033624D01*
X90960034Y-81938657D01*
X91005472Y-81755887D01*
X91079060Y-81514706D01*
X91170408Y-81244505D01*
X91269126Y-80974676D01*
X91364822Y-80734613D01*
X91447107Y-80553705D01*
X91505590Y-80461347D01*
X91510207Y-80457802D01*
X91604263Y-80435572D01*
X91787747Y-80419484D01*
X92032426Y-80409454D01*
X92310067Y-80405399D01*
X92592437Y-80407233D01*
G36*
X90771799Y-77358404D02*
G01*
X90934395Y-77367664D01*
X91013883Y-77389329D01*
X91032192Y-77428057D01*
X91020839Y-77466625D01*
X90962546Y-77626592D01*
X90943139Y-77688875D01*
X90910841Y-77742673D01*
X90835076Y-77776003D01*
X90690977Y-77793461D01*
X90453679Y-77799647D01*
X90342209Y-77800000D01*
X90068035Y-77802362D01*
X89887702Y-77814884D01*
X89768067Y-77845718D01*
X89675986Y-77903016D01*
X89587615Y-77985615D01*
X89448317Y-78179816D01*
X89404600Y-78371986D01*
X89462339Y-78531866D01*
X89478200Y-78549300D01*
X89585673Y-78590472D01*
X89798704Y-78616743D01*
X90081450Y-78625500D01*
X90322210Y-78627975D01*
X90505242Y-78634571D01*
X90601040Y-78644040D01*
X90608500Y-78647774D01*
X90589767Y-78716664D01*
X90544131Y-78854630D01*
X90538788Y-78870024D01*
X90469076Y-79070000D01*
X89919663Y-79067457D01*
X89566421Y-79052554D01*
X89310772Y-79012958D01*
X89202360Y-78973708D01*
X89025823Y-78813782D01*
X88944348Y-78592449D01*
X88957398Y-78331904D01*
X89064435Y-78054345D01*
X89230294Y-77820046D01*
X89455224Y-77608208D01*
X89708689Y-77467610D01*
X90019808Y-77387663D01*
X90417698Y-77357782D01*
X90504168Y-77356894D01*
X90771799Y-77358404D01*
G37*
X90771799Y-77358404D02*
X90934395Y-77367664D01*
X91013883Y-77389329D01*
X91032192Y-77428057D01*
X91020839Y-77466625D01*
X90962546Y-77626592D01*
X90943139Y-77688875D01*
X90910841Y-77742673D01*
X90835076Y-77776003D01*
X90690977Y-77793461D01*
X90453679Y-77799647D01*
X90342209Y-77800000D01*
X90068035Y-77802362D01*
X89887702Y-77814884D01*
X89768067Y-77845718D01*
X89675986Y-77903016D01*
X89587615Y-77985615D01*
X89448317Y-78179816D01*
X89404600Y-78371986D01*
X89462339Y-78531866D01*
X89478200Y-78549300D01*
X89585673Y-78590472D01*
X89798704Y-78616743D01*
X90081450Y-78625500D01*
X90322210Y-78627975D01*
X90505242Y-78634571D01*
X90601040Y-78644040D01*
X90608500Y-78647774D01*
X90589767Y-78716664D01*
X90544131Y-78854630D01*
X90538788Y-78870024D01*
X90469076Y-79070000D01*
X89919663Y-79067457D01*
X89566421Y-79052554D01*
X89310772Y-79012958D01*
X89202360Y-78973708D01*
X89025823Y-78813782D01*
X88944348Y-78592449D01*
X88957398Y-78331904D01*
X89064435Y-78054345D01*
X89230294Y-77820046D01*
X89455224Y-77608208D01*
X89708689Y-77467610D01*
X90019808Y-77387663D01*
X90417698Y-77357782D01*
X90504168Y-77356894D01*
X90771799Y-77358404D01*
G36*
X90299790Y-80436541D02*
G01*
X90503961Y-80444292D01*
X90635967Y-80464315D01*
X90723225Y-80502422D01*
X90793152Y-80564427D01*
X90836388Y-80613415D01*
X90957339Y-80843424D01*
X90970228Y-81107246D01*
X90881667Y-81384118D01*
X90698269Y-81653278D01*
X90429094Y-81892245D01*
X90299299Y-81977859D01*
X90179830Y-82034763D01*
X90038680Y-82070104D01*
X89843845Y-82091023D01*
X89563322Y-82104666D01*
X89461258Y-82108286D01*
X89156558Y-82117183D01*
X88956915Y-82116937D01*
X88840538Y-82104571D01*
X88785632Y-82077109D01*
X88770406Y-82031573D01*
X88770319Y-82013899D01*
X88792714Y-81910431D01*
X88851238Y-81716030D01*
X88891840Y-81594125D01*
X89343421Y-81594125D01*
X89396114Y-81642456D01*
X89537194Y-81668616D01*
X89730080Y-81673071D01*
X89938193Y-81656285D01*
X90124953Y-81618721D01*
X90218290Y-81583012D01*
X90384550Y-81446419D01*
X90493515Y-81260950D01*
X90520257Y-81073592D01*
X90510980Y-81031350D01*
X90428512Y-80923602D01*
X90257172Y-80865961D01*
X89983441Y-80854762D01*
X89879194Y-80859919D01*
X89698791Y-80876531D01*
X89594946Y-80917824D01*
X89527906Y-81015765D01*
X89459699Y-81197250D01*
X89395438Y-81392166D01*
X89352851Y-81543507D01*
X89343421Y-81594125D01*
X88891840Y-81594125D01*
X88937007Y-81458519D01*
X89041137Y-81165721D01*
X89041218Y-81165500D01*
X89308798Y-80435250D01*
X89996038Y-80435250D01*
X90299790Y-80436541D01*
G37*
X90299790Y-80436541D02*
X90503961Y-80444292D01*
X90635967Y-80464315D01*
X90723225Y-80502422D01*
X90793152Y-80564427D01*
X90836388Y-80613415D01*
X90957339Y-80843424D01*
X90970228Y-81107246D01*
X90881667Y-81384118D01*
X90698269Y-81653278D01*
X90429094Y-81892245D01*
X90299299Y-81977859D01*
X90179830Y-82034763D01*
X90038680Y-82070104D01*
X89843845Y-82091023D01*
X89563322Y-82104666D01*
X89461258Y-82108286D01*
X89156558Y-82117183D01*
X88956915Y-82116937D01*
X88840538Y-82104571D01*
X88785632Y-82077109D01*
X88770406Y-82031573D01*
X88770319Y-82013899D01*
X88792714Y-81910431D01*
X88851238Y-81716030D01*
X88891840Y-81594125D01*
X89343421Y-81594125D01*
X89396114Y-81642456D01*
X89537194Y-81668616D01*
X89730080Y-81673071D01*
X89938193Y-81656285D01*
X90124953Y-81618721D01*
X90218290Y-81583012D01*
X90384550Y-81446419D01*
X90493515Y-81260950D01*
X90520257Y-81073592D01*
X90510980Y-81031350D01*
X90428512Y-80923602D01*
X90257172Y-80865961D01*
X89983441Y-80854762D01*
X89879194Y-80859919D01*
X89698791Y-80876531D01*
X89594946Y-80917824D01*
X89527906Y-81015765D01*
X89459699Y-81197250D01*
X89395438Y-81392166D01*
X89352851Y-81543507D01*
X89343421Y-81594125D01*
X88891840Y-81594125D01*
X88937007Y-81458519D01*
X89041137Y-81165721D01*
X89041218Y-81165500D01*
X89308798Y-80435250D01*
X89996038Y-80435250D01*
X90299790Y-80436541D01*
G36*
X93131902Y-74529750D02*
G01*
X93063691Y-74752000D01*
X92286506Y-74752000D01*
X92078368Y-75387000D01*
X91870229Y-76022000D01*
X91652114Y-76022000D01*
X91506761Y-76015810D01*
X91435472Y-76000631D01*
X91434000Y-75997824D01*
X91454257Y-75931783D01*
X91508926Y-75772736D01*
X91588855Y-75546971D01*
X91655109Y-75362824D01*
X91876219Y-74752000D01*
X91496359Y-74752000D01*
X91295717Y-74748616D01*
X91158048Y-74739824D01*
X91116500Y-74729725D01*
X91135232Y-74660835D01*
X91180868Y-74522869D01*
X91186211Y-74507475D01*
X91255923Y-74307500D01*
X93200112Y-74307500D01*
X93131902Y-74529750D01*
G37*
X93131902Y-74529750D02*
X93063691Y-74752000D01*
X92286506Y-74752000D01*
X92078368Y-75387000D01*
X91870229Y-76022000D01*
X91652114Y-76022000D01*
X91506761Y-76015810D01*
X91435472Y-76000631D01*
X91434000Y-75997824D01*
X91454257Y-75931783D01*
X91508926Y-75772736D01*
X91588855Y-75546971D01*
X91655109Y-75362824D01*
X91876219Y-74752000D01*
X91496359Y-74752000D01*
X91295717Y-74748616D01*
X91158048Y-74739824D01*
X91116500Y-74729725D01*
X91135232Y-74660835D01*
X91180868Y-74522869D01*
X91186211Y-74507475D01*
X91255923Y-74307500D01*
X93200112Y-74307500D01*
X93131902Y-74529750D01*
G36*
X108657937Y-74311233D02*
G01*
X108916803Y-74318874D01*
X109123933Y-74332236D01*
X109251094Y-74351237D01*
X109277500Y-74366866D01*
X109256619Y-74466382D01*
X109216397Y-74586943D01*
X109183981Y-74657939D01*
X109135052Y-74704981D01*
X109045222Y-74733916D01*
X108890106Y-74750594D01*
X108645316Y-74760862D01*
X108471025Y-74765702D01*
X108164360Y-74776254D01*
X107962508Y-74791285D01*
X107843286Y-74814859D01*
X107784508Y-74851036D01*
X107765471Y-74894875D01*
X107767540Y-74945437D01*
X107811533Y-74977932D01*
X107919141Y-74996258D01*
X108112053Y-75004311D01*
X108383843Y-75006000D01*
X108696660Y-75010742D01*
X108897347Y-75026177D01*
X109000461Y-75054113D01*
X109022527Y-75085375D01*
X109005396Y-75184704D01*
X108943428Y-75252801D01*
X108816454Y-75296320D01*
X108604306Y-75321917D01*
X108286814Y-75336246D01*
X108259962Y-75337003D01*
X107957824Y-75348018D01*
X107760365Y-75363927D01*
X107645270Y-75388877D01*
X107590221Y-75427014D01*
X107575385Y-75464183D01*
X107579091Y-75513423D01*
X107626736Y-75546650D01*
X107739440Y-75568021D01*
X107938319Y-75581696D01*
X108220240Y-75591183D01*
X108885949Y-75609250D01*
X108799039Y-75815625D01*
X108712130Y-76022000D01*
X107881572Y-76022000D01*
X107519798Y-76018733D01*
X107268663Y-76007877D01*
X107111952Y-75987846D01*
X107033444Y-75957054D01*
X107018636Y-75937624D01*
X107025534Y-75842657D01*
X107070972Y-75659887D01*
X107144560Y-75418706D01*
X107235908Y-75148505D01*
X107334626Y-74878676D01*
X107430322Y-74638613D01*
X107512607Y-74457705D01*
X107571090Y-74365347D01*
X107575707Y-74361802D01*
X107669763Y-74339572D01*
X107853247Y-74323484D01*
X108097926Y-74313454D01*
X108375567Y-74309399D01*
X108657937Y-74311233D01*
G37*
X108657937Y-74311233D02*
X108916803Y-74318874D01*
X109123933Y-74332236D01*
X109251094Y-74351237D01*
X109277500Y-74366866D01*
X109256619Y-74466382D01*
X109216397Y-74586943D01*
X109183981Y-74657939D01*
X109135052Y-74704981D01*
X109045222Y-74733916D01*
X108890106Y-74750594D01*
X108645316Y-74760862D01*
X108471025Y-74765702D01*
X108164360Y-74776254D01*
X107962508Y-74791285D01*
X107843286Y-74814859D01*
X107784508Y-74851036D01*
X107765471Y-74894875D01*
X107767540Y-74945437D01*
X107811533Y-74977932D01*
X107919141Y-74996258D01*
X108112053Y-75004311D01*
X108383843Y-75006000D01*
X108696660Y-75010742D01*
X108897347Y-75026177D01*
X109000461Y-75054113D01*
X109022527Y-75085375D01*
X109005396Y-75184704D01*
X108943428Y-75252801D01*
X108816454Y-75296320D01*
X108604306Y-75321917D01*
X108286814Y-75336246D01*
X108259962Y-75337003D01*
X107957824Y-75348018D01*
X107760365Y-75363927D01*
X107645270Y-75388877D01*
X107590221Y-75427014D01*
X107575385Y-75464183D01*
X107579091Y-75513423D01*
X107626736Y-75546650D01*
X107739440Y-75568021D01*
X107938319Y-75581696D01*
X108220240Y-75591183D01*
X108885949Y-75609250D01*
X108799039Y-75815625D01*
X108712130Y-76022000D01*
X107881572Y-76022000D01*
X107519798Y-76018733D01*
X107268663Y-76007877D01*
X107111952Y-75987846D01*
X107033444Y-75957054D01*
X107018636Y-75937624D01*
X107025534Y-75842657D01*
X107070972Y-75659887D01*
X107144560Y-75418706D01*
X107235908Y-75148505D01*
X107334626Y-74878676D01*
X107430322Y-74638613D01*
X107512607Y-74457705D01*
X107571090Y-74365347D01*
X107575707Y-74361802D01*
X107669763Y-74339572D01*
X107853247Y-74323484D01*
X108097926Y-74313454D01*
X108375567Y-74309399D01*
X108657937Y-74311233D01*
G36*
X103369635Y-77369059D02*
G01*
X103434919Y-77401605D01*
X103435500Y-77405348D01*
X103415473Y-77480766D01*
X103360666Y-77651900D01*
X103278991Y-77894855D01*
X103178357Y-78185737D01*
X103156946Y-78246723D01*
X102878393Y-79038250D01*
X102656859Y-79057486D01*
X102435324Y-79076722D01*
X103022750Y-77356370D01*
X103229125Y-77355935D01*
X103369635Y-77369059D01*
G37*
X103369635Y-77369059D02*
X103434919Y-77401605D01*
X103435500Y-77405348D01*
X103415473Y-77480766D01*
X103360666Y-77651900D01*
X103278991Y-77894855D01*
X103178357Y-78185737D01*
X103156946Y-78246723D01*
X102878393Y-79038250D01*
X102656859Y-79057486D01*
X102435324Y-79076722D01*
X103022750Y-77356370D01*
X103229125Y-77355935D01*
X103369635Y-77369059D01*
G36*
X107627006Y-77353635D02*
G01*
X107796613Y-77370941D01*
X107877597Y-77405105D01*
X107880500Y-77414866D01*
X107859616Y-77514155D01*
X107818571Y-77637116D01*
X107783408Y-77714007D01*
X107731164Y-77761868D01*
X107634841Y-77787571D01*
X107467437Y-77797990D01*
X107201954Y-77799996D01*
X107178687Y-77800000D01*
X106902201Y-77802255D01*
X106719986Y-77814322D01*
X106599325Y-77844155D01*
X106507504Y-77899705D01*
X106415115Y-77985615D01*
X106275817Y-78179816D01*
X106232100Y-78371986D01*
X106289839Y-78531866D01*
X106305700Y-78549300D01*
X106409315Y-78592784D01*
X106590634Y-78620373D01*
X106715901Y-78625500D01*
X107049902Y-78625500D01*
X107126002Y-78371500D01*
X107185448Y-78209024D01*
X107259053Y-78136061D01*
X107386437Y-78117702D01*
X107414301Y-78117500D01*
X107535547Y-78124538D01*
X107599587Y-78160643D01*
X107609147Y-78248302D01*
X107566953Y-78410001D01*
X107479745Y-78657250D01*
X107340540Y-79038250D01*
X106769145Y-79052799D01*
X106424325Y-79051712D01*
X106184587Y-79026472D01*
X106029944Y-78974972D01*
X106029860Y-78974925D01*
X105856581Y-78817408D01*
X105777105Y-78604274D01*
X105784442Y-78357165D01*
X105871599Y-78097726D01*
X106031587Y-77847600D01*
X106257413Y-77628432D01*
X106514705Y-77473926D01*
X106670965Y-77426678D01*
X106890756Y-77389709D01*
X107143647Y-77364335D01*
X107399207Y-77351871D01*
X107627006Y-77353635D01*
G37*
X107627006Y-77353635D02*
X107796613Y-77370941D01*
X107877597Y-77405105D01*
X107880500Y-77414866D01*
X107859616Y-77514155D01*
X107818571Y-77637116D01*
X107783408Y-77714007D01*
X107731164Y-77761868D01*
X107634841Y-77787571D01*
X107467437Y-77797990D01*
X107201954Y-77799996D01*
X107178687Y-77800000D01*
X106902201Y-77802255D01*
X106719986Y-77814322D01*
X106599325Y-77844155D01*
X106507504Y-77899705D01*
X106415115Y-77985615D01*
X106275817Y-78179816D01*
X106232100Y-78371986D01*
X106289839Y-78531866D01*
X106305700Y-78549300D01*
X106409315Y-78592784D01*
X106590634Y-78620373D01*
X106715901Y-78625500D01*
X107049902Y-78625500D01*
X107126002Y-78371500D01*
X107185448Y-78209024D01*
X107259053Y-78136061D01*
X107386437Y-78117702D01*
X107414301Y-78117500D01*
X107535547Y-78124538D01*
X107599587Y-78160643D01*
X107609147Y-78248302D01*
X107566953Y-78410001D01*
X107479745Y-78657250D01*
X107340540Y-79038250D01*
X106769145Y-79052799D01*
X106424325Y-79051712D01*
X106184587Y-79026472D01*
X106029944Y-78974972D01*
X106029860Y-78974925D01*
X105856581Y-78817408D01*
X105777105Y-78604274D01*
X105784442Y-78357165D01*
X105871599Y-78097726D01*
X106031587Y-77847600D01*
X106257413Y-77628432D01*
X106514705Y-77473926D01*
X106670965Y-77426678D01*
X106890756Y-77389709D01*
X107143647Y-77364335D01*
X107399207Y-77351871D01*
X107627006Y-77353635D01*
G36*
X95926830Y-77444658D02*
G01*
X95993300Y-77495200D01*
X96044892Y-77571284D01*
X96062411Y-77678299D01*
X96043013Y-77837430D01*
X95983855Y-78069866D01*
X95882094Y-78396792D01*
X95865496Y-78447615D01*
X95772759Y-78726595D01*
X95705037Y-78906552D01*
X95647934Y-79009194D01*
X95587056Y-79056228D01*
X95508005Y-79069361D01*
X95452746Y-79070000D01*
X95311196Y-79062882D01*
X95244717Y-79045525D01*
X95244000Y-79043309D01*
X95263762Y-78975634D01*
X95316741Y-78816446D01*
X95393477Y-78593847D01*
X95438586Y-78465313D01*
X95520770Y-78221401D01*
X95579226Y-78026103D01*
X95605918Y-77907480D01*
X95604657Y-77885491D01*
X95555055Y-77919555D01*
X95440948Y-78033349D01*
X95279235Y-78209121D01*
X95086814Y-78429120D01*
X95083707Y-78432752D01*
X94799950Y-78748348D01*
X94574913Y-78956010D01*
X94399964Y-79055474D01*
X94266472Y-79046476D01*
X94165804Y-78928751D01*
X94089329Y-78702036D01*
X94033459Y-78400606D01*
X93992197Y-78158231D01*
X93950711Y-77972718D01*
X93915880Y-77872940D01*
X93905512Y-77863500D01*
X93866561Y-77919776D01*
X93800007Y-78071482D01*
X93716453Y-78292928D01*
X93656500Y-78466750D01*
X93563990Y-78740393D01*
X93496454Y-78915507D01*
X93438821Y-79014084D01*
X93376020Y-79058116D01*
X93292981Y-79069595D01*
X93243118Y-79070000D01*
X93030709Y-79070000D01*
X93251154Y-78411689D01*
X93386380Y-78041209D01*
X93513017Y-77777377D01*
X93644424Y-77601751D01*
X93793958Y-77495889D01*
X93950783Y-77445868D01*
X94116665Y-77441055D01*
X94239008Y-77513311D01*
X94329462Y-77677756D01*
X94399677Y-77949508D01*
X94418256Y-78052554D01*
X94460919Y-78271039D01*
X94503045Y-78430023D01*
X94536120Y-78497932D01*
X94538492Y-78498500D01*
X94596263Y-78452821D01*
X94713590Y-78330374D01*
X94870050Y-78153045D01*
X94957643Y-78049353D01*
X95261550Y-77719591D01*
X95524687Y-77508725D01*
X95746599Y-77417000D01*
X95926830Y-77444658D01*
G37*
X95926830Y-77444658D02*
X95993300Y-77495200D01*
X96044892Y-77571284D01*
X96062411Y-77678299D01*
X96043013Y-77837430D01*
X95983855Y-78069866D01*
X95882094Y-78396792D01*
X95865496Y-78447615D01*
X95772759Y-78726595D01*
X95705037Y-78906552D01*
X95647934Y-79009194D01*
X95587056Y-79056228D01*
X95508005Y-79069361D01*
X95452746Y-79070000D01*
X95311196Y-79062882D01*
X95244717Y-79045525D01*
X95244000Y-79043309D01*
X95263762Y-78975634D01*
X95316741Y-78816446D01*
X95393477Y-78593847D01*
X95438586Y-78465313D01*
X95520770Y-78221401D01*
X95579226Y-78026103D01*
X95605918Y-77907480D01*
X95604657Y-77885491D01*
X95555055Y-77919555D01*
X95440948Y-78033349D01*
X95279235Y-78209121D01*
X95086814Y-78429120D01*
X95083707Y-78432752D01*
X94799950Y-78748348D01*
X94574913Y-78956010D01*
X94399964Y-79055474D01*
X94266472Y-79046476D01*
X94165804Y-78928751D01*
X94089329Y-78702036D01*
X94033459Y-78400606D01*
X93992197Y-78158231D01*
X93950711Y-77972718D01*
X93915880Y-77872940D01*
X93905512Y-77863500D01*
X93866561Y-77919776D01*
X93800007Y-78071482D01*
X93716453Y-78292928D01*
X93656500Y-78466750D01*
X93563990Y-78740393D01*
X93496454Y-78915507D01*
X93438821Y-79014084D01*
X93376020Y-79058116D01*
X93292981Y-79069595D01*
X93243118Y-79070000D01*
X93030709Y-79070000D01*
X93251154Y-78411689D01*
X93386380Y-78041209D01*
X93513017Y-77777377D01*
X93644424Y-77601751D01*
X93793958Y-77495889D01*
X93950783Y-77445868D01*
X94116665Y-77441055D01*
X94239008Y-77513311D01*
X94329462Y-77677756D01*
X94399677Y-77949508D01*
X94418256Y-78052554D01*
X94460919Y-78271039D01*
X94503045Y-78430023D01*
X94536120Y-78497932D01*
X94538492Y-78498500D01*
X94596263Y-78452821D01*
X94713590Y-78330374D01*
X94870050Y-78153045D01*
X94957643Y-78049353D01*
X95261550Y-77719591D01*
X95524687Y-77508725D01*
X95746599Y-77417000D01*
X95926830Y-77444658D01*
G36*
X97647691Y-77365333D02*
G01*
X97933085Y-77399372D01*
X98124027Y-77464420D01*
X98236194Y-77567283D01*
X98285262Y-77714767D01*
X98291027Y-77806484D01*
X98238970Y-78017487D01*
X98100049Y-78239336D01*
X97903528Y-78431464D01*
X97784990Y-78507922D01*
X97604813Y-78577188D01*
X97368750Y-78614519D01*
X97048051Y-78625500D01*
X96532371Y-78625500D01*
X96473546Y-78831875D01*
X96415683Y-78972667D01*
X96318965Y-79036744D01*
X96178724Y-79057951D01*
X95942728Y-79077652D01*
X96227074Y-78276100D01*
X96271062Y-78153383D01*
X96704500Y-78153383D01*
X96762796Y-78166641D01*
X96916894Y-78176421D01*
X97135606Y-78180897D01*
X97176214Y-78181000D01*
X97456459Y-78171916D01*
X97636807Y-78141567D01*
X97743269Y-78085305D01*
X97750549Y-78078379D01*
X97828658Y-77971609D01*
X97808967Y-77896283D01*
X97683077Y-77847253D01*
X97442589Y-77819370D01*
X97317976Y-77813193D01*
X97071129Y-77805954D01*
X96921179Y-77812806D01*
X96838171Y-77841747D01*
X96792148Y-77900778D01*
X96767447Y-77960202D01*
X96721387Y-78090190D01*
X96704500Y-78153383D01*
X96271062Y-78153383D01*
X96334899Y-77975298D01*
X96429699Y-77716692D01*
X96502462Y-77524445D01*
X96544176Y-77422719D01*
X96548207Y-77415023D01*
X96623212Y-77390458D01*
X96797010Y-77370825D01*
X97041419Y-77358505D01*
X97252172Y-77355500D01*
X97647691Y-77365333D01*
G37*
X97647691Y-77365333D02*
X97933085Y-77399372D01*
X98124027Y-77464420D01*
X98236194Y-77567283D01*
X98285262Y-77714767D01*
X98291027Y-77806484D01*
X98238970Y-78017487D01*
X98100049Y-78239336D01*
X97903528Y-78431464D01*
X97784990Y-78507922D01*
X97604813Y-78577188D01*
X97368750Y-78614519D01*
X97048051Y-78625500D01*
X96532371Y-78625500D01*
X96473546Y-78831875D01*
X96415683Y-78972667D01*
X96318965Y-79036744D01*
X96178724Y-79057951D01*
X95942728Y-79077652D01*
X96227074Y-78276100D01*
X96271062Y-78153383D01*
X96704500Y-78153383D01*
X96762796Y-78166641D01*
X96916894Y-78176421D01*
X97135606Y-78180897D01*
X97176214Y-78181000D01*
X97456459Y-78171916D01*
X97636807Y-78141567D01*
X97743269Y-78085305D01*
X97750549Y-78078379D01*
X97828658Y-77971609D01*
X97808967Y-77896283D01*
X97683077Y-77847253D01*
X97442589Y-77819370D01*
X97317976Y-77813193D01*
X97071129Y-77805954D01*
X96921179Y-77812806D01*
X96838171Y-77841747D01*
X96792148Y-77900778D01*
X96767447Y-77960202D01*
X96721387Y-78090190D01*
X96704500Y-78153383D01*
X96271062Y-78153383D01*
X96334899Y-77975298D01*
X96429699Y-77716692D01*
X96502462Y-77524445D01*
X96544176Y-77422719D01*
X96548207Y-77415023D01*
X96623212Y-77390458D01*
X96797010Y-77370825D01*
X97041419Y-77358505D01*
X97252172Y-77355500D01*
X97647691Y-77365333D01*
G36*
X99044831Y-77360582D02*
G01*
X99116043Y-77373046D01*
X99117500Y-77375338D01*
X99098520Y-77440094D01*
X99047573Y-77597537D01*
X98973648Y-77820138D01*
X98927000Y-77958750D01*
X98843889Y-78210082D01*
X98779149Y-78416253D01*
X98741934Y-78547575D01*
X98736500Y-78576479D01*
X98794931Y-78599350D01*
X98950391Y-78612671D01*
X99173131Y-78614383D01*
X99252353Y-78612193D01*
X99768206Y-78593750D01*
X100211814Y-77355500D01*
X100433451Y-77355500D01*
X100578612Y-77365449D01*
X100624266Y-77406512D01*
X100609759Y-77466625D01*
X100568910Y-77576020D01*
X100499966Y-77769655D01*
X100415695Y-78011524D01*
X100387814Y-78092534D01*
X100297165Y-78347649D01*
X100212301Y-78570811D01*
X100148106Y-78723315D01*
X100135487Y-78748785D01*
X99999815Y-78897414D01*
X99771797Y-78998456D01*
X99441502Y-79054884D01*
X99063074Y-79070000D01*
X98770959Y-79064891D01*
X98574428Y-79046050D01*
X98442345Y-79008208D01*
X98346831Y-78948749D01*
X98197093Y-78827499D01*
X98439328Y-78091499D01*
X98681563Y-77355500D01*
X98899531Y-77355500D01*
X99044831Y-77360582D01*
G37*
X99044831Y-77360582D02*
X99116043Y-77373046D01*
X99117500Y-77375338D01*
X99098520Y-77440094D01*
X99047573Y-77597537D01*
X98973648Y-77820138D01*
X98927000Y-77958750D01*
X98843889Y-78210082D01*
X98779149Y-78416253D01*
X98741934Y-78547575D01*
X98736500Y-78576479D01*
X98794931Y-78599350D01*
X98950391Y-78612671D01*
X99173131Y-78614383D01*
X99252353Y-78612193D01*
X99768206Y-78593750D01*
X100211814Y-77355500D01*
X100433451Y-77355500D01*
X100578612Y-77365449D01*
X100624266Y-77406512D01*
X100609759Y-77466625D01*
X100568910Y-77576020D01*
X100499966Y-77769655D01*
X100415695Y-78011524D01*
X100387814Y-78092534D01*
X100297165Y-78347649D01*
X100212301Y-78570811D01*
X100148106Y-78723315D01*
X100135487Y-78748785D01*
X99999815Y-78897414D01*
X99771797Y-78998456D01*
X99441502Y-79054884D01*
X99063074Y-79070000D01*
X98770959Y-79064891D01*
X98574428Y-79046050D01*
X98442345Y-79008208D01*
X98346831Y-78948749D01*
X98197093Y-78827499D01*
X98439328Y-78091499D01*
X98681563Y-77355500D01*
X98899531Y-77355500D01*
X99044831Y-77360582D01*
G36*
X102720402Y-77577750D02*
G01*
X102652191Y-77800000D01*
X101875006Y-77800000D01*
X101666868Y-78435000D01*
X101458729Y-79070000D01*
X101240614Y-79070000D01*
X101095261Y-79063810D01*
X101023972Y-79048631D01*
X101022500Y-79045824D01*
X101042757Y-78979783D01*
X101097426Y-78820736D01*
X101177355Y-78594971D01*
X101243609Y-78410824D01*
X101464719Y-77800000D01*
X101084859Y-77800000D01*
X100884217Y-77796616D01*
X100746548Y-77787824D01*
X100705000Y-77777725D01*
X100723732Y-77708835D01*
X100769368Y-77570869D01*
X100774711Y-77555475D01*
X100844423Y-77355500D01*
X102788612Y-77355500D01*
X102720402Y-77577750D01*
G37*
X102720402Y-77577750D02*
X102652191Y-77800000D01*
X101875006Y-77800000D01*
X101666868Y-78435000D01*
X101458729Y-79070000D01*
X101240614Y-79070000D01*
X101095261Y-79063810D01*
X101023972Y-79048631D01*
X101022500Y-79045824D01*
X101042757Y-78979783D01*
X101097426Y-78820736D01*
X101177355Y-78594971D01*
X101243609Y-78410824D01*
X101464719Y-77800000D01*
X101084859Y-77800000D01*
X100884217Y-77796616D01*
X100746548Y-77787824D01*
X100705000Y-77777725D01*
X100723732Y-77708835D01*
X100769368Y-77570869D01*
X100774711Y-77555475D01*
X100844423Y-77355500D01*
X102788612Y-77355500D01*
X102720402Y-77577750D01*
G36*
X90822367Y-74314640D02*
G01*
X90984980Y-74333847D01*
X91052567Y-74363873D01*
X91053000Y-74366866D01*
X91032116Y-74466155D01*
X90991071Y-74589116D01*
X90958612Y-74661917D01*
X90911196Y-74708972D01*
X90823913Y-74735898D01*
X90671853Y-74748310D01*
X90430104Y-74751824D01*
X90268596Y-74752000D01*
X89930904Y-74757900D01*
X89704587Y-74776779D01*
X89574520Y-74810397D01*
X89537326Y-74837217D01*
X89495061Y-74913453D01*
X89528708Y-74963587D01*
X89652668Y-74992385D01*
X89881346Y-75004610D01*
X90047583Y-75006000D01*
X90312724Y-75011275D01*
X90484976Y-75031847D01*
X90598189Y-75074835D01*
X90677502Y-75138502D01*
X90769483Y-75307966D01*
X90753883Y-75502898D01*
X90640461Y-75700186D01*
X90438976Y-75876717D01*
X90341928Y-75933251D01*
X90182268Y-75980697D01*
X89917148Y-76009857D01*
X89537289Y-76021645D01*
X89442847Y-76022000D01*
X88715387Y-76022000D01*
X88782988Y-75801735D01*
X88850589Y-75581471D01*
X89554159Y-75563610D01*
X89865662Y-75553360D01*
X90072065Y-75538865D01*
X90195270Y-75516228D01*
X90257176Y-75481553D01*
X90279020Y-75434625D01*
X90276133Y-75379317D01*
X90225548Y-75345985D01*
X90103515Y-75329257D01*
X89886287Y-75323763D01*
X89787656Y-75323500D01*
X89518918Y-75318600D01*
X89343840Y-75299367D01*
X89229305Y-75258999D01*
X89142497Y-75190997D01*
X89050516Y-75021533D01*
X89066116Y-74826601D01*
X89179538Y-74629313D01*
X89381023Y-74452782D01*
X89478071Y-74396248D01*
X89600744Y-74361923D01*
X89802704Y-74335164D01*
X90054898Y-74316514D01*
X90328274Y-74306516D01*
X90593782Y-74305710D01*
X90822367Y-74314640D01*
G37*
X90822367Y-74314640D02*
X90984980Y-74333847D01*
X91052567Y-74363873D01*
X91053000Y-74366866D01*
X91032116Y-74466155D01*
X90991071Y-74589116D01*
X90958612Y-74661917D01*
X90911196Y-74708972D01*
X90823913Y-74735898D01*
X90671853Y-74748310D01*
X90430104Y-74751824D01*
X90268596Y-74752000D01*
X89930904Y-74757900D01*
X89704587Y-74776779D01*
X89574520Y-74810397D01*
X89537326Y-74837217D01*
X89495061Y-74913453D01*
X89528708Y-74963587D01*
X89652668Y-74992385D01*
X89881346Y-75004610D01*
X90047583Y-75006000D01*
X90312724Y-75011275D01*
X90484976Y-75031847D01*
X90598189Y-75074835D01*
X90677502Y-75138502D01*
X90769483Y-75307966D01*
X90753883Y-75502898D01*
X90640461Y-75700186D01*
X90438976Y-75876717D01*
X90341928Y-75933251D01*
X90182268Y-75980697D01*
X89917148Y-76009857D01*
X89537289Y-76021645D01*
X89442847Y-76022000D01*
X88715387Y-76022000D01*
X88782988Y-75801735D01*
X88850589Y-75581471D01*
X89554159Y-75563610D01*
X89865662Y-75553360D01*
X90072065Y-75538865D01*
X90195270Y-75516228D01*
X90257176Y-75481553D01*
X90279020Y-75434625D01*
X90276133Y-75379317D01*
X90225548Y-75345985D01*
X90103515Y-75329257D01*
X89886287Y-75323763D01*
X89787656Y-75323500D01*
X89518918Y-75318600D01*
X89343840Y-75299367D01*
X89229305Y-75258999D01*
X89142497Y-75190997D01*
X89050516Y-75021533D01*
X89066116Y-74826601D01*
X89179538Y-74629313D01*
X89381023Y-74452782D01*
X89478071Y-74396248D01*
X89600744Y-74361923D01*
X89802704Y-74335164D01*
X90054898Y-74316514D01*
X90328274Y-74306516D01*
X90593782Y-74305710D01*
X90822367Y-74314640D01*
G36*
X97115686Y-74307500D02*
G01*
X97495970Y-74312767D01*
X97761744Y-74331593D01*
X97925179Y-74368518D01*
X97998445Y-74428079D01*
X97993711Y-74514815D01*
X97937086Y-74613815D01*
X97809933Y-74742808D01*
X97648323Y-74851737D01*
X97456855Y-74950748D01*
X97620427Y-75102342D01*
X97731604Y-75210098D01*
X97773130Y-75291354D01*
X97753213Y-75396628D01*
X97692571Y-75546399D01*
X97589145Y-75733690D01*
X97446635Y-75866942D01*
X97244774Y-75954011D01*
X96963294Y-76002756D01*
X96581928Y-76021032D01*
X96466375Y-76021762D01*
X96182254Y-76020008D01*
X95951701Y-76015067D01*
X95800059Y-76007721D01*
X95752000Y-75999725D01*
X95770722Y-75930797D01*
X95816266Y-75793148D01*
X95820958Y-75779636D01*
X95889917Y-75581822D01*
X96535333Y-75563786D01*
X96827417Y-75553777D01*
X97015252Y-75540004D01*
X97121582Y-75517357D01*
X97169150Y-75480724D01*
X97180700Y-75424995D01*
X97180750Y-75418750D01*
X97157470Y-75335093D01*
X97066426Y-75291219D01*
X96910875Y-75272223D01*
X96745974Y-75247762D01*
X96650511Y-75209347D01*
X96641000Y-75192965D01*
X96690618Y-75129085D01*
X96818604Y-75027018D01*
X96942625Y-74943823D01*
X97244250Y-74754413D01*
X96720375Y-74753206D01*
X96480411Y-74750163D01*
X96298265Y-74743112D01*
X96203536Y-74733380D01*
X96196500Y-74729725D01*
X96215232Y-74660835D01*
X96260868Y-74522869D01*
X96266211Y-74507475D01*
X96335923Y-74307499D01*
X97115686Y-74307500D01*
G37*
X97115686Y-74307500D02*
X97495970Y-74312767D01*
X97761744Y-74331593D01*
X97925179Y-74368518D01*
X97998445Y-74428079D01*
X97993711Y-74514815D01*
X97937086Y-74613815D01*
X97809933Y-74742808D01*
X97648323Y-74851737D01*
X97456855Y-74950748D01*
X97620427Y-75102342D01*
X97731604Y-75210098D01*
X97773130Y-75291354D01*
X97753213Y-75396628D01*
X97692571Y-75546399D01*
X97589145Y-75733690D01*
X97446635Y-75866942D01*
X97244774Y-75954011D01*
X96963294Y-76002756D01*
X96581928Y-76021032D01*
X96466375Y-76021762D01*
X96182254Y-76020008D01*
X95951701Y-76015067D01*
X95800059Y-76007721D01*
X95752000Y-75999725D01*
X95770722Y-75930797D01*
X95816266Y-75793148D01*
X95820958Y-75779636D01*
X95889917Y-75581822D01*
X96535333Y-75563786D01*
X96827417Y-75553777D01*
X97015252Y-75540004D01*
X97121582Y-75517357D01*
X97169150Y-75480724D01*
X97180700Y-75424995D01*
X97180750Y-75418750D01*
X97157470Y-75335093D01*
X97066426Y-75291219D01*
X96910875Y-75272223D01*
X96745974Y-75247762D01*
X96650511Y-75209347D01*
X96641000Y-75192965D01*
X96690618Y-75129085D01*
X96818604Y-75027018D01*
X96942625Y-74943823D01*
X97244250Y-74754413D01*
X96720375Y-74753206D01*
X96480411Y-74750163D01*
X96298265Y-74743112D01*
X96203536Y-74733380D01*
X96196500Y-74729725D01*
X96215232Y-74660835D01*
X96260868Y-74522869D01*
X96266211Y-74507475D01*
X96335923Y-74307499D01*
X97115686Y-74307500D01*
G36*
X102434937Y-74311233D02*
G01*
X102693803Y-74318874D01*
X102900933Y-74332236D01*
X103028094Y-74351237D01*
X103054500Y-74366866D01*
X103033619Y-74466382D01*
X102993397Y-74586943D01*
X102960981Y-74657939D01*
X102912052Y-74704981D01*
X102822222Y-74733916D01*
X102667106Y-74750594D01*
X102422316Y-74760862D01*
X102248025Y-74765702D01*
X101941360Y-74776254D01*
X101739508Y-74791285D01*
X101620286Y-74814859D01*
X101561508Y-74851036D01*
X101542471Y-74894875D01*
X101544540Y-74945437D01*
X101588533Y-74977932D01*
X101696141Y-74996258D01*
X101889053Y-75004311D01*
X102160843Y-75006000D01*
X102473660Y-75010742D01*
X102674347Y-75026177D01*
X102777461Y-75054113D01*
X102799527Y-75085375D01*
X102782396Y-75184704D01*
X102720428Y-75252801D01*
X102593454Y-75296320D01*
X102381306Y-75321917D01*
X102063814Y-75336246D01*
X102036962Y-75337003D01*
X101734824Y-75348018D01*
X101537365Y-75363927D01*
X101422270Y-75388877D01*
X101367221Y-75427014D01*
X101352385Y-75464183D01*
X101356091Y-75513423D01*
X101403736Y-75546650D01*
X101516440Y-75568021D01*
X101715319Y-75581696D01*
X101997240Y-75591183D01*
X102662949Y-75609250D01*
X102576039Y-75815625D01*
X102489130Y-76022000D01*
X101658572Y-76022000D01*
X101296798Y-76018733D01*
X101045663Y-76007877D01*
X100888952Y-75987846D01*
X100810444Y-75957054D01*
X100795636Y-75937624D01*
X100802534Y-75842657D01*
X100847972Y-75659887D01*
X100921560Y-75418706D01*
X101012908Y-75148505D01*
X101111626Y-74878676D01*
X101207322Y-74638613D01*
X101289607Y-74457705D01*
X101348090Y-74365347D01*
X101352707Y-74361802D01*
X101446763Y-74339572D01*
X101630247Y-74323484D01*
X101874926Y-74313454D01*
X102152567Y-74309399D01*
X102434937Y-74311233D01*
G37*
X102434937Y-74311233D02*
X102693803Y-74318874D01*
X102900933Y-74332236D01*
X103028094Y-74351237D01*
X103054500Y-74366866D01*
X103033619Y-74466382D01*
X102993397Y-74586943D01*
X102960981Y-74657939D01*
X102912052Y-74704981D01*
X102822222Y-74733916D01*
X102667106Y-74750594D01*
X102422316Y-74760862D01*
X102248025Y-74765702D01*
X101941360Y-74776254D01*
X101739508Y-74791285D01*
X101620286Y-74814859D01*
X101561508Y-74851036D01*
X101542471Y-74894875D01*
X101544540Y-74945437D01*
X101588533Y-74977932D01*
X101696141Y-74996258D01*
X101889053Y-75004311D01*
X102160843Y-75006000D01*
X102473660Y-75010742D01*
X102674347Y-75026177D01*
X102777461Y-75054113D01*
X102799527Y-75085375D01*
X102782396Y-75184704D01*
X102720428Y-75252801D01*
X102593454Y-75296320D01*
X102381306Y-75321917D01*
X102063814Y-75336246D01*
X102036962Y-75337003D01*
X101734824Y-75348018D01*
X101537365Y-75363927D01*
X101422270Y-75388877D01*
X101367221Y-75427014D01*
X101352385Y-75464183D01*
X101356091Y-75513423D01*
X101403736Y-75546650D01*
X101516440Y-75568021D01*
X101715319Y-75581696D01*
X101997240Y-75591183D01*
X102662949Y-75609250D01*
X102576039Y-75815625D01*
X102489130Y-76022000D01*
X101658572Y-76022000D01*
X101296798Y-76018733D01*
X101045663Y-76007877D01*
X100888952Y-75987846D01*
X100810444Y-75957054D01*
X100795636Y-75937624D01*
X100802534Y-75842657D01*
X100847972Y-75659887D01*
X100921560Y-75418706D01*
X101012908Y-75148505D01*
X101111626Y-74878676D01*
X101207322Y-74638613D01*
X101289607Y-74457705D01*
X101348090Y-74365347D01*
X101352707Y-74361802D01*
X101446763Y-74339572D01*
X101630247Y-74323484D01*
X101874926Y-74313454D01*
X102152567Y-74309399D01*
X102434937Y-74311233D01*
G36*
X99366464Y-74313307D02*
G01*
X99629019Y-74334620D01*
X99800100Y-74377276D01*
X99897286Y-74447114D01*
X99938156Y-74549971D01*
X99943000Y-74622362D01*
X99894445Y-74844223D01*
X99743527Y-75036043D01*
X99482364Y-75204531D01*
X99103072Y-75356395D01*
X99066631Y-75368271D01*
X98514250Y-75545750D01*
X99069875Y-75564097D01*
X99317682Y-75574371D01*
X99508550Y-75586267D01*
X99613751Y-75597810D01*
X99625500Y-75602246D01*
X99606810Y-75669317D01*
X99561265Y-75806249D01*
X99555788Y-75822024D01*
X99486076Y-76022000D01*
X98703073Y-76022000D01*
X98349657Y-76018373D01*
X98102980Y-76006058D01*
X97942948Y-75982896D01*
X97849471Y-75946731D01*
X97825938Y-75927867D01*
X97762590Y-75785188D01*
X97802161Y-75616964D01*
X97901455Y-75491699D01*
X98002010Y-75433689D01*
X98194119Y-75348625D01*
X98448563Y-75248729D01*
X98688875Y-75162369D01*
X99035105Y-75036163D01*
X99258305Y-74936714D01*
X99358898Y-74860968D01*
X99337306Y-74805873D01*
X99193952Y-74768379D01*
X98929257Y-74745433D01*
X98747578Y-74738346D01*
X98123656Y-74720250D01*
X98292364Y-74307500D01*
X98994856Y-74307500D01*
X99366464Y-74313307D01*
G37*
X99366464Y-74313307D02*
X99629019Y-74334620D01*
X99800100Y-74377276D01*
X99897286Y-74447114D01*
X99938156Y-74549971D01*
X99943000Y-74622362D01*
X99894445Y-74844223D01*
X99743527Y-75036043D01*
X99482364Y-75204531D01*
X99103072Y-75356395D01*
X99066631Y-75368271D01*
X98514250Y-75545750D01*
X99069875Y-75564097D01*
X99317682Y-75574371D01*
X99508550Y-75586267D01*
X99613751Y-75597810D01*
X99625500Y-75602246D01*
X99606810Y-75669317D01*
X99561265Y-75806249D01*
X99555788Y-75822024D01*
X99486076Y-76022000D01*
X98703073Y-76022000D01*
X98349657Y-76018373D01*
X98102980Y-76006058D01*
X97942948Y-75982896D01*
X97849471Y-75946731D01*
X97825938Y-75927867D01*
X97762590Y-75785188D01*
X97802161Y-75616964D01*
X97901455Y-75491699D01*
X98002010Y-75433689D01*
X98194119Y-75348625D01*
X98448563Y-75248729D01*
X98688875Y-75162369D01*
X99035105Y-75036163D01*
X99258305Y-74936714D01*
X99358898Y-74860968D01*
X99337306Y-74805873D01*
X99193952Y-74768379D01*
X98929257Y-74745433D01*
X98747578Y-74738346D01*
X98123656Y-74720250D01*
X98292364Y-74307500D01*
X98994856Y-74307500D01*
X99366464Y-74313307D01*
G36*
X106992006Y-74305635D02*
G01*
X107161613Y-74322941D01*
X107242597Y-74357105D01*
X107245500Y-74366866D01*
X107224616Y-74466155D01*
X107183571Y-74589116D01*
X107148408Y-74666007D01*
X107096164Y-74713868D01*
X106999841Y-74739571D01*
X106832437Y-74749990D01*
X106566954Y-74751996D01*
X106543687Y-74752000D01*
X106267201Y-74754255D01*
X106084986Y-74766322D01*
X105964325Y-74796155D01*
X105872504Y-74851705D01*
X105780115Y-74937615D01*
X105640817Y-75131816D01*
X105597100Y-75323986D01*
X105654839Y-75483866D01*
X105670700Y-75501300D01*
X105774315Y-75544784D01*
X105955634Y-75572373D01*
X106080901Y-75577500D01*
X106414902Y-75577500D01*
X106491002Y-75323500D01*
X106550448Y-75161024D01*
X106624053Y-75088061D01*
X106751437Y-75069702D01*
X106779301Y-75069500D01*
X106900547Y-75076538D01*
X106964587Y-75112643D01*
X106974147Y-75200302D01*
X106931953Y-75362001D01*
X106844745Y-75609250D01*
X106705540Y-75990250D01*
X106134145Y-76004799D01*
X105789325Y-76003712D01*
X105549587Y-75978472D01*
X105394944Y-75926972D01*
X105394860Y-75926925D01*
X105221581Y-75769408D01*
X105142105Y-75556274D01*
X105149442Y-75309165D01*
X105236599Y-75049726D01*
X105396587Y-74799600D01*
X105622413Y-74580432D01*
X105879705Y-74425926D01*
X106035965Y-74378678D01*
X106255756Y-74341709D01*
X106508647Y-74316335D01*
X106764207Y-74303871D01*
X106992006Y-74305635D01*
G37*
X106992006Y-74305635D02*
X107161613Y-74322941D01*
X107242597Y-74357105D01*
X107245500Y-74366866D01*
X107224616Y-74466155D01*
X107183571Y-74589116D01*
X107148408Y-74666007D01*
X107096164Y-74713868D01*
X106999841Y-74739571D01*
X106832437Y-74749990D01*
X106566954Y-74751996D01*
X106543687Y-74752000D01*
X106267201Y-74754255D01*
X106084986Y-74766322D01*
X105964325Y-74796155D01*
X105872504Y-74851705D01*
X105780115Y-74937615D01*
X105640817Y-75131816D01*
X105597100Y-75323986D01*
X105654839Y-75483866D01*
X105670700Y-75501300D01*
X105774315Y-75544784D01*
X105955634Y-75572373D01*
X106080901Y-75577500D01*
X106414902Y-75577500D01*
X106491002Y-75323500D01*
X106550448Y-75161024D01*
X106624053Y-75088061D01*
X106751437Y-75069702D01*
X106779301Y-75069500D01*
X106900547Y-75076538D01*
X106964587Y-75112643D01*
X106974147Y-75200302D01*
X106931953Y-75362001D01*
X106844745Y-75609250D01*
X106705540Y-75990250D01*
X106134145Y-76004799D01*
X105789325Y-76003712D01*
X105549587Y-75978472D01*
X105394944Y-75926972D01*
X105394860Y-75926925D01*
X105221581Y-75769408D01*
X105142105Y-75556274D01*
X105149442Y-75309165D01*
X105236599Y-75049726D01*
X105396587Y-74799600D01*
X105622413Y-74580432D01*
X105879705Y-74425926D01*
X106035965Y-74378678D01*
X106255756Y-74341709D01*
X106508647Y-74316335D01*
X106764207Y-74303871D01*
X106992006Y-74305635D01*
G36*
X95736330Y-74396658D02*
G01*
X95802800Y-74447200D01*
X95854392Y-74523284D01*
X95871911Y-74630299D01*
X95852513Y-74789430D01*
X95793355Y-75021866D01*
X95691594Y-75348792D01*
X95674996Y-75399615D01*
X95582259Y-75678595D01*
X95514537Y-75858552D01*
X95457434Y-75961194D01*
X95396556Y-76008228D01*
X95317505Y-76021361D01*
X95262246Y-76022000D01*
X95120696Y-76014882D01*
X95054217Y-75997525D01*
X95053500Y-75995309D01*
X95073262Y-75927634D01*
X95126241Y-75768446D01*
X95202977Y-75545847D01*
X95248086Y-75417313D01*
X95330270Y-75173401D01*
X95388726Y-74978103D01*
X95415418Y-74859480D01*
X95414157Y-74837491D01*
X95364555Y-74871555D01*
X95250448Y-74985349D01*
X95088735Y-75161121D01*
X94896314Y-75381120D01*
X94893207Y-75384752D01*
X94609450Y-75700348D01*
X94384413Y-75908010D01*
X94209464Y-76007474D01*
X94075972Y-75998476D01*
X93975304Y-75880751D01*
X93898829Y-75654036D01*
X93842959Y-75352606D01*
X93801697Y-75110231D01*
X93760211Y-74924718D01*
X93725380Y-74824940D01*
X93715012Y-74815500D01*
X93676061Y-74871776D01*
X93609507Y-75023482D01*
X93525953Y-75244928D01*
X93466000Y-75418750D01*
X93373490Y-75692393D01*
X93305954Y-75867507D01*
X93248321Y-75966084D01*
X93185520Y-76010116D01*
X93102481Y-76021595D01*
X93052618Y-76022000D01*
X92840209Y-76022000D01*
X93060654Y-75363689D01*
X93195880Y-74993209D01*
X93322517Y-74729377D01*
X93453924Y-74553751D01*
X93603458Y-74447889D01*
X93760283Y-74397868D01*
X93926165Y-74393055D01*
X94048508Y-74465311D01*
X94138962Y-74629756D01*
X94209177Y-74901508D01*
X94227756Y-75004554D01*
X94270419Y-75223039D01*
X94312545Y-75382023D01*
X94345620Y-75449932D01*
X94347992Y-75450500D01*
X94405763Y-75404821D01*
X94523090Y-75282374D01*
X94679550Y-75105045D01*
X94767143Y-75001353D01*
X95071050Y-74671591D01*
X95334187Y-74460725D01*
X95556099Y-74369000D01*
X95736330Y-74396658D01*
G37*
X95736330Y-74396658D02*
X95802800Y-74447200D01*
X95854392Y-74523284D01*
X95871911Y-74630299D01*
X95852513Y-74789430D01*
X95793355Y-75021866D01*
X95691594Y-75348792D01*
X95674996Y-75399615D01*
X95582259Y-75678595D01*
X95514537Y-75858552D01*
X95457434Y-75961194D01*
X95396556Y-76008228D01*
X95317505Y-76021361D01*
X95262246Y-76022000D01*
X95120696Y-76014882D01*
X95054217Y-75997525D01*
X95053500Y-75995309D01*
X95073262Y-75927634D01*
X95126241Y-75768446D01*
X95202977Y-75545847D01*
X95248086Y-75417313D01*
X95330270Y-75173401D01*
X95388726Y-74978103D01*
X95415418Y-74859480D01*
X95414157Y-74837491D01*
X95364555Y-74871555D01*
X95250448Y-74985349D01*
X95088735Y-75161121D01*
X94896314Y-75381120D01*
X94893207Y-75384752D01*
X94609450Y-75700348D01*
X94384413Y-75908010D01*
X94209464Y-76007474D01*
X94075972Y-75998476D01*
X93975304Y-75880751D01*
X93898829Y-75654036D01*
X93842959Y-75352606D01*
X93801697Y-75110231D01*
X93760211Y-74924718D01*
X93725380Y-74824940D01*
X93715012Y-74815500D01*
X93676061Y-74871776D01*
X93609507Y-75023482D01*
X93525953Y-75244928D01*
X93466000Y-75418750D01*
X93373490Y-75692393D01*
X93305954Y-75867507D01*
X93248321Y-75966084D01*
X93185520Y-76010116D01*
X93102481Y-76021595D01*
X93052618Y-76022000D01*
X92840209Y-76022000D01*
X93060654Y-75363689D01*
X93195880Y-74993209D01*
X93322517Y-74729377D01*
X93453924Y-74553751D01*
X93603458Y-74447889D01*
X93760283Y-74397868D01*
X93926165Y-74393055D01*
X94048508Y-74465311D01*
X94138962Y-74629756D01*
X94209177Y-74901508D01*
X94227756Y-75004554D01*
X94270419Y-75223039D01*
X94312545Y-75382023D01*
X94345620Y-75449932D01*
X94347992Y-75450500D01*
X94405763Y-75404821D01*
X94523090Y-75282374D01*
X94679550Y-75105045D01*
X94767143Y-75001353D01*
X95071050Y-74671591D01*
X95334187Y-74460725D01*
X95556099Y-74369000D01*
X95736330Y-74396658D01*
G36*
X104333290Y-74340541D02*
G01*
X104537461Y-74348292D01*
X104669467Y-74368315D01*
X104756725Y-74406422D01*
X104826652Y-74468427D01*
X104869888Y-74517415D01*
X104990839Y-74747424D01*
X105003728Y-75011246D01*
X104915167Y-75288118D01*
X104731769Y-75557278D01*
X104462594Y-75796245D01*
X104332799Y-75881859D01*
X104213330Y-75938763D01*
X104072180Y-75974104D01*
X103877345Y-75995023D01*
X103596822Y-76008666D01*
X103494758Y-76012286D01*
X103190058Y-76021183D01*
X102990415Y-76020937D01*
X102874038Y-76008571D01*
X102819132Y-75981109D01*
X102803906Y-75935573D01*
X102803819Y-75917899D01*
X102826214Y-75814431D01*
X102884738Y-75620030D01*
X102925340Y-75498125D01*
X103376921Y-75498125D01*
X103429614Y-75546456D01*
X103570694Y-75572616D01*
X103763580Y-75577071D01*
X103971693Y-75560285D01*
X104158453Y-75522721D01*
X104251790Y-75487012D01*
X104418050Y-75350419D01*
X104527015Y-75164950D01*
X104553757Y-74977592D01*
X104544480Y-74935350D01*
X104462012Y-74827602D01*
X104290672Y-74769961D01*
X104016941Y-74758762D01*
X103912694Y-74763919D01*
X103732291Y-74780531D01*
X103628446Y-74821824D01*
X103561406Y-74919765D01*
X103493199Y-75101250D01*
X103428938Y-75296166D01*
X103386351Y-75447507D01*
X103376921Y-75498125D01*
X102925340Y-75498125D01*
X102970507Y-75362519D01*
X103074637Y-75069721D01*
X103074718Y-75069500D01*
X103342298Y-74339250D01*
X104029538Y-74339250D01*
X104333290Y-74340541D01*
G37*
X104333290Y-74340541D02*
X104537461Y-74348292D01*
X104669467Y-74368315D01*
X104756725Y-74406422D01*
X104826652Y-74468427D01*
X104869888Y-74517415D01*
X104990839Y-74747424D01*
X105003728Y-75011246D01*
X104915167Y-75288118D01*
X104731769Y-75557278D01*
X104462594Y-75796245D01*
X104332799Y-75881859D01*
X104213330Y-75938763D01*
X104072180Y-75974104D01*
X103877345Y-75995023D01*
X103596822Y-76008666D01*
X103494758Y-76012286D01*
X103190058Y-76021183D01*
X102990415Y-76020937D01*
X102874038Y-76008571D01*
X102819132Y-75981109D01*
X102803906Y-75935573D01*
X102803819Y-75917899D01*
X102826214Y-75814431D01*
X102884738Y-75620030D01*
X102925340Y-75498125D01*
X103376921Y-75498125D01*
X103429614Y-75546456D01*
X103570694Y-75572616D01*
X103763580Y-75577071D01*
X103971693Y-75560285D01*
X104158453Y-75522721D01*
X104251790Y-75487012D01*
X104418050Y-75350419D01*
X104527015Y-75164950D01*
X104553757Y-74977592D01*
X104544480Y-74935350D01*
X104462012Y-74827602D01*
X104290672Y-74769961D01*
X104016941Y-74758762D01*
X103912694Y-74763919D01*
X103732291Y-74780531D01*
X103628446Y-74821824D01*
X103561406Y-74919765D01*
X103493199Y-75101250D01*
X103428938Y-75296166D01*
X103386351Y-75447507D01*
X103376921Y-75498125D01*
X102925340Y-75498125D01*
X102970507Y-75362519D01*
X103074637Y-75069721D01*
X103074718Y-75069500D01*
X103342298Y-74339250D01*
X104029538Y-74339250D01*
X104333290Y-74340541D01*
D10*
%TO.C,J13*%
X145285000Y-84475000D02*
X145285000Y-83270000D01*
X150875000Y-84475000D02*
X145285000Y-84475000D01*
X150875000Y-82065000D02*
X150875000Y-84475000D01*
X146810000Y-82065000D02*
X150875000Y-82065000D01*
D16*
%TO.C,J16*%
X169455000Y-118945000D02*
X169455000Y-108275000D01*
X169455000Y-108275000D02*
X174405000Y-108275000D01*
X174405000Y-108275000D02*
X174405000Y-118945000D01*
X174405000Y-118945000D02*
X169455000Y-118945000D01*
D10*
X174900000Y-109750000D02*
G75*
G03*
X174900000Y-109750000I-50000J0D01*
G01*
D14*
%TO.C,J17*%
X78849627Y-120280001D02*
X77325627Y-119645001D01*
X77325627Y-119645001D02*
X77325627Y-120915001D01*
X77325627Y-120915001D02*
X78849627Y-120280001D01*
X90073605Y-117640001D02*
X90073605Y-130780000D01*
X90073605Y-130780000D02*
X79103627Y-130780000D01*
X79103627Y-130780000D02*
X79103627Y-117640001D01*
X79103627Y-117640001D02*
X90073605Y-117640001D01*
D16*
%TO.C,J9*%
X167504000Y-102182000D02*
X167504000Y-81982000D01*
X167504000Y-81982000D02*
X175904000Y-81982000D01*
X175904000Y-81982000D02*
X175904000Y-102182000D01*
X175904000Y-102182000D02*
X167504000Y-102182000D01*
D14*
%TO.C,J18*%
X96043232Y-120280001D02*
X94519232Y-119645001D01*
X94519232Y-119645001D02*
X94519232Y-120915001D01*
X94519232Y-120915001D02*
X96043232Y-120280001D01*
X109807205Y-117640001D02*
X109807205Y-130780000D01*
X109807205Y-130780000D02*
X96297232Y-130780000D01*
X96297232Y-130780000D02*
X96297232Y-117640001D01*
X96297232Y-117640001D02*
X109807205Y-117640001D01*
%TO.C,J14*%
X116181020Y-120280001D02*
X114657020Y-119645001D01*
X114657020Y-119645001D02*
X114657020Y-120915001D01*
X114657020Y-120915001D02*
X116181020Y-120280001D01*
X137564977Y-119880002D02*
X137564977Y-130780000D01*
X137564977Y-130780000D02*
X116435020Y-130780000D01*
X116435020Y-130780000D02*
X116435020Y-119880002D01*
X116435020Y-119880002D02*
X118384960Y-119880002D01*
X120375040Y-119880002D02*
X121008899Y-119880002D01*
X122831101Y-119880002D02*
X123548899Y-119880002D01*
X125371101Y-119880002D02*
X126088899Y-119880002D01*
X127911101Y-119880002D02*
X128628899Y-119880002D01*
X130451101Y-119880002D02*
X131168899Y-119880002D01*
X132991101Y-119880002D02*
X133708899Y-119880002D01*
X135531101Y-119880002D02*
X137564977Y-119880002D01*
D10*
%TO.C,U2*%
X75550000Y-93550000D02*
X75550000Y-92300000D01*
X78575000Y-91950000D02*
X75725000Y-91950000D01*
X78575000Y-91400000D02*
X78575000Y-91950000D01*
X75725000Y-91400000D02*
X78575000Y-91400000D01*
X75725000Y-91950000D02*
X75725000Y-91400000D01*
D14*
%TO.C,R0*%
X81480282Y-91340835D02*
X81159165Y-91019718D01*
X80440835Y-92380282D02*
X80119718Y-92059165D01*
%TO.C,J2*%
X71340000Y-90242498D02*
X71790000Y-90242498D01*
X71790000Y-90692498D02*
X71790000Y-90242498D01*
X71110000Y-88242498D02*
X71110000Y-88662498D01*
X69130000Y-88242498D02*
X71110000Y-88242498D01*
X66760000Y-88242498D02*
X67160000Y-88242498D01*
X67160000Y-95762498D02*
X66760000Y-95762498D01*
X71110000Y-95762498D02*
X71110000Y-95342498D01*
X69130000Y-95762498D02*
X71110000Y-95762498D01*
D10*
%TO.C,J11*%
X143065000Y-101050000D02*
X143065000Y-81745000D01*
X143065000Y-81745000D02*
X145475000Y-81745000D01*
X145475000Y-81745000D02*
X145475000Y-102575000D01*
X145475000Y-102575000D02*
X144270000Y-102575000D01*
D14*
%TO.C,J15*%
X143740020Y-120280001D02*
X142216020Y-119645001D01*
X142216020Y-119645001D02*
X142216020Y-120915001D01*
X142216020Y-120915001D02*
X143740020Y-120280001D01*
X165123977Y-119880002D02*
X165123977Y-130780000D01*
X165123977Y-130780000D02*
X143994020Y-130780000D01*
X143994020Y-130780000D02*
X143994020Y-119880002D01*
X143994020Y-119880002D02*
X145943960Y-119880002D01*
X147934040Y-119880002D02*
X148567899Y-119880002D01*
X150390101Y-119880002D02*
X151107899Y-119880002D01*
X152930101Y-119880002D02*
X153647899Y-119880002D01*
X155470101Y-119880002D02*
X156187899Y-119880002D01*
X158010101Y-119880002D02*
X158727899Y-119880002D01*
X160550101Y-119880002D02*
X161267899Y-119880002D01*
X163090101Y-119880002D02*
X165123977Y-119880002D01*
%TO.C,J5*%
X94906592Y-65940000D02*
X76316629Y-65940000D01*
X94906592Y-52800001D02*
X94906592Y-65940000D01*
X76316629Y-52800001D02*
X94906592Y-52800001D01*
X76316629Y-65940000D02*
X76316629Y-52800001D01*
X96684592Y-62665000D02*
X95160592Y-63300000D01*
X96684592Y-63935000D02*
X96684592Y-62665000D01*
X95160592Y-63300000D02*
X96684592Y-63935000D01*
%TO.C,J6*%
X118451185Y-65940000D02*
X99861222Y-65940000D01*
X118451185Y-52800001D02*
X118451185Y-65940000D01*
X99861222Y-52800001D02*
X118451185Y-52800001D01*
X99861222Y-65940000D02*
X99861222Y-52800001D01*
X120229185Y-62665000D02*
X118705185Y-63300000D01*
X120229185Y-63935000D02*
X120229185Y-62665000D01*
X118705185Y-63300000D02*
X120229185Y-63935000D01*
%TO.C,J7*%
X141995778Y-65947000D02*
X123405815Y-65947000D01*
X141995778Y-52807001D02*
X141995778Y-65947000D01*
X123405815Y-52807001D02*
X141995778Y-52807001D01*
X123405815Y-65947000D02*
X123405815Y-52807001D01*
X143773778Y-62672000D02*
X142249778Y-63307000D01*
X143773778Y-63942000D02*
X143773778Y-62672000D01*
X142249778Y-63307000D02*
X143773778Y-63942000D01*
%TO.C,J8*%
X165540371Y-65947000D02*
X146950408Y-65947000D01*
X165540371Y-52807001D02*
X165540371Y-65947000D01*
X146950408Y-52807001D02*
X165540371Y-52807001D01*
X146950408Y-65947000D02*
X146950408Y-52807001D01*
X167318371Y-62672000D02*
X165794371Y-63307000D01*
X167318371Y-63942000D02*
X167318371Y-62672000D01*
X165794371Y-63307000D02*
X167318371Y-63942000D01*
D16*
%TO.C,D4*%
X111700000Y-111300000D02*
X111700000Y-111300000D01*
X111800000Y-111300000D02*
X111800000Y-111300000D01*
X111700000Y-111300000D02*
G75*
G02*
X111800000Y-111300000I50000J0D01*
G01*
X111800000Y-111300000D02*
G75*
G02*
X111700000Y-111300000I-50000J0D01*
G01*
D14*
%TO.C,U4*%
X130860000Y-101910000D02*
X131810000Y-101910000D01*
X131810000Y-101910000D02*
X131810000Y-100960000D01*
X112540000Y-101910000D02*
X111590000Y-101910000D01*
X111590000Y-101910000D02*
X111590000Y-100960000D01*
X130860000Y-81690000D02*
X131810000Y-81690000D01*
X131810000Y-81690000D02*
X131810000Y-82640000D01*
X112540000Y-81690000D02*
X111590000Y-81690000D01*
X111590000Y-81690000D02*
X111590000Y-82640000D01*
X111590000Y-82640000D02*
X110300000Y-82640000D01*
%TO.C,SW1*%
X74970000Y-77170000D02*
X75000000Y-77170000D01*
X81430000Y-77170000D02*
X81400000Y-77170000D01*
X81430000Y-83630000D02*
X81400000Y-83630000D01*
X75000000Y-83630000D02*
X74970000Y-83630000D01*
X76900000Y-77170000D02*
X79500000Y-77170000D01*
X74970000Y-83630000D02*
X74970000Y-77170000D01*
X76900000Y-83630000D02*
X79500000Y-83630000D01*
X81430000Y-83630000D02*
X81430000Y-77170000D01*
%TO.C,JP6*%
X139890000Y-123240000D02*
X140950000Y-123240000D01*
X139890000Y-124300000D02*
X139890000Y-123240000D01*
X139890000Y-125300000D02*
X142010000Y-125300000D01*
X142010000Y-125300000D02*
X142010000Y-129360000D01*
X139890000Y-125300000D02*
X139890000Y-129360000D01*
X139890000Y-129360000D02*
X142010000Y-129360000D01*
%TO.C,JP8*%
X92240000Y-123240000D02*
X93300000Y-123240000D01*
X92240000Y-124300000D02*
X92240000Y-123240000D01*
X92240000Y-125300000D02*
X94360000Y-125300000D01*
X94360000Y-125300000D02*
X94360000Y-129360000D01*
X92240000Y-125300000D02*
X92240000Y-129360000D01*
X92240000Y-129360000D02*
X94360000Y-129360000D01*
%TO.C,JP1*%
X98460000Y-54040000D02*
X96340000Y-54040000D01*
X98460000Y-58100000D02*
X98460000Y-54040000D01*
X96340000Y-58100000D02*
X96340000Y-54040000D01*
X98460000Y-58100000D02*
X96340000Y-58100000D01*
X98460000Y-59100000D02*
X98460000Y-60160000D01*
X98460000Y-60160000D02*
X97400000Y-60160000D01*
%TO.C,JP5*%
X112390000Y-123240000D02*
X113450000Y-123240000D01*
X112390000Y-124300000D02*
X112390000Y-123240000D01*
X112390000Y-125300000D02*
X114510000Y-125300000D01*
X114510000Y-125300000D02*
X114510000Y-129360000D01*
X112390000Y-125300000D02*
X112390000Y-129360000D01*
X112390000Y-129360000D02*
X114510000Y-129360000D01*
%TO.C,JP2*%
X122010000Y-53990000D02*
X119890000Y-53990000D01*
X122010000Y-58050000D02*
X122010000Y-53990000D01*
X119890000Y-58050000D02*
X119890000Y-53990000D01*
X122010000Y-58050000D02*
X119890000Y-58050000D01*
X122010000Y-59050000D02*
X122010000Y-60110000D01*
X122010000Y-60110000D02*
X120950000Y-60110000D01*
%TO.C,JP7*%
X75140000Y-123240000D02*
X76200000Y-123240000D01*
X75140000Y-124300000D02*
X75140000Y-123240000D01*
X75140000Y-125300000D02*
X77260000Y-125300000D01*
X77260000Y-125300000D02*
X77260000Y-129360000D01*
X75140000Y-125300000D02*
X75140000Y-129360000D01*
X75140000Y-129360000D02*
X77260000Y-129360000D01*
%TO.C,JP3*%
X145510000Y-53990000D02*
X143390000Y-53990000D01*
X145510000Y-58050000D02*
X145510000Y-53990000D01*
X143390000Y-58050000D02*
X143390000Y-53990000D01*
X145510000Y-58050000D02*
X143390000Y-58050000D01*
X145510000Y-59050000D02*
X145510000Y-60110000D01*
X145510000Y-60110000D02*
X144450000Y-60110000D01*
%TO.C,JP4*%
X169260000Y-53990000D02*
X167140000Y-53990000D01*
X169260000Y-58050000D02*
X169260000Y-53990000D01*
X167140000Y-58050000D02*
X167140000Y-53990000D01*
X169260000Y-58050000D02*
X167140000Y-58050000D01*
X169260000Y-59050000D02*
X169260000Y-60110000D01*
X169260000Y-60110000D02*
X168200000Y-60110000D01*
D10*
%TO.C,U3*%
X163800000Y-80250000D02*
X160600000Y-80250000D01*
X160600000Y-80250000D02*
X160600000Y-75350000D01*
X160600000Y-75350000D02*
X163800000Y-75350000D01*
X163800000Y-75350000D02*
X163800000Y-80250000D01*
X165650000Y-80380000D02*
X164150000Y-80380000D01*
%TO.C,SW2*%
X71571060Y-70062000D02*
G75*
G03*
X71571060Y-70062000I-63060J0D01*
G01*
X68850000Y-75650000D02*
X68050000Y-75650000D01*
X68850000Y-68950000D02*
X68050000Y-68950000D01*
X67150000Y-69552000D02*
X67150000Y-75048000D01*
D14*
%TO.C,R52*%
X164297500Y-115037258D02*
X164297500Y-114562742D01*
X165342500Y-115037258D02*
X165342500Y-114562742D01*
%TO.C,R51*%
X164297500Y-111787258D02*
X164297500Y-111312742D01*
X165342500Y-111787258D02*
X165342500Y-111312742D01*
%TO.C,R50*%
X165937258Y-109572500D02*
X165462742Y-109572500D01*
X165937258Y-108527500D02*
X165462742Y-108527500D01*
%TO.C,R49*%
X160362600Y-117027064D02*
X160362600Y-116572936D01*
X158892600Y-117027064D02*
X158892600Y-116572936D01*
%TO.C,R48*%
X157822600Y-117027064D02*
X157822600Y-116572936D01*
X156352600Y-117027064D02*
X156352600Y-116572936D01*
%TO.C,R47*%
X155282600Y-117027064D02*
X155282600Y-116572936D01*
X153812600Y-117027064D02*
X153812600Y-116572936D01*
%TO.C,R46*%
X152742600Y-117027064D02*
X152742600Y-116572936D01*
X151272600Y-117027064D02*
X151272600Y-116572936D01*
%TO.C,R45*%
X150202600Y-117027064D02*
X150202600Y-116572936D01*
X148732600Y-117027064D02*
X148732600Y-116572936D01*
%TO.C,R44*%
X131333600Y-117027064D02*
X131333600Y-116572936D01*
X132803600Y-117027064D02*
X132803600Y-116572936D01*
%TO.C,R43*%
X128793600Y-117027064D02*
X128793600Y-116572936D01*
X130263600Y-117027064D02*
X130263600Y-116572936D01*
%TO.C,R42*%
X126253600Y-117027064D02*
X126253600Y-116572936D01*
X127723600Y-117027064D02*
X127723600Y-116572936D01*
%TO.C,R41*%
X123713600Y-117027064D02*
X123713600Y-116572936D01*
X125183600Y-117027064D02*
X125183600Y-116572936D01*
%TO.C,R40*%
X121173600Y-117027064D02*
X121173600Y-116572936D01*
X122643600Y-117027064D02*
X122643600Y-116572936D01*
%TO.C,R39*%
X147435000Y-90322936D02*
X147435000Y-90777064D01*
X145965000Y-90322936D02*
X145965000Y-90777064D01*
%TO.C,R38*%
X145965000Y-94277064D02*
X145965000Y-93822936D01*
X147435000Y-94277064D02*
X147435000Y-93822936D01*
%TO.C,R37*%
X145965000Y-97777064D02*
X145965000Y-97322936D01*
X147435000Y-97777064D02*
X147435000Y-97322936D01*
%TO.C,R36*%
X152892920Y-68183436D02*
X152892920Y-68637564D01*
X151422920Y-68183436D02*
X151422920Y-68637564D01*
%TO.C,R35*%
X155515840Y-68183436D02*
X155515840Y-68637564D01*
X154045840Y-68183436D02*
X154045840Y-68637564D01*
%TO.C,R34*%
X158138760Y-68183436D02*
X158138760Y-68637564D01*
X156668760Y-68183436D02*
X156668760Y-68637564D01*
%TO.C,R33*%
X160761680Y-68183436D02*
X160761680Y-68637564D01*
X159291680Y-68183436D02*
X159291680Y-68637564D01*
%TO.C,R32*%
X129413160Y-68335836D02*
X129413160Y-68789964D01*
X127943160Y-68335836D02*
X127943160Y-68789964D01*
%TO.C,R31*%
X132051320Y-68335836D02*
X132051320Y-68789964D01*
X130581320Y-68335836D02*
X130581320Y-68789964D01*
%TO.C,R30*%
X134689480Y-68335836D02*
X134689480Y-68789964D01*
X133219480Y-68335836D02*
X133219480Y-68789964D01*
%TO.C,R29*%
X137327640Y-68335836D02*
X137327640Y-68789964D01*
X135857640Y-68335836D02*
X135857640Y-68789964D01*
%TO.C,R28*%
X105994360Y-68234236D02*
X105994360Y-68688364D01*
X104524360Y-68234236D02*
X104524360Y-68688364D01*
%TO.C,R27*%
X108632520Y-68234236D02*
X108632520Y-68688364D01*
X107162520Y-68234236D02*
X107162520Y-68688364D01*
%TO.C,R26*%
X111270680Y-68234236D02*
X111270680Y-68688364D01*
X109800680Y-68234236D02*
X109800680Y-68688364D01*
%TO.C,R25*%
X113908840Y-68234236D02*
X113908840Y-68688364D01*
X112438840Y-68234236D02*
X112438840Y-68688364D01*
%TO.C,R24*%
X82565400Y-68234236D02*
X82565400Y-68688364D01*
X81095400Y-68234236D02*
X81095400Y-68688364D01*
%TO.C,R23*%
X85193400Y-68234236D02*
X85193400Y-68688364D01*
X83723400Y-68234236D02*
X83723400Y-68688364D01*
%TO.C,R22*%
X87821400Y-68234236D02*
X87821400Y-68688364D01*
X86351400Y-68234236D02*
X86351400Y-68688364D01*
%TO.C,R21*%
X90449400Y-68234236D02*
X90449400Y-68688364D01*
X88979400Y-68234236D02*
X88979400Y-68688364D01*
%TO.C,R20*%
X137265000Y-76227064D02*
X137265000Y-75772936D01*
X138735000Y-76227064D02*
X138735000Y-75772936D01*
%TO.C,R19*%
X133465000Y-76227064D02*
X133465000Y-75772936D01*
X134935000Y-76227064D02*
X134935000Y-75772936D01*
%TO.C,R18*%
X136835000Y-75772936D02*
X136835000Y-76227064D01*
X135365000Y-75772936D02*
X135365000Y-76227064D01*
%TO.C,R17*%
X139165000Y-76227064D02*
X139165000Y-75772936D01*
X140635000Y-76227064D02*
X140635000Y-75772936D01*
%TO.C,R16*%
X74762258Y-73622500D02*
X74287742Y-73622500D01*
X74762258Y-72577500D02*
X74287742Y-72577500D01*
%TO.C,R15*%
X115062742Y-112877500D02*
X115537258Y-112877500D01*
X115062742Y-113922500D02*
X115537258Y-113922500D01*
%TO.C,R14*%
X115062742Y-111277500D02*
X115537258Y-111277500D01*
X115062742Y-112322500D02*
X115537258Y-112322500D01*
%TO.C,R13*%
X115062742Y-109677500D02*
X115537258Y-109677500D01*
X115062742Y-110722500D02*
X115537258Y-110722500D01*
%TO.C,R12*%
X108437258Y-94072500D02*
X107962742Y-94072500D01*
X108437258Y-93027500D02*
X107962742Y-93027500D01*
%TO.C,R11*%
X162817100Y-68233942D02*
X162817100Y-68708458D01*
X161772100Y-68233942D02*
X161772100Y-68708458D01*
%TO.C,R10*%
X150396500Y-68157742D02*
X150396500Y-68632258D01*
X149351500Y-68157742D02*
X149351500Y-68632258D01*
%TO.C,R9*%
X139398300Y-68360942D02*
X139398300Y-68835458D01*
X138353300Y-68360942D02*
X138353300Y-68835458D01*
%TO.C,R8*%
X126977700Y-68360942D02*
X126977700Y-68835458D01*
X125932700Y-68360942D02*
X125932700Y-68835458D01*
%TO.C,R7*%
X103363700Y-68225942D02*
X103363700Y-68700458D01*
X102318700Y-68225942D02*
X102318700Y-68700458D01*
%TO.C,R6*%
X116114500Y-68225942D02*
X116114500Y-68700458D01*
X115069500Y-68225942D02*
X115069500Y-68700458D01*
%TO.C,R5*%
X92560700Y-68225942D02*
X92560700Y-68700458D01*
X91515700Y-68225942D02*
X91515700Y-68700458D01*
%TO.C,R4*%
X80114700Y-68225942D02*
X80114700Y-68700458D01*
X79069700Y-68225942D02*
X79069700Y-68700458D01*
%TO.C,R3*%
X107722500Y-100387742D02*
X107722500Y-100862258D01*
X106677500Y-100387742D02*
X106677500Y-100862258D01*
%TO.C,R2*%
X84077500Y-80687258D02*
X84077500Y-80212742D01*
X85122500Y-80687258D02*
X85122500Y-80212742D01*
%TO.C,R1*%
X80762742Y-112077500D02*
X81237258Y-112077500D01*
X80762742Y-113122500D02*
X81237258Y-113122500D01*
D10*
%TO.C,J12*%
X148130000Y-83266720D02*
G75*
G03*
X148130000Y-83266720I-50000J0D01*
G01*
D16*
X149655000Y-83711720D02*
X149655000Y-86121720D01*
X146605000Y-83711720D02*
X149655000Y-83711720D01*
X146605000Y-86121720D02*
X146605000Y-83711720D01*
X149655000Y-86121720D02*
X146605000Y-86121720D01*
D14*
%TO.C,J4*%
X147305000Y-74830000D02*
X147305000Y-75465000D01*
X146670000Y-74830000D02*
X147305000Y-74830000D01*
D10*
%TO.C,J3*%
X171700000Y-75070000D02*
X172905000Y-75070000D01*
X172905000Y-75070000D02*
X172905000Y-67450000D01*
X172905000Y-67450000D02*
X170495000Y-67450000D01*
X170495000Y-67450000D02*
X170495000Y-73800000D01*
%TO.C,J1*%
X69450000Y-107280000D02*
X68245000Y-107280000D01*
X68245000Y-107280000D02*
X68245000Y-114900000D01*
X68245000Y-114900000D02*
X70655000Y-114900000D01*
X70655000Y-114900000D02*
X70655000Y-108550000D01*
D14*
%TO.C,HSE1*%
X103050000Y-90300000D02*
X103050000Y-94300000D01*
X106350000Y-90300000D02*
X103050000Y-90300000D01*
%TO.C,FB2*%
X104287221Y-100540000D02*
X104612779Y-100540000D01*
X104287221Y-101560000D02*
X104612779Y-101560000D01*
%TO.C,FB1*%
X86690000Y-103137221D02*
X86690000Y-103462779D01*
X87710000Y-103137221D02*
X87710000Y-103462779D01*
%TO.C,F2*%
X170362779Y-78810000D02*
X170037221Y-78810000D01*
X170362779Y-77790000D02*
X170037221Y-77790000D01*
%TO.C,F1*%
X84940000Y-103137221D02*
X84940000Y-103462779D01*
X85960000Y-103137221D02*
X85960000Y-103462779D01*
%TO.C,D3*%
X82050000Y-109690000D02*
X79365000Y-109690000D01*
X79365000Y-109690000D02*
X79365000Y-111610000D01*
X79365000Y-111610000D02*
X82050000Y-111610000D01*
D16*
%TO.C,D2*%
X78900000Y-99100000D02*
X80900000Y-99100000D01*
X78900000Y-100700000D02*
X80900000Y-100700000D01*
%TO.C,D1*%
X78900000Y-95600000D02*
X80900000Y-95600000D01*
X78900000Y-97200000D02*
X80900000Y-97200000D01*
D14*
%TO.C,C28*%
X167031800Y-114659420D02*
X167031800Y-114940580D01*
X166011800Y-114659420D02*
X166011800Y-114940580D01*
%TO.C,C27*%
X167031800Y-111409420D02*
X167031800Y-111690580D01*
X166011800Y-111409420D02*
X166011800Y-111690580D01*
%TO.C,C26*%
X104840580Y-95810000D02*
X104559420Y-95810000D01*
X104840580Y-94790000D02*
X104559420Y-94790000D01*
%TO.C,C25*%
X104559420Y-88790000D02*
X104840580Y-88790000D01*
X104559420Y-89810000D02*
X104840580Y-89810000D01*
%TO.C,C24*%
X108440000Y-96940580D02*
X108440000Y-96659420D01*
X109460000Y-96940580D02*
X109460000Y-96659420D01*
%TO.C,C23*%
X107935000Y-103688748D02*
X107935000Y-104211252D01*
X106465000Y-103688748D02*
X106465000Y-104211252D01*
%TO.C,C21*%
X133940000Y-82340580D02*
X133940000Y-82059420D01*
X134960000Y-82340580D02*
X134960000Y-82059420D01*
%TO.C,C20*%
X108440000Y-84940580D02*
X108440000Y-84659420D01*
X109460000Y-84940580D02*
X109460000Y-84659420D01*
%TO.C,C19*%
X108440000Y-90940580D02*
X108440000Y-90659420D01*
X109460000Y-90940580D02*
X109460000Y-90659420D01*
%TO.C,C18*%
X113059420Y-78540000D02*
X113340580Y-78540000D01*
X113059420Y-79560000D02*
X113340580Y-79560000D01*
%TO.C,C17*%
X119559420Y-78540000D02*
X119840580Y-78540000D01*
X119559420Y-79560000D02*
X119840580Y-79560000D01*
%TO.C,C16*%
X123559420Y-78540000D02*
X123840580Y-78540000D01*
X123559420Y-79560000D02*
X123840580Y-79560000D01*
%TO.C,C15*%
X130059420Y-78540000D02*
X130340580Y-78540000D01*
X130059420Y-79560000D02*
X130340580Y-79560000D01*
%TO.C,C13*%
X128340580Y-105060000D02*
X128059420Y-105060000D01*
X128340580Y-104040000D02*
X128059420Y-104040000D01*
%TO.C,C12*%
X123340580Y-105060000D02*
X123059420Y-105060000D01*
X123340580Y-104040000D02*
X123059420Y-104040000D01*
%TO.C,C11*%
X118340580Y-105060000D02*
X118059420Y-105060000D01*
X118340580Y-104040000D02*
X118059420Y-104040000D01*
%TO.C,C10*%
X108440000Y-100765580D02*
X108440000Y-100484420D01*
X109460000Y-100765580D02*
X109460000Y-100484420D01*
%TO.C,C9*%
X135665000Y-82261252D02*
X135665000Y-81738748D01*
X137135000Y-82261252D02*
X137135000Y-81738748D01*
%TO.C,C8*%
X112638748Y-76315000D02*
X113161252Y-76315000D01*
X112638748Y-77785000D02*
X113161252Y-77785000D01*
%TO.C,C7*%
X119688748Y-76315000D02*
X120211252Y-76315000D01*
X119688748Y-77785000D02*
X120211252Y-77785000D01*
%TO.C,C6*%
X106690000Y-96940580D02*
X106690000Y-96659420D01*
X107710000Y-96940580D02*
X107710000Y-96659420D01*
%TO.C,C5*%
X104711252Y-99785000D02*
X104188748Y-99785000D01*
X104711252Y-98315000D02*
X104188748Y-98315000D01*
%TO.C,C4*%
X82490000Y-80565580D02*
X82490000Y-80284420D01*
X83510000Y-80565580D02*
X83510000Y-80284420D01*
%TO.C,C3*%
X133965000Y-99561252D02*
X133965000Y-99038748D01*
X135435000Y-99561252D02*
X135435000Y-99038748D01*
%TO.C,C2*%
X97461252Y-103785000D02*
X96938748Y-103785000D01*
X97461252Y-102315000D02*
X96938748Y-102315000D01*
%TO.C,C1*%
X90738748Y-102265000D02*
X91261252Y-102265000D01*
X90738748Y-103735000D02*
X91261252Y-103735000D01*
%TO.C,*%
D13*
%TO.C,R39*%
D10*
X148992857Y-91171428D02*
X148421428Y-91571428D01*
X148992857Y-91857142D02*
X147792857Y-91857142D01*
X147792857Y-91400000D01*
X147850000Y-91285714D01*
X147907142Y-91228571D01*
X148021428Y-91171428D01*
X148192857Y-91171428D01*
X148307142Y-91228571D01*
X148364285Y-91285714D01*
X148421428Y-91400000D01*
X148421428Y-91857142D01*
X147792857Y-90771428D02*
X147792857Y-90028571D01*
X148250000Y-90428571D01*
X148250000Y-90257142D01*
X148307142Y-90142857D01*
X148364285Y-90085714D01*
X148478571Y-90028571D01*
X148764285Y-90028571D01*
X148878571Y-90085714D01*
X148935714Y-90142857D01*
X148992857Y-90257142D01*
X148992857Y-90600000D01*
X148935714Y-90714285D01*
X148878571Y-90771428D01*
X148992857Y-89457142D02*
X148992857Y-89228571D01*
X148935714Y-89114285D01*
X148878571Y-89057142D01*
X148707142Y-88942857D01*
X148478571Y-88885714D01*
X148021428Y-88885714D01*
X147907142Y-88942857D01*
X147850000Y-89000000D01*
X147792857Y-89114285D01*
X147792857Y-89342857D01*
X147850000Y-89457142D01*
X147907142Y-89514285D01*
X148021428Y-89571428D01*
X148307142Y-89571428D01*
X148421428Y-89514285D01*
X148478571Y-89457142D01*
X148535714Y-89342857D01*
X148535714Y-89114285D01*
X148478571Y-89000000D01*
X148421428Y-88942857D01*
X148307142Y-88885714D01*
%TO.C,R38*%
X148992857Y-94821428D02*
X148421428Y-95221428D01*
X148992857Y-95507142D02*
X147792857Y-95507142D01*
X147792857Y-95050000D01*
X147850000Y-94935714D01*
X147907142Y-94878571D01*
X148021428Y-94821428D01*
X148192857Y-94821428D01*
X148307142Y-94878571D01*
X148364285Y-94935714D01*
X148421428Y-95050000D01*
X148421428Y-95507142D01*
X147792857Y-94421428D02*
X147792857Y-93678571D01*
X148250000Y-94078571D01*
X148250000Y-93907142D01*
X148307142Y-93792857D01*
X148364285Y-93735714D01*
X148478571Y-93678571D01*
X148764285Y-93678571D01*
X148878571Y-93735714D01*
X148935714Y-93792857D01*
X148992857Y-93907142D01*
X148992857Y-94250000D01*
X148935714Y-94364285D01*
X148878571Y-94421428D01*
X148307142Y-92992857D02*
X148250000Y-93107142D01*
X148192857Y-93164285D01*
X148078571Y-93221428D01*
X148021428Y-93221428D01*
X147907142Y-93164285D01*
X147850000Y-93107142D01*
X147792857Y-92992857D01*
X147792857Y-92764285D01*
X147850000Y-92650000D01*
X147907142Y-92592857D01*
X148021428Y-92535714D01*
X148078571Y-92535714D01*
X148192857Y-92592857D01*
X148250000Y-92650000D01*
X148307142Y-92764285D01*
X148307142Y-92992857D01*
X148364285Y-93107142D01*
X148421428Y-93164285D01*
X148535714Y-93221428D01*
X148764285Y-93221428D01*
X148878571Y-93164285D01*
X148935714Y-93107142D01*
X148992857Y-92992857D01*
X148992857Y-92764285D01*
X148935714Y-92650000D01*
X148878571Y-92592857D01*
X148764285Y-92535714D01*
X148535714Y-92535714D01*
X148421428Y-92592857D01*
X148364285Y-92650000D01*
X148307142Y-92764285D01*
%TO.C,R37*%
X149042857Y-98571428D02*
X148471428Y-98971428D01*
X149042857Y-99257142D02*
X147842857Y-99257142D01*
X147842857Y-98800000D01*
X147900000Y-98685714D01*
X147957142Y-98628571D01*
X148071428Y-98571428D01*
X148242857Y-98571428D01*
X148357142Y-98628571D01*
X148414285Y-98685714D01*
X148471428Y-98800000D01*
X148471428Y-99257142D01*
X147842857Y-98171428D02*
X147842857Y-97428571D01*
X148300000Y-97828571D01*
X148300000Y-97657142D01*
X148357142Y-97542857D01*
X148414285Y-97485714D01*
X148528571Y-97428571D01*
X148814285Y-97428571D01*
X148928571Y-97485714D01*
X148985714Y-97542857D01*
X149042857Y-97657142D01*
X149042857Y-98000000D01*
X148985714Y-98114285D01*
X148928571Y-98171428D01*
X147842857Y-97028571D02*
X147842857Y-96228571D01*
X149042857Y-96742857D01*
%TO.C,F2*%
X169800000Y-79714285D02*
X169400000Y-79714285D01*
X169400000Y-80342857D02*
X169400000Y-79142857D01*
X169971428Y-79142857D01*
X170371428Y-79257142D02*
X170428571Y-79200000D01*
X170542857Y-79142857D01*
X170828571Y-79142857D01*
X170942857Y-79200000D01*
X171000000Y-79257142D01*
X171057142Y-79371428D01*
X171057142Y-79485714D01*
X171000000Y-79657142D01*
X170314285Y-80342857D01*
X171057142Y-80342857D01*
%TO.C,F1*%
X83300000Y-103214285D02*
X82900000Y-103214285D01*
X82900000Y-103842857D02*
X82900000Y-102642857D01*
X83471428Y-102642857D01*
X84557142Y-103842857D02*
X83871428Y-103842857D01*
X84214285Y-103842857D02*
X84214285Y-102642857D01*
X84100000Y-102814285D01*
X83985714Y-102928571D01*
X83871428Y-102985714D01*
%TD*%
M02*
